<mxfile host="Electron" modified="2024-06-03T15:33:29.902Z" agent="Mozilla/5.0 (Windows NT 10.0; Win64; x64) AppleWebKit/537.36 (KHTML, like Gecko) draw.io/24.4.0 Chrome/120.0.6099.109 Electron/28.1.0 Safari/537.36" etag="b4HAbBOHIUg4z0QFvhY4" version="24.4.0" type="device" pages="2">
  <diagram name="Schema" id="F-MsDRfGFHNxRMOKlTHp">
    <mxGraphModel dx="1418" dy="828" grid="1" gridSize="10" guides="1" tooltips="1" connect="1" arrows="1" fold="1" page="1" pageScale="1" pageWidth="827" pageHeight="1169" math="0" shadow="0">
      <root>
        <mxCell id="uWiy1Z3-CHDcQIck3Mmg-0" />
        <mxCell id="uWiy1Z3-CHDcQIck3Mmg-1" parent="uWiy1Z3-CHDcQIck3Mmg-0" />
        <mxCell id="uWiy1Z3-CHDcQIck3Mmg-2" value="OIP core" style="swimlane;fillColor=#BE0000;fontColor=#FFFFFF;" parent="uWiy1Z3-CHDcQIck3Mmg-1" vertex="1">
          <mxGeometry x="460" y="430" width="380" height="230" as="geometry" />
        </mxCell>
        <mxCell id="uWiy1Z3-CHDcQIck3Mmg-3" value="Draco" style="sketch=0;aspect=fixed;pointerEvents=1;shadow=0;dashed=0;html=1;strokeColor=none;labelPosition=center;verticalLabelPosition=bottom;verticalAlign=top;align=center;fillColor=#BE0000;shape=mxgraph.mscae.enterprise.application_blank;fontStyle=1;gradientColor=none;fontSize=10;" parent="uWiy1Z3-CHDcQIck3Mmg-2" vertex="1">
          <mxGeometry x="61.860000000000014" y="140" width="58.14" height="50" as="geometry" />
        </mxCell>
        <mxCell id="uWiy1Z3-CHDcQIck3Mmg-4" value="Orion Context Broker" style="sketch=0;aspect=fixed;pointerEvents=1;shadow=0;dashed=0;html=1;strokeColor=none;labelPosition=center;verticalLabelPosition=bottom;verticalAlign=top;align=center;fillColor=#BE0000;shape=mxgraph.mscae.enterprise.application_blank;fontStyle=1;gradientColor=none;fontSize=10;" parent="uWiy1Z3-CHDcQIck3Mmg-2" vertex="1">
          <mxGeometry x="61.860000000000014" y="40" width="58.14" height="50" as="geometry" />
        </mxCell>
        <mxCell id="uWiy1Z3-CHDcQIck3Mmg-6" value="File System" style="sketch=0;aspect=fixed;pointerEvents=1;shadow=0;dashed=0;html=1;strokeColor=none;labelPosition=center;verticalLabelPosition=bottom;verticalAlign=top;align=center;fillColor=#BE0000;shape=mxgraph.mscae.enterprise.application_blank;fontStyle=1;gradientColor=none;fontSize=10;" parent="uWiy1Z3-CHDcQIck3Mmg-2" vertex="1">
          <mxGeometry x="178.13999999999996" y="140" width="58.14" height="50" as="geometry" />
        </mxCell>
        <mxCell id="82SbF4fwL_mv2y3TkE3i-8" value="" style="shape=image;verticalLabelPosition=bottom;labelBackgroundColor=default;verticalAlign=top;aspect=fixed;imageAspect=0;image=https://upload.wikimedia.org/wikipedia/commons/thumb/2/29/Postgresql_elephant.svg/993px-Postgresql_elephant.svg.png;" parent="uWiy1Z3-CHDcQIck3Mmg-2" vertex="1">
          <mxGeometry x="195.71000000000004" y="60" width="23" height="23.72" as="geometry" />
        </mxCell>
        <mxCell id="uWiy1Z3-CHDcQIck3Mmg-5" value="PostgreSQL" style="sketch=0;aspect=fixed;pointerEvents=1;shadow=0;dashed=0;html=1;strokeColor=none;labelPosition=center;verticalLabelPosition=bottom;verticalAlign=top;align=center;fillColor=#BE0000;shape=mxgraph.mscae.enterprise.application_blank;fontStyle=1;gradientColor=none;fontSize=10;" parent="uWiy1Z3-CHDcQIck3Mmg-2" vertex="1">
          <mxGeometry x="177.99999999999997" y="40" width="58.14" height="50" as="geometry" />
        </mxCell>
        <mxCell id="uWiy1Z3-CHDcQIck3Mmg-12" value="" style="sketch=0;shadow=0;dashed=0;html=1;strokeColor=none;fillColor=#505050;labelPosition=center;verticalLabelPosition=bottom;verticalAlign=top;outlineConnect=0;align=center;shape=mxgraph.office.databases.database_mini_3;" parent="uWiy1Z3-CHDcQIck3Mmg-2" vertex="1">
          <mxGeometry x="238.13999999999996" y="70" width="24" height="30" as="geometry" />
        </mxCell>
        <mxCell id="SAibBhROpT_dqwntFYyU-22" value="" style="sketch=0;shadow=0;dashed=0;html=1;strokeColor=none;fillColor=#505050;labelPosition=center;verticalLabelPosition=bottom;verticalAlign=top;outlineConnect=0;align=center;shape=mxgraph.office.databases.database_mini_3;" parent="uWiy1Z3-CHDcQIck3Mmg-2" vertex="1">
          <mxGeometry x="348.14" y="71.86000000000001" width="24" height="30" as="geometry" />
        </mxCell>
        <mxCell id="SAibBhROpT_dqwntFYyU-23" value="" style="shape=image;verticalLabelPosition=bottom;labelBackgroundColor=default;verticalAlign=top;aspect=fixed;imageAspect=0;image=https://upload.wikimedia.org/wikipedia/commons/thumb/9/93/MongoDB_Logo.svg/1280px-MongoDB_Logo.svg.png;" parent="uWiy1Z3-CHDcQIck3Mmg-2" vertex="1">
          <mxGeometry x="292.21000000000004" y="61.860000000000014" width="50" height="13.46" as="geometry" />
        </mxCell>
        <mxCell id="SAibBhROpT_dqwntFYyU-24" value="MongoDB" style="sketch=0;aspect=fixed;pointerEvents=1;shadow=0;dashed=0;html=1;strokeColor=none;labelPosition=center;verticalLabelPosition=bottom;verticalAlign=top;align=center;fillColor=#BE0000;shape=mxgraph.mscae.enterprise.application_blank;fontStyle=1;gradientColor=none;fontSize=10;" parent="uWiy1Z3-CHDcQIck3Mmg-2" vertex="1">
          <mxGeometry x="289" y="41.860000000000014" width="58.14" height="50" as="geometry" />
        </mxCell>
        <mxCell id="SAibBhROpT_dqwntFYyU-27" value="Time Series" style="sketch=0;aspect=fixed;pointerEvents=1;shadow=0;dashed=0;html=1;strokeColor=none;labelPosition=center;verticalLabelPosition=bottom;verticalAlign=top;align=center;fillColor=#BE0000;shape=mxgraph.mscae.enterprise.application_blank;fontStyle=1;gradientColor=none;fontSize=10;" parent="uWiy1Z3-CHDcQIck3Mmg-2" vertex="1">
          <mxGeometry x="292.21000000000004" y="140" width="58.14" height="50" as="geometry" />
        </mxCell>
        <mxCell id="SAibBhROpT_dqwntFYyU-28" value="" style="shape=image;verticalLabelPosition=bottom;labelBackgroundColor=default;verticalAlign=top;aspect=fixed;imageAspect=0;image=data:image/png,iVBORw0KGgoAAAANSUhEUgAAAMIAAADsCAMAAAARmYlFAAAABGdBTUEAALGPC/xhBQAAAwBQTFRFAJFAAJFAAJE/AJI/AJE+AHrBAHvDAHvCAJI/AJI/AHvDAHzDAJBAAI45AJI/AJE/AJA+AHzBAHzCAHzCAJI/AJI/AJA+AHjDAHvBAHzCAJA+AHzCAHzDAHzCAHzDAIBAAHrBAJJAAHaxAHvDAH3DAHa/AI89AJI/AJA9AHvDAJE8AHzCAJI/AHrCAHq/AHzCAJI/AJE/AG22AHzDAHvDAHzDAI08AJA/AJE/AJA/AHvCAHzCAHzDAJJAAJI/AHe+AHvDAJI/AJI/AHzCAHrCAHzDAHvBAHzDAJI/AHzDAHvCAJJAAHvCAJI/AJE+AJE/AJI/AJE+AJI/AJI/AIgzAHzDAJI/AJE+AJJAAHrAAJI/AJI/AHvDAHvCAHvDAHzDAHrCAI47AJE/AHzDAHrAAJFAAHvDAHvBAHe7AJI/AJE/AJA/AJE+AHm8AHzCAIk7AHzCAJI+AJFAAHvCAJJAAHvCAHS5AHrAAHzCAHvCAJI/AJI/AJI/AJA/AHvCAHzCAJI+AHzDAJI/AHzDAHvCAHm/AJA/AJE/AHrCAIk7AJI/AJJAAHzDAHzDAJE6AHvDAJI/AJA+AHm/AHzCAJI9AJI/AHzDAJI/AG+8AHzDAHvCAJI/AJI/AJE/AJI/AJI+AHzDAJE/AJA+AJI/AHrBAHnCAHC/AHvCAJI/AJI/AHzDAJE/AJE/AJI/AHzCAHm+AHzDAIAAAHvDAHzCAH3DAJI/AHnAAHzDAJI/AFWqAJI/AHY2AHe7AJE/AHzDAJE/AHzDAHvCAI5AAJI/AJI/AIk7AHvCAJJAAJI9AJI/AI8/AHzDAJI/AJE+AI45AHnAAJI/AFUAAJE/AJI/AJE+AHzDAJE/AHS9AHzDAI45AHzCAJI/AGuvAHzDAJA+AHTAAJE+AJE/AHvDAACAAHzDAJI/AJI/AI83AI0/AJI/AFyjAHzDAHvCAJE9AGW8AIgvAFWqAJI3AHzDAHzDAJI/AI4+AI0/AHzCAHzDAIgzAJI/AJI/AAAAAAAAAJI/AHzDD5BSCgAAAP50Uk5TrHhtvGszu6y2X5aMXBJ7fU4hxdaFqzsiTnE5qMfa5Axa6Q2aqhwZ1y6IHsG/KSekqVQOyJOFL2qASHCrkvjlF7evbskuxEF60fN+bEi9SrqJZpHwD+04i/wk9d+zdkC9GSby3TvIYlsPaHVBchN9DbVSZItwsBY5ud/K2e4sdOxi5pv3Sy9QTGQaiBzxoiKD214fUhXF4aALgFbi4flEg/uWMHpeNhCO0J3Qo+vT+B1QAmVu1d09zMMGxwQajaaZnmck5M0Ta+AqsjPArVYbLNYDpvc1rsER+gn0uAnTPhRatdgC4+3nFij9BPZERgcKAw7p7/QfEPz+B/v+AQCqnruEAAAT4UlEQVR42u2dB1gU1xbHfe+lmt5M1ahJ7DV2TYhdYxI79miMGhM1dk0ErE9FYkSwIIqKCoooPiUmisQCiFIERUC6FJUqihSpOzNvZnZmp8+9d3Z2l/c+z/dlMTt35p4fs/fec//nzNIA+5+3Bk8QniA8QXiC8H+PcG752wNnFr/TNPR0aNN3imcOfHv5uf8VhKK3izdt7TjoXjUhtup7gzpu3VT8dlE9RjB08O16NoUAWcrZrr4dDPUPIWP91l/tCXiz/3Xr+ox6hPBd6JT7BLrdnxL6Xb1AuDHkg2pCq1V/MOSGjRGyVt0hzLU7q7JshmCY+v5/CD3sPxenGmyBkNz7DUI/e6N3srURvvC7T+hr9/2+sCbC8iV6A9AQS5ZbCyGrdRphGUtrnWUNhObdviQsZ192a25xhFMehGXN45RlEU7eIixvt05aDuFR798Ja9iXvR9ZCGHDWcJadnaDRRBC/01Yz/4dqj+C50XCunbRU2eEG3cIa9udG7oi+KYR1rc0X/0Q7n5G2MY+u6sTwrn3CVvZ++d0QfDsS9jO+nrqgJD8AWFL+yDZbIRP/iRsa39+YibC+RWErW3FebMQjtwmbG/HfjQD4eE18zpPKV/b+HbjteUp5l3m2kPNCHc/1ioP3bnY7Y/iiZxclzGx+I9uF+9oFZw+vqsVQdOKdn/h/OIjSp/L4vkLNe26P9OIsAq9q7KQd0BKqec7IWXoF16lCeFMFaqi1XEq3Fbl0dSOqBpa1RkNCMmIm2Q0XRFZyfRIRkdA2yW/sQdpr0jdij1oauAtZIRQpDswGxWAhpiNdCdCERFuIEwcX76rNfdU9C6CJnX/BhJCEcKqvExRM4EgO7kMvqPbRSgI70Jfd7WKcrUcJolzajV0X+8iIGSVw171dTXZattUKHntddjOyrPgET6CvegLqruq9nBKyrkXYLtrCI2wAXJRS9mj7tvTfpDDeg9kHFi1ARYBMj5NKwZ4dqYv7NRUDKmQXINE2A45kA+DHPt6BvT0ehhyUG+HQ4CTTsvBStWpKvjs+A24GeQsFMJMONHzDNit2QRCUvkMnGQ7EwbhWahNzXYIr/4gtiMs1duhNkTPQiBsg5qOTsM4dZoYghJu9IaalLaBEfzMCxv59i2xBSlkggqOXwAiNIcZVvd+hnJpKzEACeFnmC1KuScI4QeYgXAGzqUXiHK0yPUMzHD4AYQAEzl2hfSoIUEgVut0hYmMAQgZEPsEe9hyiRCCmIqG8DNEWdb9DHWEUxC/hquwDn2sstVSsKsQ/Z9SRwiB0Gmh92hTCMIPEaEIQoUOUUV4VKZhOCnaNDI/gLoXhZhOyh6pIUAEF2XwcQ+ZmZiBivCwDDnIECIMAZ+/G96dY+RiilwGuRvswhA1BHBW7QBC4VNjsj1y9eAXB8AZODUEsLAzDcGbJgoBPnAEgWQrFYSMKn3iO8bspTcdKjgEhnoZygiHwZ/D1xCcobTfLcgIr4GdOKyMAJ7RbqMIjtQJA5ARsNuI83oDtJxICIIrnnRgiY4AXl4/U0ZYputQWE6fgV6W3Rsx0muApr4MRnBlG33GVGSEwYhaTAPRWgSwnxFcaa+uqSuHq+A0rjLCDKBugeLK0/QpfuiDAahlzFBGAG46y5D2YMZCEHQEYJhUrohgqEJcFwFinsxvDMqAMUKVQQnhU+CHEGmWPyW3lMLYAKAfnyohgMfRIBRPZjMaYjEqwiC0WYWPUKTr4oxtYs965mm9l+cixeEMlMg9tMVr1e9PRDkRKCelKc9ITUDn/o7iyYZbXI4/pSHCKg0sq26ijADce1c/RPpE/PjDNJO4lbb1R9i9J1iBUEYAJ+42oA7NT741LfmrV8FNThvASUplBHAtpC/6LI8NbM1+uD18YaoEfIFe9FVG2AI8WUO4QNrdqR8xMt1tiAcswNr6FmUEcAXSNEyjPdzODO5BM83fPK+SR6DW7GJwzVFzTLMlh7alB/cUdVWjObhWqZjxV4RQk08KINpSjvB2kh7c1Vu2qSWswE6QQtCOGilC6jiYGFHDdl4yuO+RN9NPuf4KPCCpeHlciRShJJt8+RWszJv/0PjdwSHlxO/DFKqxi8D6/K9ks+wPpQilr5AvS8A3sSmmg1GDu+yqbAFHU7ALS8hmL5dKESp3kS97wOd3wfQxcnDPaCpTf9oF7AJV+uFfKUV4KYmKCCDqOX7B9LJtQzp+LX7vF4jqFSpSaXdFinDlMvX6DETpLqajDVx/XpIZAtkzVLvLO6QI+fhmyETRL3oyYAbUm0Anyjbj+VKEFrg7NXFDpE273MUsZXchRkI1VYj2It5CinAd96d+wJTB+FoMwReid7oYxh+/LkXYjE+GTLIQa7MsRJC1FqJ3Os00GW8jRXiM44/JHx1gEvC3LIQAU4RR3YFzVoTgiuPPUz8XEpAjSn+DmUuIhVTL53HcVYoQhuPHMaholRImB1qAYCBUURUt6RzH8TApwnQc/54KnQxQhcIe53UnOA9Vqn+bmoRLvsfx6VKEAhynp1WylgvGjh3RmeDIMah+/6DaupO+FkgRIsm3v6FzhnDFitcydCXIgKssXU33+g3p60opwkry7UJ6mG+Fq7dc6KkjgedCuE630pNnoTxCd/Jt/BVaHYZ81mZQsm4EyYPguiyj9eBXKFe7SxEOUe+7GQRiKGho6TWmz8M+a7CJjqrcKFcPSRGiqffxXnSkAvs9BR6HdSE4DPvY0Fk6OutFexqthBBszM/APkOXcloHgtOwDx8yNYHBSggFOHcbMPiHtD/+0dzJ9FnovozlI8abIDepuhiPONCj4ST8ozxN9phFsKcJdE/36cc9DA5GR2Ui1Q+NR3Bn+v9QHqiask371nMKQj/G9K8z46eMgmGYYDwUboAOGk2/nt3aluoju1Ee+DSGx4Zwo5sTZNQ8zInBW2ScqZEeLrSf/ykywKfzUb5oj328cBHj5Rg5WTiCOehlVGhmHkDpgFg9DG2ROD9sNdL1DxjV5FIvxssIOYShzEH8oPH/5xNoVrXsa9hnDB99vQz1Gdj5xjMPsk4OlUMIYo8WNjL2M41ANQ+/wWC9smiwH/rXRE0z/nYaFbJOBskh+LNH8ZZG1VjTg//2W5qqFY691rSjvYar3jbOFzUtTT76yyHMMx3GvZk8mcYv1SqbMn99e3EsntF+/fwpZdou6MF8kYQ35+I8OYRe3PFaJoZqb09ot7IufUK6Ltn97e4lXUP6dCkz40rl7ZlItJZzsZccwmbuOD6ZUSzPWPNrnRSXHSa1dWUyz8PNsrk2J16LETeZlEuVzQmqmMTSzXSef07y6cIgXhP8N7YWJMXGBCmzGU9+47sXJI9wid+mrjNbVZRmU4I0Vr7vXMd375I8Qg9+G7yC3Zz+Ym9DAntWRl9ZIfCuhwzCTVpJ4ttfbDh7o4nNCJqw+d3rfwmdm057LESgtAs3YbOWrIS/rbGNCBqzYXx+S6FrbozHAoT95H+jhe3wE2wyKMs2X1TVl1XQrwwVeTaa8ViA8JNwcWP2DmxO7u4w60+uVcPYVExluNixXozHAoQLVPY8Qdw0eAHbbnCZlQnWmgqTFwSL3UpIZTwWIERRLznitniSKTf63TWrElwzVZFVJkm8es7kMR8h6CXy5StJYzzONGoedTtgNYAD3Uxbj8dxUqe+osZHkBghOJGaumqlzfMSuXKtAVYiGMAVnyXmSV2qpab7xJ1ihFlPUa8x0vb4pI1cQvKqNb5Q9ferXEp14yQZj/pRR76aJUZwoP/xQOYEvJAXm5/vY3GCPrxN+LxCOYfoQLuBgxghPIBSNQLd5E7B13GVM9j6GRYFmLGe66pknaw3boGUpwHhYoSjeCvqxxzZk/C47ry97ybLfZfeik28vXf3OHln5lAHW+EShKF4f3od/Fz+tM+X8goNzl29ZxEAj1BeeY9hqZIrdPVFf/yoGOGEcZBQuUR5S8/n1xOdXqv/WnaaX8ebn67kSDx9vB9+QowQh+fSoV9indKpzZwFu/nQY7oCHAsV6AXOzZTcwMfRgbUTHidGaMnuqGMUz8X7uQozGx/ptRtK+0iYa3Htp+IEq1W0FCM4sneooFb59Ek9U4U12Vf1+I7JY1eFOYrUngnKLkyIpNvE47ijGIGcTROM8dA6XMUmbxQnmVqb922lf7YWJ7s2TlZzYJ0xbkow7hkECNR5xvD1+iS1S+DprcQK3cRVbbVFTwfarpI819AqXbX3SUbx5SfqtylGiDAl2oRSgdTqohKlVTi+F1EXixUXfaUPySVG1al3zggrwXxtm0Xw4vJXlbk4wNIzZeTS5dB/mof6ozxyfy0iMx3UcW4llxf0EiNcpt4dafz3UzjQkh7IF9p1mD0s5NoKpc/VgRXXQobNVvjTSA+SwN0+ZWw6nvr3ZTGCHS28GDfLhm/AF8OHLr2iqF+fm1i8idRSG27ps7DtgLYL+2xpSGqrm4onKn852pWlQyH6/MYIf4UWZOzkxoLpo/b4e4jr4fs69bqpS+r85vC39sF0+P1j/mCNkMZI9G1gqj8X43Dm5R1mNkCYtxdkb4uZ2KNCmOdpIBRUxzOf6Rwc1k6MzPxbs/t/Z448Ad1TjoE3EniyKovA+FzBBHMuuTi8OcW779Dg/w73eCeEXnJdBDcBzxEjxDMNWWkjG0eyCQ4H16yEHxk3V6456DABrYtsVi4SRKw8BFbW/pytbRiNI1tF0oXs6TUA72umZ19IqkC/+Gi2VuRzsbjNIow0KfeBzMc0HddkhXbB8b/1cF7pUsq/KX+Xuqx07vFbfLBdobbLpjMDLtCUBRkpRnjZ1JgV+sbG4Wbavlwvx/Cd4Y5eufvMvVTcWFY4Nb31shiBm0bHsGmssFy8vlguO3dvHiOeYjmE97j2JqVvbm09Iaidy7oUxb35nhihlBcixrIHR9UThFGsQ7G8gLlUkqjayx0NMFWlz6kXBHNM+moA9+Zeaa7tOX5eIVWmJMBmZhITU8PF6rYQYST/rF2m4/3rbAxQ19/kyy7++yOlCM9L5G+j/dO2DHX/NHkiTB08r1TkaZoDuH1ZD1sy1HHZ2Uzh/ChT5FkjVD7yuCKHxbabW2vXcCUiwkRDgsxjquIs1Qku+MxsZiOCgLlcWCuKFXLksv/iLNVR7hHEx0dtQnCUe16n8qhMrkqC4Cq+wizuSdCSTjYgeIvLapQ6iA+6ytZgOIqbBXHXMLxcaO2B/AondJQEiY86ypeRSHcI/+IF/84B1g3seMpnzb8Udw8iBJlE24hSnuIfY0WCKO75R6x0hPT4A3mEGhkx9UQbXttsa0XfTu68XtvICASTauQRZDM8dtG8Bi2irEKQc53XZ7RM4tn4BJ4cQiPZDbFAjl8zxuIAY9YIpHrZbfZ7SgiYrChYuJTfpMUly67VtZda8LtbKjsRHsUUEX6Sv+yuD/mNIi35aYqK5Hf14S75Vj8pIyxQ0FIdhRmFzFkWApglFP0T3RS01QXKCFxhuvj2/iNQoMHHulkAwC1WoNoH/kPpI3sQU0HorqyLXxeKodnBOgMEZwul2evKGYLuaghYO+XlMlYky42L36eb//vix4muHqu8BrXDVBHGqexvRhSIznXx1ifoCPB2EV25YIRK8DROHUEtc47Xjl8gFkhfjDL3VuyLyhbLsAvGq03cMRgAoUB12rd7UZInq3SPStDsf0KU+1hJvu5FO9WFowCEoJ45JwPwaKlYXZodo4UiISa7VHqx6CD1s9ZhQARA5hyvy2kkI7mnZvrkoOQ7nHJ8MlNlrtMoByA2TLoORgBlzqkJdr98xjZy1C43sNxR57ZrVKRC3rYd8Ow3MQiESjuIZfRVg0IGpKTVojkH0/+SG1G1f6UfnLOoVYnCmYZXIRZ9u0oYBNNTlOqC/zzV9FqNa3Tm8Ng1/X3evPCmT/81scMzo11V8z875kGlM4ZjUAi8x8NUZ8O3huuTdoZPPMuMZQWE0gjIQenl7aoDgCt04jmiFBYB2w+tQdY59EwMNMP9wMSeDvCdzcWgERQjVlnL8+88VpP/Yzv756F0NBpDQChBDKZr2/V0zkdyP9+5ZzvE/Z9bCQoCdkhDZnhvjM/+SgjvK/f7xOxFv3zFIQwJAduoTb2ri0g67r14f5jcBFoTtn+x9/GkCG1if+FGDBEB8zFPTsxrGZ6UHnP80oU3L1w6HpOeFN4yz7w8hQ+GjKBcN2wTO45pQKjZWY8IdtZoQcDy99Ybgr1q053aHwqPbFZPCJpFYhoRsIK8ekGQV4BpRqgfDHbqBAAEbPplmxNcno6ZhYCFedmYwAtYg9kAGArbdl7aCw7ngQiYyywbEgS7YDogYDW7bEawqwbTBYFMVNimhKF2KVTcDoWAPXCyAYHTA0xHBCwszuoEcbDl4JAI2IJL1q3pqTu4ANMZgdQEIqxIELEffg8Lj4CVWu1G1F0qxSyCQD4QZ52l2qsXkpKAhICNXWf5gpjCdYiSDhoCKW2MsDDBiEOochQqArlGWLJE7OgDZH80IGCB7paK/Pa6axE3NSCQUdMcS9RXBcyp0eKMNgQyMbV4qN4foTWpGqVljQjUowH9Jujm/4SYudrVce0IZO3neH2qk5zGPzYnP2EOAqmAx3aqMNP/ik6xJealWMxDoCg6m0FR0alzibkOmI9Aje1F8VoKDwPiF6Xq0LsuCEzO2RHBfUf/xZEGnZKNOiEYRdhFF3aCb0fuzguL8nXsVVcEYw4nOtbHP8lLGg4WeiX5+8RGV+rdof4IbNnYS20iE+e+mj2q/6jsV+cmRrZ56W8L9WQxBCvaE4QnCE8Q/m8Q/gt5GbieMnvMIQAAAABJRU5ErkJggg==;" parent="uWiy1Z3-CHDcQIck3Mmg-2" vertex="1">
          <mxGeometry x="350.34999999999997" y="170" width="24.66" height="30" as="geometry" />
        </mxCell>
        <mxCell id="SAibBhROpT_dqwntFYyU-29" value="" style="shape=image;verticalLabelPosition=bottom;labelBackgroundColor=default;verticalAlign=top;aspect=fixed;imageAspect=0;image=data:image/png,iVBORw0KGgoAAAANSUhEUgAAAkMAAABXCAMAAAAwP7ENAAAAilBMVEX////HLEjEFDrswcfDADPFIEDEETjEFzvGJ0TtxszbhpLwztPEDTbSZHX68fLz2t3puL/kp7DcjJjGJEL45+rZf4zmrrb89fb13+LgmqTPU2fioqvLPlbUa3v57O7msbjXd4XMRFvQWWzekp3OTWLJM07Wc4Lago7QV2rBACrAACDDAC7TZ3fRX3Dk2Qw1AAANBElEQVR4nO2dZ4OquhaGFVNQYkUUFXuZ2ceZ///3LmHKlkB6grqv77dz9mgKDzGrZKXVeun/Sps0Gm1Xx16yu/QLrXdJ77jajrrp1PKr025nOHDSSTdKo060kf1RRyLZFwyGne7QUYeNOtjhfnKoNxIFpZ1VcmgDQBDGEMI4jsMvxXH+nxgjQq7h+2UxGs6Nvn6HSRAQsJ/Zd9WFpr0YoACBbCz8s8F/gVB/+I+IarTM5zMgwcUfRlck7CBC3E8m19JIIqtuDGfJCZEAwzBsixXGMOcgu6wiTZAmAH5/AzqPrDrrRIMe+ekPbosmbwDEE4K6gg9P9+R7QiE42D0ivrDskXE/2YOlkZh3MFocIMnpkfSkrBgTsp901Tn6QDeDInvRxDehRXA7fUCwltgwlOL4ZsrIXrxkmerODG22a0g08fnbN4jQcpUqNXRE5Y+SpdctgkRjyMw74O/0bBhql2c2X4F9/I7fk6HB+ERuXxQThZicF3KMBtfKB8GH7Q7dVKN2ZdbjPvevLRhaVNoJMVwZbSZFuh9DnU+ADRcgposw35ZKJmZVM874mjgwBLTVzVDNsK9cc9GCodrNJUYTx6bpnRjaHCGyXIFKvcRAbHdcahuD5Oj8pZRouAS1Lw6fBHOGppxPQpA4XYLvwlC6A5DXoKlicBLsGPucFQ/ilUa/rZV+1BOUrw5cU9GcoSHhfQaCtcPt4B0YStfuCSq6KrA7eAzlDy9szF202QHu2tssQ/SVe3dm6jfO0EAwkX9bjalPEQeoUICpzzGWb55yijjd4DNEjRU/Ji+j+YQIXp2mGSomy5GbrGmGFqKJpPtjjMgVntbJcTwbjbqFOqPZ+Jisl+EVIAyFBObWVu2GUcCQCD2Hkgy8eYbo29N2sgY3y9DwzG8vhAEJDr1tJNjvTaPtpA8JEniUYlAXOhAyRNE7qLmZTDVjHUKs7sFQYeov7K2KRhnqXTmPMoSI7CcdRWth0z0uA8R9rdGparJLGKLorf25izpnJGn+TgzRhoOJrYejQYamWX1jISTtt47m6zCPJhngLEcxqTwQKUPUVnnzE9KP9grP8m4MOTD1m2OoQ2qfY0zaE0M7M11lHAsP9Jg/VWAon0zkwV00PPDM+ZLuyBCl6MPG1G+MoUXtVECwtop+Dt9QrbMbH8p/p8RQ/jEszsPQ1nStYIUWLd+TIfpTvjR/Dk0xlNSNB5KjdbRhPg6DGkBgVlpSFBmi7iKHeSGDRJGguzNEjdPMdOQNMbQOql/tLNKwDeuiYe3b3Y0yQ7nBmzlyF82PGr7UuzNkYeo3w9Cl2kwIEnebj1WNlVaCSJ0h+kaeXLiLVoGON/4BGDI29RthqFc1bYO90/ydwbo6X3H29991GKJ8923dRdtqfodQD8FQ28zUb4KhcWUWQrDQ7ahMnWomEvy7sdZjiO4xLzY7tU5Wt0cT6VEYoluMneYL1ABDUSX/K449xBYGp8pY8K+Jr8sQtRh7pr+10anejSHS4zCkb+r7Z2he8QTCvR9n3q4yZ795yvoM0RfSaLFM1RxCjB6JIV1T3z9DH+zWEn6qd09Px8p0B99riQlDdHOg7S7aXK5GuXWPxZCeqe+doQ47Bf4Qym0hdtbg+usfzBjKGWxrOU0Gb6apUY/GUP7kA1VT3ztDbE5vfFLrmJmOrAUIvvplypDWMaK5JL9DpMdjSN3U981Q9WiB3wzmNfMUw33xv40Zojak4jGiyoEfHT0iQ7RbQU9un3pmaF5ZF3wf6zoztJBiW23BUJHYJrd2aw786OhBGVIy9T0zxC5DgfcU+JTxJHwtRFYMUTtlJzYl6w/8aOhhGaKmfl/84ntmiLFRvn9ZvGrC/JoVOyJLhvKJvE74P8JDA4cQowdmqDgzI9oU+mWow/yUAf95y60WwxDctRwwRLOLOO6itG/iEGL00AxJTH2/DK3L61B8qPsj1xozY0JzJwxxjhGJDvzofPdjM1SY+jxnmV+GmOGTJpahykKEOo4YqjlGNO+Zm/MlPTxDAlPfK0PdctZQeOZ+mVOVe9aGiSuGcpWPES208jtEegKGaC9RnanvlSFmewuP3C9zKmbuwrZDhvKdwfuPlSI98KOh52CIGmmXiqnvlaFT+cmRpkr+MGV3wMAhQ7/HiEbtmtxMYz0LQ5SiT+ZZe2WIGQOUPnxH2pXXvyByyhClqJ/YOoQYPQ9DVVPfJ0PT8hhij8HWsmblUeGtY4bysZjWbuPpmRhiTX2fDEVl7xCcKCJgLbbho3OGnOu5GCoS+H9M/bmsGRuGRuUNQ74cNKRNedrj5MWQe/2a+juZbWrD0La8yAWNlGihmpcbDtcvhvx0Ouh1tkupcWrDEFME0aL8sK7KnuOw/2KII6hb07nyeYWamg4Zasy0z4378hheDPE+m2yPbbcGZo2ecx1iyjKrMBRbvpECwUD+st6FIVzU+xhl1lkHYtkwxJjY6JH3Q2Q9XmgfClMSRJPu6F22abgHQ/AnEaGzdBI35snKLmPcNI3dkjFgHFNyu+wr27H24L6dIOgV2Wsy4+UeDN20GfX91FktZMNQt+KmaUjM5MGJjKH4+/iH5iF5qeA1+c5/nEtIuDNDtN7z1RdFLv3U6+qf+BG7AM5kDP11f2oV65AIgt3fKHflsG9Zd2eo1dpMgPNluJDLeBn/uxzrrYxBPsvKDGkVDRIqBpfbEnWPzxA93ATdXH9RlhVDGRO3b+qSlaw8BjDVYUijeJlAMXulzDMwlGt2dm/qWzHErAeuC9XxxN5TgaX5Q2wob/hulyIdV4vPPAlD+UZg79rUt2KICZiFXo+4/tWijC7dh2kylNsDFjMZgkPVnfo0DOVG2sGtqW/FEHtrmPcDil9ijinSWK82Q/kLcDbLMeOci30ihvJPOr1SxS4nf1l+dMUxHe+qHEgaGDFEfaT6dgr33oanYijfDyTuTH07hhhPtejKSXdidvIhPZBkxJD0ko3qbPErPDwZQ3m7R4UQjZLsGGI9a4IrJ51pxixDiM6UIUOaZ39Ixj8O+nQM5Vq5icdanpVO2IPL3mNmbFZdWIzAlCGNM4iSO6yekaFWa+siHmvJUOU6SOj78ssD88RxEVg0Z6jVSj8VDP2cIPETeU6G8t3lydpIs60/xMYa46VCvy20YIvVfEFrw5BKkc4glCX6PitD+eg/LY00W4Y27DhwotRxQ43YCf+uqGjHEL09SpQXgrG86tzzMmQdj7WupVcphEY8hu+77HyH33XObRkS5YWoXRTzzAzReCwxj8fa14XN2MfnD6IKQr9eTXuGaFpm3cuIsVoF4udmyCoea89QWpkDstPou4ZmleeEf9hwwVBrfqxcCwID1Qsunp2hlnk81kGd/ErB3zZe+rDO3iqTHf+WXXPCUJEXcjtqnZuP/gGGTOOxLu7rqN4aFEOrm+/qNN1XWgnhbxFFRwzRvJDrd+5+jMFEo97/P8FQbqS965v6Tu4NOlU2Ek5vnqJa1bwgNyFeZwzlFC3eQa6gP9MawT/CEI3H6hppbu4vO1fZhdDh0ekoq4mxg5vJdcgQ1Xyj/Qb8MwzReKyew8gNQ/OsplEkiC5pqd6RfL2dIccMGegfYojGY1XOt/7I0V2c830NRCHZOwifRf26W1bCcmTuxZBWm3LNV7XX6NbK2b3Sn3UZXSFqr6xuBZ5v97V7vDAo9+fFkFabSlKOx7q7375XOxchJp8j0+1198JJcYFnJlHpxZBWm4pSjMe6Y6g14oS/4yD4nGknp21GF4g4IyCVk2wvhrTaVJZSPNYhQ63pnpehHGPSTkbK14hOO72MBLxXIAbVCOiLIa02NZRepKa+S4ZarQV/7QshJmjZ20bC/dFmuJ18YhIIanSQZc03vBjSalNLmx4Sx2PdMtSaHoTjykFCAJz7u+N424mGaTrNlQ6HUXc0XiQfGQAEQ+FPMKyv2PdiSKtNTUnisY4Zopk40sBdGEOIcYDIrxDCGIrhKQQJ5zLoF0NabeprJki9ds4Qbc5LnZ+iRgJva/5iSKtNE3HjsT85XDUyZogmEXiovAVBwjfuXgxptWkmTjwWvnE/YcFQUXnLabWbGMGFKIj+YkirTVPVxmOv/NPNVgzlNuEEVzK6DBXi60ESNHkxpNWmuarxWCgoO2XJUK7uLkDWhTRjDE5jaR7PiyGtNm3ExGOh6PpVe4ZydZM2wcbnl0KIFF3cL4a02rTTTTw2BsLid04YypWOP0KgXdg3jDEip2OkGGo7kECka8+098r6T9iB4A83m2rwHxbqD58hWZv+iqxu9wBhjCrXVDF6A6WRWBWfTrdvJ0QCqEJSGENMwHm9UuWHKuqI5b+ozUjSA+5qOl+NhVpxPzmQNMlv04E20XYkfUJdxZEoK+0sdksIyJc/MS7hFH75HREBJFsft0PfJ65fembNp8PRdjFJLp+nfXam/Jyz7HRYJ73FbBSlGlnwN/ofKPMQyw4OxIMAAAAASUVORK5CYII=;" parent="uWiy1Z3-CHDcQIck3Mmg-2" vertex="1">
          <mxGeometry x="181.14" y="162.21" width="51.86" height="7.79" as="geometry" />
        </mxCell>
        <mxCell id="uWiy1Z3-CHDcQIck3Mmg-14" value="AAS" style="sketch=0;aspect=fixed;pointerEvents=1;shadow=0;dashed=0;html=1;strokeColor=none;labelPosition=center;verticalLabelPosition=bottom;verticalAlign=top;align=center;fillColor=#BE0000;shape=mxgraph.mscae.enterprise.application_blank;fontStyle=1;gradientColor=none;fontSize=10;" parent="uWiy1Z3-CHDcQIck3Mmg-1" vertex="1">
          <mxGeometry x="744.07" y="710" width="50" height="43" as="geometry" />
        </mxCell>
        <mxCell id="uWiy1Z3-CHDcQIck3Mmg-15" value="IoT Agent (optional)" style="sketch=0;aspect=fixed;pointerEvents=1;shadow=0;dashed=0;html=1;strokeColor=none;labelPosition=center;verticalLabelPosition=bottom;verticalAlign=top;align=center;fillColor=#BE0000;shape=mxgraph.mscae.enterprise.application_blank;fontStyle=1;gradientColor=none;fontSize=10;" parent="uWiy1Z3-CHDcQIck3Mmg-1" vertex="1">
          <mxGeometry x="584" y="710" width="50" height="43" as="geometry" />
        </mxCell>
        <mxCell id="uWiy1Z3-CHDcQIck3Mmg-21" value="" style="endArrow=classic;html=1;rounded=0;dashed=1;" parent="uWiy1Z3-CHDcQIck3Mmg-1" edge="1">
          <mxGeometry width="50" height="50" relative="1" as="geometry">
            <mxPoint x="735" y="731.16" as="sourcePoint" />
            <mxPoint x="645" y="731.16" as="targetPoint" />
          </mxGeometry>
        </mxCell>
        <mxCell id="uWiy1Z3-CHDcQIck3Mmg-22" value="" style="endArrow=classic;html=1;rounded=0;dashed=1;" parent="uWiy1Z3-CHDcQIck3Mmg-1" edge="1">
          <mxGeometry width="50" height="50" relative="1" as="geometry">
            <mxPoint x="610" y="704" as="sourcePoint" />
            <mxPoint x="610" y="660" as="targetPoint" />
          </mxGeometry>
        </mxCell>
        <mxCell id="uWiy1Z3-CHDcQIck3Mmg-23" value="" style="endArrow=classic;html=1;rounded=0;exitX=0.5;exitY=0;exitDx=0;exitDy=0;exitPerimeter=0;" parent="uWiy1Z3-CHDcQIck3Mmg-1" source="uWiy1Z3-CHDcQIck3Mmg-14" edge="1">
          <mxGeometry width="50" height="50" relative="1" as="geometry">
            <mxPoint x="740" y="710" as="sourcePoint" />
            <mxPoint x="770" y="660" as="targetPoint" />
          </mxGeometry>
        </mxCell>
        <mxCell id="uWiy1Z3-CHDcQIck3Mmg-28" value="" style="endArrow=classic;html=1;rounded=0;entryX=0.443;entryY=-0.009;entryDx=0;entryDy=0;entryPerimeter=0;startArrow=classic;startFill=1;" parent="uWiy1Z3-CHDcQIck3Mmg-1" edge="1">
          <mxGeometry width="50" height="50" relative="1" as="geometry">
            <mxPoint x="680" y="380" as="sourcePoint" />
            <mxPoint x="680.79398" y="429.99999999999994" as="targetPoint" />
          </mxGeometry>
        </mxCell>
        <mxCell id="82SbF4fwL_mv2y3TkE3i-3" value="" style="endArrow=classic;html=1;rounded=0;startArrow=classic;startFill=1;" parent="uWiy1Z3-CHDcQIck3Mmg-1" edge="1">
          <mxGeometry width="50" height="50" relative="1" as="geometry">
            <mxPoint x="890" y="850" as="sourcePoint" />
            <mxPoint x="960" y="780" as="targetPoint" />
          </mxGeometry>
        </mxCell>
        <mxCell id="vrEQ0h4mwyizi6MIvwLH-0" value="PIONEER Open Innovation Platform" style="swimlane;fillColor=#BE0000;fontColor=#FFFFFF;" parent="uWiy1Z3-CHDcQIck3Mmg-1" vertex="1">
          <mxGeometry x="400" y="240" width="640" height="710" as="geometry" />
        </mxCell>
        <mxCell id="SAibBhROpT_dqwntFYyU-3" value="Machines" style="shape=image;verticalLabelPosition=bottom;labelBackgroundColor=default;verticalAlign=top;aspect=fixed;imageAspect=0;image=data:image/png,iVBORw0KGgoAAAANSUhEUgAAA+gAAALuCAYAAAA9jTxNAAAABmJLR0QA/wD/AP+gvaeTAACAAElEQVR42uzdd3hcV53/8fct00ddsizZcnfixIljp/ceEtJJIYADhLbLsktddllYWBLK0gmQH7C0BAghgYQAIYQQ0osdp7gksWM77k22eteUW35/jCVZsdVH0sj6vJ5HT6yZO3PvHB1l9JlzzvcYvu/7iIiIiIiIiMi4MtUEIiIiIiIiIuNPAV1EREREREQkByigi4iIiIiIiOQABXQRERERERGRHKCALiIiIiIiIpIDFNBFREREREREcoACuoiIiIiIiEgOUEAXERERERERyQEK6CIiIiIiIiI5QAFdREREREREJAcooIuIiIiIiIjkAAV0ERERERERkRyggC4iIiIiIiKSAxTQRURERERERHKAArqIiIiIiIhIDlBAFxEREREREckBCugiIiIiIiIiOUABXURERERERCQHKKCLiIiIiIiI5AAFdBEREREREZEcoIAuIiIiIiIikgMU0EVERERERERygAK6iIiIiIiISA5QQBcRERERERHJAQroIiIiIiIiIjlAAV1EREREREQkByigi4iIiIiIiOQABXQRERERERGRHKCALiIiIiIiIpIDFNBFREREREREcoACuoiIiIiIiEgOUEAXERERERERyQEK6CIiIiIiIiI5QAFdREREREREJAcooIuIiIiIiIjkAAV0ERERERERkRyggC4iIiIiIiKSAxTQRURERERERHKAArqIiIiIiIhIDlBAFxEREREREckBCugiIiIiIiIiOUABXURERERERCQHKKCLiIiIiIiI5AAFdBEREREREZEcoIAuIiIiIiIikgMU0EVERERERERygAK6iIiIiIiISA5QQBcRERERERHJAQroIiIiIiIiIjlAAV1EREREREQkByigi4iIiIiIiOQABXQRERERERGRHKCALiIiIiIiIpIDFNBFREREREREcoACuoiIiIiIiEgOUEAXERERERERyQEK6CIiIiIiIiI5QAFdREREREREJAcooIuIiIiIiIjkAAV0ERERERERkRyggC4iIiIiIiKSAxTQRURERERERHKAArqIiIiIiIhIDlBAFxEREREREckBCugiIiIiIiIiOUABXURERERERCQHKKCLiIiIiIiI5AAFdBEREREREZEcoIAuIiIiIiIikgMU0EVERERERERygAK6iIiIiIiISA5QQBcRERERERHJAQroIiIiIiIiIjlAAV1EREREREQkByigi4iIiIiIiOQABXQRERERERGRHKCALiIiIiIiIpIDFNBFREREREREcoACuoiIiIiIiEgOUEAXERERERERyQEK6CIiIiIiIiI5QAFdREREREREJAcooIuIiIiIiIjkAAV0ERERERERkRyggC4iIiIiIiKSAxTQRURERERERHKAArqIiIiIiIhIDlBAFxEREREREckBCugiIiIiIiIiOUABXURERERERCQHKKCLiIiIiIiI5AAFdBEREREREZEcoIAuIiIiIiIikgMU0EVERERERERygAK6iIiIiIiISA5QQBcRERERERHJAQroIiIiIiIiIjlAAV1EREREREQkByigi4iIiIiIiOQABXQRERERERGRHKCALiIiIiIiIpIDFNBFREREREREcoACuoiIiIiIiEgOUEAXERERERERyQEK6CIiIiIiIiI5QAFdREREREREJAcooIuIiIiIiIjkAAV0ERERERERkRyggC4iIiIiIiKSAxTQRURERERERHKAArqIiIiIiIhIDlBAFxEREREREckBCugiIiIiIiIiOUABXURERERERCQHKKCLiIiIiIiI5AAFdBEREREREZEcoIAuIiIiIiIikgMU0EVERERERERygAK6iIiIiIiISA5QQBcRERERERHJAQroIiIiIiIiIjlAAV1EREREREQkByigi4iIiIiIiOQABXQRERERERGRHKCALiIiIiIiIpIDFNBFREREREREcoACuoiIiIiIiEgOUEAXERERERERyQEK6CIiIiIiIiI5QAFdREREREREJAcooIuIiIiIiIjkAAV0ERERERERkRyggC4iIiIiIiKSAxTQRURERERERHKAArqIiIiIiIhIDlBAFxEREREREckBtppAREREJMf4Dnj7v/DBSwPeAQeYYAbA6Pqvnfm3iIhMaAroIiIiIuPNTUCyPvOVboLWrdCxC1o3g5uC1jfA7ew53o5B3nwIxKFgAUSnQWQahEshUpG5X0REJhzD931fzSAiIiIyxrx0JoQ3robG16BpHTS/Du1bIdUy9OeLVkLBQig9AQqPgeIlmRBvBtTWIiIThAK6iIiIyFjyXah+FPY+Dg1roHktdOwB38vSCQwIF0PBMVB6Csy4GkpPBsNS24uI5DgFdBEREZGxsvcJWP8daHgNOvdlpraPJisMsSqYei4c81mIz9bPQEQkhymgi4iIiIy2hpWw5guw9xlw2mCs//wyrMz69OO+BHPfkwnuIiKScxTQRUREREaD70L7TtjwA9j4E0h3jP81WUGY+TY49ouQf4SmvYuI5BgFdBEREZFsSzVD9d9h7Xeg7oXcu77yc2DRf8PU8xXSRURyiAK6iIiISDY1vgJb7oT13wPXyd3rLDgKjv8aVF2ln5mISI5QQBcRERHJBt/JVGZf+51MMTgvnfvXnDcXlnwVZt2gn5+ISA5QQBcREREZKTcBu/4Mr/4vNK7LhPWJIj4blnwFZr9LP0cRkXGmgC4iIiIyEr4HO/4Ay98HqQ5gov1pZUDRMXDK/8GU0/XzFBEZR7aaQERERGSYvDTs+Rs8txSc7Exp9wHHNUg4FknXYm+rRX1HgMZEiOq2CAXhFBXxTvJDaWYUOIRsl7DtErB8jOGesfFVeP27EJ8B0en6uYqIjBMFdBEREZHhcDthx32w/ANZC+etSYvtzVFer43z8p4S1tYU0pbq+8+1iO1ybHkjSyoaWFDazuyiNgrC7vBOvvuvULwYjvok2DH9fEVExoGmuIuIiIgMle/A5l/Cys9AomHET5f24JW9hTy7vZgXdpeyry2C6w9tPLwsmuTk6TWcNr2J4yoaiAeH8Sde/hFw5m+g9EQY5ni8iIgMnwK6iIiIyFD4Tma0+eVPQ/OmET9dbbvNn9dP45ntU9jRPPDIdWFhIYFAgNra2kPeXx5LcEpVLVcvqGZ2UcfQL2juTXDa/4EZ0s9aRGSMKaCLiIiIDEXDanjxE1DzLPjuiJ5qU0OUX6yczerqYhKONeDxBQUFVFVVEQwGqa6uprq6+pDHBSyPo0pbeO/irSyuaMYcymC4HYULH4EpZ+hnLSIyxkw1gYiIiMggJRvgjZ9CzTMjDuev7svnm88uYMWuskGFc4BAIEAgEMC2bVKpVJ/HpV2TV/cV8t1lC3i9Nja0uvJOR+Y1iojImNMIuoiIiMhg+B5s+y0sex+4w9/n3Ae2NUa5dfl8Xt1X1H27bds4zsDPO2XKFFzXpb6+flDnq4h3csv5rzC/pHNoF3r1G5A/Tz93EZExpBF0ERERkcGoeQ1Wf3FE4RygOWFx96vTu8O5YRjk5+czZ84c4vE4htH/fPSamppBh3OA6rYIX3t6IdVtQ1xTvv0e/cxFRMaYtlkTEREROVBdE9Q0QG0j1DRCfQt4SSj5MSS3jPjp//x6BU9undr9vW3bVFVVEYtlCsRt2bLlkCPplmVhGAa+7+O6fU+vNwyDeDyOZVm0tLTgeR5bm+L87KXZfOr0DYOv7r7jfjjqU5k16SIiMiYU0EVERGRya+2AdVvgtc3wyqZMKG9syXw1tEJzGyzZDu/YANbITrWhLsof1s0k7fVMYvQ8j/r6egLBII2NjXie131fIBAgHA4TCoV6BXTP80ilUnR2dh60Fj0vL48ZM2ZgmiY7d+6kqakJ3/d5fmcZT29r4NIjagZ3sW07MwXxppyuPiIiMkYU0EVERGRyem4N/GMFLHslE8pb2jNh3HvTCHMsBeftGnE4B/jNmlm0pgK9bnNdl5qaGpqbm0kmk3ie1z0Knp+fj23bmObBqxI9zyMej9Pe3k5ra2v3qLrjONi2je/73V8ACcfi0S1TOWlaA2WxQUzTdzuh9jkFdBGRMaSALiIiIpPL8lfgy7+AlzeA64Lr9X/8ibuhJDHi067am8crBxSFO5DneXR2Zoq4maZJcXHxgOvRTdMkGAwSDAYJhULU19fjOA4dHR288cYbBINBmpqauo/3gc0NeTy/s4wrFlQPfMFuAppfUX8RERlDCugiIiJy+Es78MYO+NF9cP+T0Jnsfb9hQCgAkRBEwlAYh5OPhukBKP4xWCPbUs0Hlm2fQme6/2F40zQpLCwcVLG4A0WjUXzfp66+Hs91aW9vp729/aDjWpIBXqvJ47w5+4gHB/hgwnehbQ+k2yAQVx8SERkDCugiIiJyeKtpgL8+lwnnm3b1vi8ahplToaocjpkDS46E447IfO97sOVOWNkInSO7hOaExYb6vF5rzw8lGo2Sl5c3pHDeJRaLkUqleo2aH8qO5hi7W6IcWdo28JOmW6BjFxQsUD8SERkDCugiIiJyeEo78Nxq+N2j8McnIZnuuS8YgAtOhNOOzYyUHzUb8t80SpxqhJqnILFvxJeyrSlGUyLQ7zGmaZKfn3/I9eaDVVBQQEdHx0GF4w60pzXK3rbI4AK60w7JOvUlEZExooAuIiIih5+GZrjzIbj7Ediwo/d9x82Hd10MF58KMyv6fo7WLdDwCvj+iC9nX2uEtlT/AT0SiRAMBkd0HtM0u0fS+9KWsqnrsHE9sAb6LMBLg9OJiIiMDQV0ERERObxs2gnf+DU8siJTmb1LJARXnQ0fvhaOmpUZRe+L70LzOmh6LSuXVN8Z6rX+3DAMTNPstZ95OBwe1tT2N4vFYjQ2NnZ/31XRvetcnm/Q0Bkg5ZpETE/9RUQkhyigi4iIyOHjhbXwr9+AzXt6j3yXFMD/vB+uvTCz7nygHJxqhtrl4CazcllNiQAJJxPQTdNk7ty5uK7Lzp07SaczU+8DgUBWzmWaJpZl4bouwWCQuXPnYpom69ev7wnpnsGg5gW01+LXrMOovEh9S0RkDCigi4iIyMTX2AJ/fgo+/xNoP2BKdiQEJx4F3/woLJg1+OdL1UPNs6NyqVOnTqWwsBDP82hra6O2thbf97Myeg6Z0XnLtnFdlylTphCLxTBNk2nTprFjx46hPVlnMyz7CX5wLsaCS8DUn44iIqNJ/5cVERGRictxYeN2+O5v4Q9P9Nxumpnq7NeeB598V2bUfCg690Lr+lG55JqaGsLhMK7r0tTUhJ+FNe4H8n0fz8tMXa+rqyMcDmNZFvv2Da/YnbHvdfy/fg4fA+Oot4JhIiIio0MBXURERCam9k547EX48X3w0gFhOhyEUxbCh66GC0+G0BALr/keNL4Krpu1S80LOYQsj6Rr4jgO27dvxzTN7untAI7jZOVcnufh7H/eRCLBzp078X2/38JxAzH2vIr/4GfwfQ9j4RXqeyIio0QBXURERCaelnb46f3w27/D9r3g7R+FjobhuvPhA1dmtk4LDOdPHR9a3sjq5ZZEkkQCDkk382GB67q9CsQBdHR0EI/HR3yuRCLR6/tk8uB19MVRh6DlD6op2H+ZRvVa/D99Ct9JYBx3vfqgiMgoUEAXERGRiaWtA/79Vnjkhd5V2vOi8D8fgLedB8X5MNw13b4L1Y9k9ZKLo0kiAZemRN/HJBIJUqnUiLdaa2lp6ff+iO1SFEljm4MI6B5wwMC+UbcJ/y//lVkzv/jt6osiIlmmgC4iIiITx+Zd8NaPQ11z7yrtR1bBT/8bjp03/GDeZf0Poen1rF72jPw2CkIpqlsjfR7jeR6tbW2UFBcP+zxtbW0DTmUvj3dSFk0M7gldIN37JqN+C/6D/4VvhzCOuUp9UkQki1TlQ0RERHKb70NbZ6ZK+6WfhNqmnnAei2SmtP/ua7Bo/gjCuQ+JWlj+T/DSpzLfZ1Flfpqqgk5Mw+/nZfp0tLfT3t4+rMJxqVSKhoaGAY+bWdjGtPyOQTUJDplR9Ddr3Iq7/P/h7VmdmXEgIiJZoYAuIiIiucv3YVcN/OAe+M/boGZ/ADUNmDYFPvZ2+Nq/wsyKEZzDyRSFW/EvsPlXo/ZSzp29l2ig/0JwjuPQ2NhIR0fHoEO67/skk0kaGhq617VbloVpHvxnXjTgcPSUNkqjgyhI5wOJvu4ycHc8R/qxL+PteaX3bAYRERk2TXEXERGR3PX6VvjB7+Ch56D1gP3Nj5kLH70B3npaZhR9uDwHap+DV78C+54BLzVqL2VJRTNHlrbw8p6Sg+6LRCLk5+dTX19POp2mqakJx3GIRqMEAoE+n9NxHDo7O2ltbe0uBhcOh5kyZQodHR00NDR0b7lmADML2zllet0g2wZo7+M+w8A3TLwtj+P7LsGLvoRZsUj9VURkhBTQRUREJDc98RJ8/dewcn1mv/MubzsbPvJ2WHIEWNYITuDDrj/B2q9B3apRHwWO2D7vOnbrQQE9HA4zY8YM8vLyCAaD7N69m1QqRVNTEx0dHYRCIUKhELZtY+yfwu84Dul0ms7OTlKpVK+K8NOrqigqLOwuOtdVNC5ou5wxo5aq/CGsP+9rJrxh4puZtve2PkXqr58i+NZvYU5bon4rIjICCugiIiKSWxIp+M1DcOvdsOeA0d5IEP71evint0FZ0cjPs/lOWPkZSOwbsynai6a2cdmRO/nrhqru2wzDIBKJdIfvrqntnueRSCRIJpOYptl9f9cxvu93j44fqLmpicKCgu7HdjmiuJWrFuzFHOwy/Q66t1h7M9/MjKB38Xa/TOrBTxC8/HsK6SIiI2D4vhYNiYiISI5obYev/wp++SB0HLB/d3kRfPYmuOEiCIdGfp6Vn4W13wTfG/OX2JG2+OcHTmBXS7T7tmg0SklJCTt37hzx8xuGQTQaxXGcXgH99qufZXaRM/gn2go0HXyzb0A6HMQJRQ+6z6xYTPCKH2BWHKu+LCIyDAroIiIiMv48Dzbtgu/8Bv74FKT3B0nLhGPmwH+8Gy4+DezhT2n3fZ/Wpjq8NbeQv+sXmF5iXF6qD6yrifOlJ4+htj08pHrxhmEQj8dxXZeOjo5BPSY/lOJjp63ngtkNgz9RGnitj+s3DJKxCJ596P3azVlnErzoy5mQbliIiMjgKaCLiIjI+Eo7sPxVuPW38OTKntsDNpx/Ivz7Ujjp6BGdwvM8tm/fzj13303blr9w07HrmF/UMn4v2TV4ensRv1w1j92t0UHPsM/Ly2PWrFlYlsWWLVu615f3pTzeyU1LtnDRnDoscwh/8u0FqvtoS8skkZdHpuzcoVlzzidw/ucxpy3u9zgREelNa9BFRERk/KTS8Ou/wi/+Auu39dxeUgDXXwAfvmZkW6jt9+qrr/L73/+eFStW4LphfHc+/3HqKooi3ri87IDlc+aMRgLmJn77yizeaMjD8wcOsrZtY5omgUCAaDTaZ0A3DZ+qgnbecex2zp1VP7Rwngb6GWx3bZOBQrer6u4iIsOiEXQREREZHw0t8P17MgXhGlp7bp9TCR+7Aa4+FwriIz7NihUr+OlPf8r27dsP2Cfc5MxZdXz61FeJB8fvTyHPhzfq8/jT+qk8/Ma0AY83TZOioiKCwSA1NTW9qrd3sQyfEyrruf6YHRwzpY2wPcQPIWqAPdDX3PtEXhzPGtwYj1l5AsFLVd1dRGSwFNBFRERk7G3ZDV+5HR5eDp0HFIM7Zg584QNwzvEQCo74NPfffz933XUXDQ0HDwlbpsFVxzbwz8etITjOS6WbkzbramLc8+pMXtlX3O+xhmFgGMYhK7gXR5K87/g3OG16C0WR1OArtndJkSkO18fyds82SMQLhvSU5tRFqu4uIjJICugiIiIyttZvg3+/FZYdUIXMNOG0Y+Br/wrHzsvKaf785z/z85//nLa2tj6PiQYN3rWkhqVHr82Jpkm5Bi/vyeO+tTN5raaIlGsO6nHzilu56qjtXDyvnoA5gj/t9u3/6mN7tWQsghsYehV9VXcXERkcrUEXERGRsZFMw/JX4D9+kKnY3iUchMvPhC99GCpKsna6dDo94DEdKZ8/ry2iNDydC2btxjbHd9wiaPmcVtXCaVWvUtNusra2kM31eexpibKrNUbKzQyJH1ncStB2Oaa8kSNLW5ien8I2R3jyTqCZPsO5Zxm4geHNavCqV5N65L8JXnRLZk26qruLiBySRtBFRERk9DW3wb2PZtac76rtub2iFK4/H/7rJoiEsnrKpqYmfvazn/HQQw8NeOz8klY+cMIWTqhoGveQPi5cMiPntUAfS9ZT0RBOMDKi01hzzidwwecxKxej6u4iIgfTCLqIiIiMrm174I4H4ed/ho4D9h5fciR88Cp451vAyH5YKyws5P3vfz8tLS08++yz/R77Rn0ev149mynRdcwuSuRaC44un8ya8yb6DOeebeHaI/8Axd3yOL7nEHzLVzTdXUTkEDSCLiIiIqPnlU3wvd/Cw8/3FIOzTDhrcWZ/81OOyex3Poqqq6v5xje+wZo1a/o9zjDguKmN3HzuKxSEJ9GfR2lgB9DHluq+AelIBCcYJFuj3mbl8QQv/bYKx4mIvIkCuoiIiGSf58OK1+C/fwRrt0DKydwetOGtp8N/vhuOnAnW2KxF3rhxI7feeivr16/v9zjDgJOmNXPLeasIT5Z5hjuBevrcVs0JBkhHIviGmdXTqrq7iMjBTDWBiIiIZN1TL8NNt8CqjT3hHOA9l8KPPgNHzxmzcA4wb9483v72t5OXl9fvcb4PL+4u4DvLJ8n060agjj7DuW8auEE76+EcwNv7Cqm/fgqv+lX9voiI7KeALiIiItnT0g63PwDvvhlqGntuLyuCmz8I3/o4RMNjfln79u1j+/btFBcXY9v9D437PizbXsida2aTdA/TP5V8MlPad/RziJEZPc/G2vO+dFV39/asAt/V74+ITHqa4i4iIiLZsb0a7vgL/L97wd1fbcwy4ajZ8OmlcMXZYI5t5W7Xddm6dSt/+9vf2LVrF47jUF1dzb59+/A8r9/HVuR18t4l2zhnZi1h2zt8fk4+0ArsBvqph+cEbFLRKBij/yFFT3X3IU5391JQ/Y/MpyrFSyA6Tb+HIjKhqYq7iIiIjIznwZo34Lbfw8PLe8J5KABnHgefXAqnLBzzcJ5KpVizZg2PPfYYjY2Z0Xzbtpk6dSqu61JTU9Pv46tbI9zz6kxKIgmOr2ge68sfHV0j59X0G849yyAdiYxJOIdhVnd3k7DhNnj1a+B7MPe9sPA/IVqp30kRmbA0gi4iIiLD57jw3Br45q/hpdd71puHAvC2c+DfboAFM8d0vTlAZ2cnzz33HCtWrKCl5eDy5KlUiq1bt9Lc3Nzv8xgGHFHSwn+dtZZZhcmJ/bPqGjnfA3T2fZhnGaSiUTwrMOaXaFYuIXjpdwYuHOcmYd03YO13ILX/5xsshDnvhsW3QLBIv5siMiEpoIuIiMjwPfA03PxT2LGvZ+Qc4N+ug0++C4ryR2WP8/40Nzfz1FNPsXLlSjo7+06i6XSazZs3HzLAH8gAji5v55sXvUh07DNr9rQD24F+PmfwTUhFIriB0Lhd5oDV3bvC+brvQ7Kh9312FOa8B079cZ/P73keW7du5bXXXmPx4sXMmDEDwzgcpkeIyOFAAV1ERESGzvfhjgfg33/Q+3bTgNs+De+6ZFwuq729nQcffJCVK1cO+vhNmzaRTA48Or6wvIPb3voCEzLLNZLZTq2fOmw9+52Hxv1yzcolBC///sHT3b0UrL8NXvlSz8j5ocy9CU7/xSGn6K9fv55bbrmFvXv3UlFRwVe/+lVmz56t32kRyQnWzTfffLOaQURERAbF96GuGb5yO3zjzsz3ALYFsyvhZ5/LFIMb4xTr+z4NDQ387ne/Y926dYN+XDAYJBwO09raiuv2X0W8vsOmPhHhuKmNBKwJMr7hAPvIFITrp86dbxqkI+H94Xz8P4HwW/fi1W/GnLIAIz4lE7Sddth0+/5w3tT/EzSugWQNlJ2aGVUnM3K+YcMGvvSlL7F3714A2traePHFF1m0aBFFRUUaSReRcaeALiIiIoPjuLB+G3z9l/D7RyGVztweDsIZx8Et/wRnLM5Ubh/Ly3IcNm/ezO9//3t27do15McHAgEsy6Kjo6Pfyu4+BntbQ4Rsl1mFHQStHK7s7gFtwF6ggT73OYfMmnMnFMIJ5UY4727vpu34TTsxy47EiJXApl/AmpsPntbel+bXId0KRYtwzRgrV67k61//enc479La2srKlSuZPXs2U6ZMwTS1C7GIjB8FdBERERmY68Lzr2bC+aMvQuf+KeHBAFx6Bnz2Jjh+QWYkfQylUilWrVrF3//+d2pra4f1HKZpEg5n9mZvb2+nv9V/SddiR0uMsliCGQUdY/1ZxOCkgXoyI+ft9B/O7Uy1djcYJJfCeRe/cSt+4xYsYzPGa18ffDgH8NLQsgE31c7y9e385Bd3sXv37kMe2trayubNmykvL6eyslIhXUTGjdagi4iIyMD+9hx89Q5Yv713MbhPL82sN5899ltbdU1PXr58+YDV2AfDcRx27NhBXV1dv8cZQFVhBx87ZT1LKlpyZ/s1D2gmE8476He9OYATtHFCoXGp1j5ohk+goJNAqQluYsgPd31YXnMkd6yez7a9/c+QME2TuXPn8v73v5+TTz5ZIV1ExoUCuoiIiPTvx/fCd++Buqae22Jh+OZH4apzIBYZ80tKJBI89thjrFixYlAF3gbLcRy2bt3avW96f+YUd/Kl81cxLS81vj8fn8x09hoywdwZ4HADnHAIJxDCz+UQuj+c2wWpYW3H7vnw8t5Sfvji0exsMPEG8RevaZosXLiQT3ziE8yZM0e/+yIy5vTRoIiIiBxaeyf8z//B//ysJ5wbwKyp8LP/hndcPC7h3PM8fve73/H0009nNZwD2LbN7NmziUQGfl1bGiJ84fET8PxxGEI3TDCDUHEO/im/xrcvghZjwHDuWSbJWJR0KJL74Tw/MexwDrCxIY/vrjiO7fWDC+ddfauxsZFEIpG7bSMihzWNoIuIiEhvnge7a+E7v8kUg+vcP0IcsGHxEfD592eKwo3xAmzP86ipqeHee+8dVjG4oejo6GDTpk2DCmqnzWjks2etJS/ojN4FGSbYMQgWQaQEpr4FZr8Tio4DwK9ZD/d/HGPjo+C/aRq3Ab5h4gQtnFAE38jt8RnD8LHykgSKEsMeOd/YkM+XnjmJ6kZ3SI8tLCzkne98J1dcccWgPqQREck2BXQRERHp4bqwaiPc9jt4aFmmcjtA0Ia3nAqfeAeccNSYX5bjOLzxxhv84x//6LPQVzb5vk9jYyO7du0aMKRbhs/1x+zg7cfsoiicHvnJrQgE8vZ/FUC4FKLToGABlJ4KJSd2bx3W65prXoc/fgpj/cOZGwzwTBPPtnGCgdxea97F8LHzkgQKExjDqDfo+rBybxnfXbGIvcMI59dffz1XXXUVsVhM/y8QkXGhgC4iIiI9nngJvvFreHl9TzgPB+HGS+BfroU508f8kjo7O3nttdd4+umnqa2tZaz+dPE8j7q6Onbv3k063X/wjgcd3rVoO287ahdhe4jXF4jCrHdCfP+a50AcgsWZ0fJwGUQrITq4dvfr3sD/y3/B6w/gWhZuwMazbHKxQvtBuqa1FyaHNXLuerB8z1R+vvIIttcP7QnC4TA33XQTl19+ucK5iIwrBXQRERHJ+NWD8KM/wMYdPbdFgvCFD8L1F0Bp4ZhfUiqVYtmyZSxbtoyWlhbG+s8W13XZs2cP+/bt67cCOEBZLMn7j9/EBXNqCQw2H4aKYOF/wLwPZsJ4FvgNW3Gf/xHplb/Cd9NMCCMsCOf6sHz3VO5YNY9t9fag15wDhEIhPvKRj3DRRRdpWruIjDtbTSAiIjLJJVLwv7fDbx6Gxtae2ytK4Ov/lpnaHg6Oy6U9+OCDrF69OuvF4AbLsiwqKytxHGfAfdZr20PcuWYeU+Mpjitvxhho0Do+C479b5h1Q2Y6e5YYxbOwzv4PPNPCeekOcMe5yvyAFzzyau2r9pXy85VHDLpae/ePIB7n1FNP5a1vfSuBwARYAiAihz2NoIuIiExmNY1w611w59+gff9aa8OAI6rgyx+G808Eyxrzy+ro6ODOO+9ky5YtOdFMruuyfv162tvbBzy2qtjjuxe9QGm0n7XrsRlw4ndg5nWjds1+RwPpf3wR59XfQa6OpI9wWjvAuto4n398CY0dQ+unsViM4uJibNvmrLPO4r3vfa/2PheRcaeALiIiMhl5PmzbA9+/B+5+BNL7K5BbFpy6ED53E5x+3NhfludRXV3Ngw8+mDPhvIvjOGzYsGFQIf3EmSk+f8ZLFITeNHptGFB4LJzyI5hyxqhfs99eS/qRL+Cs/WPOjaR3V2sfZkE4z4f1dXG+8PgSGoYQzg3DIBqNUlRU1D1qbhgG5513HldffTXxeFz/fxCRcWPdfPPNN6sZREREJpmXX4cv3w73P5HZVg0y26hddgZ86Z9hyYIxv6RUKsWmTZt46KGH2LFjR841mWmaRCIROjo6Biwat6fZoiUd4sjSVqKBrg8/QjDtQjjtdiheMibXbARjmDNOgbYavLr1B2/BNl6yUK39hd3FfOWpRTR2Dn3k/MBw3v0z27OHZDLJ9OnTtRZdRMaNArqIiMhk8/Ay+PIv4JnVPbflReF9V8B/vw9mVY75JaXTaV555RUeffRRqqurydUJfsFgkGAwSEdHB47T/77nWxqiYAY4qqSeYDgP5r0PFv8v5M0d02vOhPRTIdmOt+818F3G1f5p7YGi5PDCuQfP7CjjJy8eQU370NaN9xXOIbOMYe/evaRSKaqqqgiHw/p/hYiMOQV0ERGRySKVhp/+Eb71G1i3tef20gL4r/fCP71tXCq1AzzxxBM888wz1NfX53QTGoZBKBTCMAw6Ojr6rezu+wa7WqIEYlM54oz3YB/zKYhNYzy2PDMCUczK48B18KrXjF9I7yoIVzj8au3P7ijjjlVz2d0ytAAdj8cpLi7utxhcOp1m7969JBIJ5s2bp8JxIjLmVMVdRERkMmhqhV/8ORPQa5p6bp87Hf7nA3DxqRAa+0rtqVSK+++/n7Vr15JK5Xi18f1M06SsrIxwOMzmzZv7HUk3QsUUnfJegosuyux3Po77kRuxMgJnfAw8B+fl28e+cFwWqrW/tKeIn7w8n72tQfwhVmsvKirCtgf+07ejo4Onn34ax3F4z3veo/93iMiYUpE4ERGRw119M9z6W/jZnzOj6JDJifNnwLc+CmcfPy6X1dLSwv3338/rr78+oZrTMAwWLlzIhRdeyA9/+EOWLVt2yCn5sViML37xi5x00kk5df2Z6u7/g/Pq78cupBs+dt7+ae3jWK19qM466yxuuukmDGP8PlgRkclFe0mIiIgczjbvgv/5Cfzwvp5wbplw4tHw48+MSzh3XZfdu3fzu9/9jvXr10+o5gyFQpx00klceumlVFRU8PnPf57Fixf32p7Lsizmz5/P97///ZwL5wBGtJjAhV/EXngNWGMwa6K7IFxy2CPna2sz1dobh1itPRwOU1BQMKxwDrBixQp2796t/4+IyJjRCLqIiMjhyHFhzRvwpZ/B06t7bs+Pwrknwjf+DaaWjPllua7Lxo0beeKJJ9i5c2e/a7hzTSwW46STTuKcc84hGo123757926+/e1vs3r1akKhEKeccgrve9/7mDVrVk6/Hr+9lvSjN+O8eu/ojaRno1r7rmK+tWzhkEfOw+EwxcXFhEKhYV26ZVmcfPLJLF26tNfPW0RkNCmgi4iIHG7SDvzpSfjx/bBqQ8/tBXH44JXwgaugojQrp/I8jy1btlBdXc2xxx5LYWFhv8e/8MILLFu2jOrq6gnVpIWFhZx//vksWbKEYLD3qLPv+2zcuJG//e1vFBYW8pa3vIWKiooJMS3a76gn/dQ3cV7+Zfb3Sd9frd0e5sh5V7X2n788j90tQwvZ2QjnZ599NldffTV5eXn6f4qIjBkFdBERkcNJawfc/zjc9nvYsofuSlrTp8C/XQ83XASF2QscL774Ir/61a+oq6vjggsu4IYbbiA/P/+g49LpNI8//jgvvvgira2tE6pJKyoquOSSS5g/fz6WdehRXM/zaG9vx7IsIpHIhFqz7LfVkH7uBzgv/ix7IX2EBeFcH57dXsbtq+ayszk8pIJwkUiEkpKSYVdgtyyL8847j0svvXTAD5xERLJNVdxFREQOF51JuPMh+O5voaGldzi/5UNw2ZlZrdT+3HPP8a1vfYuWlhZ83+f++++nsLCQa6+9ttea7M7OTh566CFWrVpFOp2eUE06b9483vrWtzJt2rR+Q7dpmhN2pNWId1V3T+O8fMfIp7tnoVr7y3uK+MlL89nbFhzzcH7WWWcpnIvIuNEIuoiIyOGgrQO+dSf84Pc9txlAWTH8/HNw1pKsncpxHO68807uuusuXPfg/bS///3vc+yxxwKZSu0PPPAAa9euZSL9ydFV6O3SSy+lvLx8UnShnuru9w5/JH2E1dp9YH1tnP8eRrX2cDhMSUnJQUsQhvIzP+mkk3jnO9+pae0iMm4U0EVERCa6XTXwtTvgt4/03BYOwsI58IsvwMypWTqRT31tLffe9wf+8uCDdHR0HPKoSCTCzTffTHl5OY899hhvvPHGhCoGFwwGOfroo7n88ssnXVDz22tJP/IFnLV/HHpIH2FBOM/PbKX2xSeW0DDEau2hUGjEa85POOEE3vnOd1JQUKD/p4jIuFFAFxERmahcF156Hb71G3jsxZ7bY2G4+hz41FKYMy075/I9vPrNPPXAnfzoj8upa3P6PXzmzJkcddRRNDQ0TKgmjcVinHLKKZx99tlEIpFJ2a0y1d1vGdo+6Vmo1r5iVwnfWXb0kMI5jLwgnGmanHLKKbz97W9XOBeRcac16CIiIhNRRwKefBm+/ZvMdmpdyorgXW+Bf3obVJRl7XTevnWkn/wac7c9xymFRTzWWUDC7XtN9o4dO2hsbGTGjBkTZouqkpISzjnnHE444YRh75t9ODBiZQQuugWCscFVd89itfaxDuddz3HWWWcpnItITlBAFxERmWiSKfjz0/Ddu2BrdWZuMMCUIvjEO+Adb4Gi/Kydzt22jPTfP4tXs5ZSy+Wa6UmqE2FW1fddXdv3fdra2qiurmb69OkjClBjoaqqivPPP58jjzyyz0rtk4kRLSFw1r+DGei/uns2qrXvzFRr39M6tD4y0oJwXc8RiUR45JFHiMViVFVV6f8vIjKuNMVdRERkIkml4ed/yhSDq2nsqdQei8Bt/w5vPSOz/jxLnFW/Jf34l/Db9nXf5gN1yRCfe20he1r7X1tuGAbl5eVMmzYtJ4OvYRjMnDmTSy65hJkzZ/aqPi8+flst6We+c+jq7lmo1v7SniK+t/yoMa/WDpmR81gs1v0zr6ys5JprrlFIF5FxpYAuIiIyUSTT8P274Wu/6rnNMDIj57/9Mhy/IGun8lPtuKvuIv30N/E76g95zI6OMJ9dcxRNyYH/lJg9ezalpaU5tT94Vzh/17vepenN/fWFjnrS//hi7+ruWarW/vnHlwxrWvtIqrUDhEIh4vH4QR/IzJgxg6uvvprKysox6auJRIL77ruPl156Cch88PAv//IvVFVV5dTvioiMHQV0ERGRXOd5sLsWvvwLuPexntuDAThxAXz93+DYedk5l+/jt9fgvHg7zor/w0+29Hv4yoY8bl0/g4ZU/yOZpmkye/ZsiouLcyJ4BINBFi5cyBVXXEEsFlMfG6hbHFjd3UtmoVp7Hl98YvGYV2uHvsN5l3nz5nHJJZcwffr0Ue2rLS0t3H333dxzzz29bq+srOQLX/gCRxxxhGZ0iExC1s0333yzmkFERCRHeR6s3gj/8xP42/Ke9eYFcbjkVPjyh+Go2ZmR9Gycrmk7zjPfzRQHS7UNeHxpKE3M9tjYGiXh9h0mfN+nvb2dSCRCOBwe1ybNy8vjtNNO47LLLhv3a5kojGAMc8Yp0LYHs2Pl8Ku1e7Bidwlfe+bYcSkIN1A4B2hoaKCxsZHy8nLy8/NHpT3r6uq46667uPfeew+6r7W1lVdffZUZM2ZQXl6ukC4yySigi4iI5KqUA0+thK/9Epa9Amk3c3s8Cu+8CD59I8yeBmaWwnn1q6QfvQX39T+BkxjUYywDysMpfAy2t0dIen2HCdd16ejoIBqNjlvRuClTpnDuuedy+umnj2iK9GRkWDZmx3Ks1qeGHc6f2VHGT1+ez762oa0dz1a19oHCeZeGhgZqa2upqKjIekivqanht7/9LQ8++CCed+gaDi0tLWzdupXy8nIqKioU0kUmEQV0ERGRXOS68Ndn4Su3Z0bQnf1/yIeD8Lmb4P1XwvQpWRs5d9f/jfQ/Po+3/VnwvSE9NmR5TI8kqU2G2NURwvONfl6WSzKZJBqNjqjA11AZhkFFRQUXXXQRixYtUjgfcgdJwtqvY2z4IYaXGPrDu6q1r5zL7pahzVqIRCKUlpaO6GcWiUR6FYQbjKamJnbt2kVlZWXWahTU1dXx29/+lr///e8kk8kBz799+3YqKyupqKjQmnSRSUIBXUREJBfd9xh86vuwp66nUnteFL7/SXjnxVCYl53zuCmctX/MVGqvXT/spwnbHkfnt/N6S5zaRP/BO5VK4bou8Xh8zCq7T506lRtuuIHZs2dP6j3Oh8VLwevfgnXfg1TT0B/uw8rqQm5bsYDq1tC4V2sfitbWVnbt2sW0adNGHNJbWlq46667+Otf/zpgOIfMspCmpiY2btzIEUccQVlZmUK6yCSgInEiIiK5wiezjdq3fw3f/m3P7aYBpYXwqy/Cqcdm73zpTpxVd5F+8mv4nQ1ZecrqRIj/WnUEdcmBg3fXyOBohnTTNJkxYwY33ngjeXl5yBC5nfDGT2D1zZBqHlaXXl8b4/OPH59T1dqHaqTV3ROJBL/61a8OKgg3WGVlZXzpS19i1qxZmKaJaZoYhtH9XxE5fCigi4iI5ALfh+3V8OM/wK8eguT+7ayCdmb7tK99BI47ImtT2v32OpwXf0H6+R/BAJXah2prW4QvvzabfYn+g5VhGEyfPp2pU6eOSsgIh8McffTRXH311eO25n1Cczpgyy9h9RcgMfQPcDwf1tbkcfOTuVmtfaiGW929r2rtw3k9CxcuZO7cuZSVlVFSUkJ5eTl5eXmEQiFCoRCBQIBQKKRZIiITmAK6iIjIeHNcWL8ts8f5g89BYn84j4Tg/BPhk++EJUdCloKG37iN9PIf4qy6E5zkqLykFXUF/HjT9AGnuwcCAaqqqigtLc3q+QsKCjjxxBM5++yzVal9OLxUZuR8zS2QqB/yw10Pnt9dwq3LjqY+R6u1D8f8+fO7Q/pg1NXVcc899/CHP/xhwGNN0yQQCHRfs+M4pNPpXsdEIhFmzJhBfn5+94cEtm1TXFxMUVER+fn5FBcXk5eXRzweJxaLEYlEiMfjhMNhjbaLTAAK6CIiIuPJ92HlevjfO2D5a9C5PzAHbHjvZfChq+GIGVk7nbv9eZxlP8Dd+LdRfVkpz+Qfe0v4/fZy6pL9j+bZts2cOXMoLCwc8XkNw6C4uJizzjqLxYsXE4lE1MeG3EmSsP5WeO2bkGwc+sM9eHpHGbevnMeu5qGF7GyE80gkQjQaHbXK57Nnz+aKK65g2rRp/R5XU1PD3XffzUMPPUQqler3WMuyyMvL67VWPp1O09LSQkdHR69jo9Eo06dPp6CgoM/AbVkWsViMvLw8otFo93MXFBRQVFREPB7v/u9Y1YEQkcFRQBcRERlPjzwPt/wcNmzPJJsu//lu+OBVUFaUnfO4adwtT5F++pt4u18ecqX24Wh3LP6ws5w/7yrtd490yISOmTNnjnideElJCVdeeSWzZ8/WtPbh2vUgLLtpeCPnPjy3o4yfvzyXXS3hMS8IN9rhvEtlZSXXXHMNVVVVh7y/a5/zv//973R2dvb7XIZhEI/HKS4uPui6E4kE9fX1vQK+YRhEIhGqqqp6jaQPpGvpQDgcJhgMEg6HCYfDFBYWUl5eTmFhIWVlZRQXF4/pDgsi8qbfVQV0ERGRcfLHJ+CTt0Jze89t0TD86D/h4lMhnKWA6Tk46x4g/diX8Zt3jEk479LmWPx0UxVP7ivEHeAvjry8PGbNmjXsUe/y8nLe9a53MWXKFO0bPRJ7H4fHLs8UiBsC34dV+4q59flj2N1kTqhq7cNRWVnJtddee9B095aWFn7961/zwAMPHDRF/VBs26akpIRoNHqINvWpr6+ntbX1kG02e/Zs4vH4iF6HaZrYto1pmliW1T2j5cILL8z60hMRGcTvpJpARERkjKXScOtv4V+/1RPODQOmlcFtn4bLzsxeOO+q1P7Qp/Gbto1pOAeI2y7vmb2bBfkdAx7b2tpKdXX1oELNgUzTZO7cuXzkIx9h6tSpCucjNfV8OPPXYA3+gxIf2NiQx7eeX8KuxqGF865p7SMJ56FQaEzDOcCePXv485//zK5du+ga70okEtx999384Q9/GHI/PhTDMPocIe/s7GTz5s0kEokRncPzPFKpFIlEgvb2dpqbm1m1ahXbt2/X74LIONA7mIiIyFjxfdhbD9/8Ndz2+97rzY+bD9/+GFx1DtjZWRPqd9STXvET0n//LH5n47i97NJQmo8fuZ0ZsYGDRH19PdXV1TiOM6jnjkQinHjiiSxdulTF4LJp5nVw+s8hOm3AQz0f1tYWcsszJ7O30R30KQzD6A7nubCV2nDs2LGDv/3tb+zatYumpqZhbaXm+z59TWj1PA/P6/tDtWQyOSpBOhqNaomIyDjRHgwiIiJjwfdhy2744b1w3+PQun9E2TTh9EXwX++BE48GKzshw6tZj/Piz3Beuj0nXv60aJJPHrmDb6+fxe6OYD/N5FNXV0cgEKCioqLP4wzDIC8vj5NPPpnTTjuNWCymPpZtM68FLw2vfBlaNx/yENeDF/dO4bYXjqF6COEcyMmt1IZj06ZN/OUvf6Gjo4O//vWvQ/9d9Tza29sJh8O9Crb5vk8ikSCZTA74+GwLBAJahy4yThTQRURExsIbOzLF4B5ZkdlWrcu7Lob3X5HZRi0bPAdvzyrSz9yKu+mRnGqCI/I7uGlONXdsrmBPZ98h3XEcqqurCQQCfa6Bzc/P58ILL2ThwoUK56PFDGVCuu/Bq189KKS7HizbU8Edq+ZR3Ti0kDgRqrUPViqV4umnn6a2tnZYj/d9n87OThobG4nFYti23R3O29rasjJVXkQmDgV0ERGR0fb8q/Cf/w/Wbemp1B4JwrsvhU/fmL1K7b6Lu+VJ0k9+E2/vGvDcnGuKk4qbaUzZ/HprBW3pvoOV4zjs3LkTy7IoKurdPsXFxVx11VXMmzcP29afMqPKjsOst4Nhwcr/gs5qIFOt/fnqcn65ai7b6y2GUnF4IlVrH0gqlaK6upq6uroRjWR7nkdbWxudnZ3dr8l1XVx34N/h/Pz8rL+uYDCoEXSRcaJ3NRERkdH012fhv34Iu2p6bgsH4fMfgBvfCvlZGv31XNwNfyP1yOfxm3eOeTG4wQqYHheU19OUsrlvxxRSXt9bRKXTaXbu3EkgEOiuVF1ZWcmNN95IcXHxoLeXkhGyYzD7HWAG4Lmb8N0Ur9QU85OXFrCr0RiXau25EM67ZnrU1NSQjU2RfN8fdO2FLuXl5UydOjXrry0Siaimg8g4UUAXEREZDal0Zq35V34B1fv3kzYMqCiBT7wD3nUJxCLZOZebwln3F9IPfhw/1Z7zTRO2PC6fVkt1Z4inawpw/b6DdiKRYOfOncybN49jjjmG6667blRGDGUAZhBmvxPfsNn4pw/xzeVLhlQQDjKFxyZitfZD8TyP6upq9u3bNy7nNwyDsrIypk2b1mvdejafX0TGhwK6iIhItjW3wZ0PZSq11+yvnm4YML8K/u06eMfFmcrtWeC37s1so/bEVyZUExUEHN4zew/NaYtVDXn9TpFua2vDcRzOPvts8vLy1L/Gied5rG1dwNeev5C9jfWDfpxhGEQikayE8/EuCAc9I+fV1dXjcn7TNCkpKaGysnLUlnhYljUqwV9EBqaALiIikk21jfCTP8IdD0BDa8/tS46Az70PLjgpO+fxXbz6LTjLbsN55XcTsqmmhFN8YM4evpOayZa2vqfT+r7Pli1bePTRR5k6dWr3dHcZO67r8uKLL3LbbbdRva9+SI+NRqMUFRWNeFp7Loycd605H6+Rc9u2Of3005k/fz6u69LY2EhdXV3WC8nFYjFNcRcZJwroIiIi2bJzH/zvHfCHJyB9wFrSK8+Cj749s41aNvge3q6VpJ/7Hu6WJ8FNTdgmmxXv5MPzd/HjjVVsbe+7ond7ezt/+ctfKCoq4oYbblBfG0Ou67Js2TLuuOOOIY8ax2KxEYfzXCsIN9xq7dlw6aWXsnTpUoqLi2lvb6exsZE9e/bw/PPPZ/VDA9M0x729RSYrBXQREZFseHUTfP7/YNkrPduohQJw/QXwqaUwuzI75/E93K3PkH78q3h7V4M78bdgWljQxntm7+H7G2fQlOp7Wm1HRwd33303hYWFXHzxxepzY8B1XVasWMEvf/lLtm/fPqRiaPF4nKKiohFNw87FcD4a+44PxrXXXsuNN95IYWEhAAUFBRQUFDBjxgxmzJjBM888w+rVq9VpRSY4fTQmIiIyUstfgY9/B55d3RPOgza8/0r4nw/CrIqsncrd+jSpP30Yb8/Lh0U473J8cQvvn7OHsNV/AGxubuZ73/seL7zwgvrdGHjjjTf48Y9/zNatW4cUTLMRznOxWvt4hvObbrqpO5wfyDRNpk+fzrnnnsvMmTOzcr5oNEokEkFExp4CuoiIyHA5Ljz2Inzye7BqI3j7w2VRHnzqXZk152VFmQJxI5VO4Ky6i+Sdb8Nv3Zuz26gNl236nFbWxNVVtYQGCOmJRILnnntO/W8MtLW1DWkbMcMwuqe1jySc52K19mxspTbk3wvb5sorr+TGG28csPZCeXk5ixcvzsr+5YFAYNQK0IlI/xTQRUREhiOVhj88Dp+6FTZs77l9Whn863XwiXdCPAsjUL6H37aP1FPfJPXQpw/rJo1aLldU1nDulAYC5qHDkGVZzJkzh4suukh9cAzMnz+f6667btCF+SKRSFbCea5Ua9+1a9e4VWsPhUJcfPHFLF269JAj529mmiYzZswYlX3RRWTs6KMxERGRoWpqg7v+Bj/4Xc82agALZsJ/vgfedm52zuP7eHUbcZ7/P9y1fwQncdg3bWHQ4foZNTSmQ7xQ1zsUWpbF6aefzk033cScOXPUD8dAQUEB1157Lb7v88ADD9De3t7nsfn5+Zx11lnU1dVRU1Mz5HNZlsXChQvZu3fvuIxWHygXqrVfeOGF3HjjjUyZMmXQjystLaW4uJidO3cO+9yWZREMBtX5RcaJArqIiMhQ7K3PBPNfPJAZRe9y7vHwsRvgvBOzcx7fw9uzhvQz38bd/PikCOddKiJJ3j27mjZ3BusaM5XdY7EYF110Eddffz2VlZWTpi1yQXFxMddddx2maXLPPffguu5Bx4RCId7znvdw/vnns27dOh544IEhVTu3LItzzjmHiy++mOXLl/P8888f8jxjIZVKsWfPHurq6satzbuqtQ8lnENm3f5It0cLBoPEYjF1fJFxooAuIiIyWJt3wdd+CQ8t6wnntgVvOQX+491w7LysncrdvZL0Q5/G27cOvMOnGNxgzYm18y9zd/Dl1+eTtAu4+uqrufLKKykqKlI/HAfFxcXccMMN2LbNr371q173hUIhPvaxj3HBBRcQCoU48cQTMU2T3//+9zQ3Nw/43JZlcd5553HppZdSWFjIeeedh2maLFu2bMxDetfIeV1dXc5Uax+qWCyGbds4jjOsxxuGoS3WRMaRArqIiMhgbNgOn/8xPLESukKDZcJbT4ev/gtMmwKmkZVTuRseJvnHf4JkG+BP3DYbodnxdr543E62H3MDF163NCvFr2T48vLyWLp0KZZlcfvttwOZcP7xj3+ciy66qHvdeSgU4uSTT8ayLH72s5/1G7Ity+KMM87gsssuo6CgoPs85557Lo7j8MILL4xZSD+wWvt4TbHvqtY+2DX/hxKJREYU0EVkfCmgi4iI9MfzYf1W+OSt8MK6nttDAXjHRXDzP0FhXhZO5EM6SfrF20k/+VVId0zudjcMzGAeR15/K0cffYX6YY4IBAJcf/31uK7Lww8/zDve8Q4uuOCCg4rCWZbVHdJ/8YtfkEgcvETDtm1OPPFErrnmGvLz83vdF4/Hueiii0ilUqxZs2bUw+aB1drHq13f+ta3snTp0hGF8662G2mRvjf/PERk7Cigi4iI9MV14ZlVcPPPYM2mntvLiuDKM+HL/wKRUBZO5OO3VOO8dAfOy7crnBsW5rTjCZz7Way556kf5phwOMxNN93ETTfdNOCxJ5xwAo7jcO+999LQ0NB9u2manHDCCdxwww19hsFYLMall16K7/usXr161Kacp9Npqqur2bt377i0ZygU4sILL2Tp0qVZWcLRNYI+XJZlabaKyDhSQBcRETmU1g7423PwpZ/D7gOKRU2fktlCbenFEM5COPd9vIbNOMt/iPPqfZBqm9ztHohizT6bwHmfw5x6rPrhYeD444/HdV0eeOABampqsCyLU089leuvv37Akdp4PM5ll12GZVmsXLky69Pdx7tau2VZw6rW3p+RBnQRGV/67RUREXmz1vZMlfb/ux/29Yz6seQI+Jdr4YqzIZydbYi82vWkH7sFd8tTk6pS+yEF49gLr8E+/d8wS+aqHx4mAoEAJ5xwAqZpsnr1asrKynjLW95CXt7globE43EuvfRSgsFgVqu750K19ssuu2xY1doHaq+RBHTbtkdcCV5Ehk8BXURE5ED76uG238Nv/w5NrZnbTBMWz4fP3gRnL4FgdqZ/utuey1Rqr3sDfHfitlk2BGIETvwA9mn/ghGbAoYxudvjMBMKhTjhhBNYsGABoVCISCQypMdHo9GsVnfvmtY+3tXa3/3ud3cXx8uWWCw2oinqgUBgyD8fEckeBXQREZEuzW2ZPc5/9mdIH1CUatFc+L/PwpxpmcrtWeCsvof0o1/Eb69RuwPBt3wVe/E7wA6pMQ5TgUBg2FuHQU9193Q6zQsvvDDsYH24VGvvSyQSwbKsET2HoQ/IRMaNArqIiIjvQ2Mr/PP/wqMv9txuW3D+8fDNj8PMiuycKtmCu+Z3pJ/5jsK5YWDkTyNw4Zexj7la/VAGFI/Hectb3kIqleKVV14ZcnX3rmrt41UQLhAIcMkll2SlWnt/wuEwhmEM6wMI7YMuMr4U0EVEZHJzPXj5dfjmr+Gxl3puL4jBW06BWz8FsSxM9/R9/IYteCvvxHnxF5BsBsOcvFO5rSDmlIUEL/4q5sxT1Q9l0GKxGJdddhnAkKq750q19htvvDEr1dr7U1xcPOyAHgqFBl0fQESyTwFdREQmr1QanlkNt/wUXt3Sc3tZEbz3Uvjna7ITzgF/18vwyC2Y6x8iiI9nWvimiW9aeKaBb9n4xiQZtbLDWHPPJ3DmpzArFwOaTitDM9Tq7odjtfaB2me409RN01QVeJFxpN8+ERGZnDqT8OenMgXhNmzvuX1GeaZS+9svguL8rJzKf+1P8Og3MLY/D2TiqMn+qbkGmYBuWriWhRew8azDeA9iO4x9zLXYp38Us3R+ZhaByDB0VXcPhUIsX768z5CeC9XaL7/8cpYuXUpZWdmYnK+goADTNLO+LZ2IjD4FdBERmXw6EvDbh+EHv4ddNZk16ABTiuC/3weXnZm1kXPv6Vsxnv4BRv22Qx/gg+n64DqYjgOpNK6dxA0GcA/DgmmBMz6JfeJ7MeLl6ocyYtFolHPPPRfgkCH9cK7WPlC7DIdpmgPuTS8io0sBXUREJhffh9sfgK/cDsl0z+3F+fCrL8JJR8MIKyADkOrAf+o7GE9+F6OjaVAPMXzA97BTHlbawQ2kccJhPHPiv10bwTiBC27GPuE9cDjPEJAxl5eXx3nnnYfjOL2qu7uuO+7V2q+55ppRq9ben64R9KEyTXPY4V5EskMBXUREJo/WdvjWr+G2+3pus63MtPa7vwpHzOi53XfATYGXAi8JTge0bYeW9dC6NXN70yuQbut9DsOAUBm0tGBseBpCgLv/ywe8/f8dgOGDnXKwnHbS4RBuIDgx16gbJkZ8KsHLb8Waf5H2N5dR8ebq7l3T2se7WvuNN9445uEc0BpykQlMv70iInL48zzYVg3f+DX8/tGe20MBOGcJfOvjMGMqpFuhcy8ka6B1MzS9Ds3roenVzPdDdeDObEkgAbQBnUBq/9cAYd3wfIKdCRzXJR0K45tWjjf2AawAZsXxBM79DNbssxTOZVR1VXdvbm7miSeeGPdq7UuXLh31au19KS8vH9YIumEYBINBdSaRcaSALiIihzfPg1Ub4Ft3wuMv99yeH4PLToePXArhLfDGn6F5EzSugqbXIHHA2vRsCO3/KiAzmt5JJqy3Ae1kRtb74oOdTGN4HulQCM+eAH9AWwGsOedjn/kJrOknwUT6YEEmrM7OTpqbm8ctnB9Yrb28fHzrLESjUTo7O4f0GNM0KSwsVEcSGUcK6CIicvhKO7DsFfjuXfD8a5nvAfKCcP1MuLgRmr4J29ZB63pId47NdVlAfP9X16h6EwMGdSvtYnidpMM+biC3C8jZi9+Nfco/YZYdqX4oY6Kmpoa7776bxx57bNyuYayrtfenpKSE+vr6IT3GMAwsSx+miYwnBXQRETl8vbAWPnMbbNoNrgshF46sg0sSUPkK1LdnprX73vhdY5jMyHo+0ArUkAntfTBdn0AiCRi4gdwbSTcCUexTP4J96ocxoiXqgzIm6uvrueeee/j73/9OMpkcl2sYj2rt/YlEIjlxHSIyNAroIiJyeLr/cfivH0JdE4TTcOpOOLMaCtNg+4CfWQOeCwwgCBQDecB2MqPqfTBdDzuZxLfMnKrwbgSiBC7/LvbCt4GldawyNtrb27nnnnt44IEHxm3f7/Gq1t6fiooK1qxZM6THWJZFcXGxOpXIOFJAFxGRw0tHAv78FHzs61CQgIur4fTdUODk/rV3BfX5QDVQS2a9+iFYjoufTJEOm+Nf3d0wMYrmEDz/81gLLtU2ajJmOjs7+c1vfsN99903Lufvqta+dOnSnArnXdc25F9lwyAUyu3lMyKHOwV0ERE5fNQ2wp33wX13wnm7M6PmpemJ+Vqmkgnr1UAfL8FOpfAsEycYHr/rNC3MiiUEzvpUZhu1w2DPdpkYGhsbueeee/j9738/Luc/sFp7Lo46T58+XZ1EZALSu6iIiEx8vg+7d8GDd8CWe+GqTVCRmNivyQCKyGzDto9DT8f3wU4m8Swbzxqft3Rr/iUETvs3zJmnqh/KmKmtreXuu+/mj3/847ic3zTNnKnW3pfhjIQbhkE4HM7J1yMyWSigi4jIxLfnNXj0K5B4FI5v3L/G/DBgkgnpAHs55Ei66frYyQSp6BhPr7XD2MdcS+CsT2EUz1EflDHTVa394YcfHrdruOKKK3KmWntfSkqGXqTRsizy8/PVyUTGkQK6iIhMXE4HrPw/2PlTcLdA8QSdzt4fi0zxuCSZNemH+OzBTjs4bhpvrNZ+22EC53wGe8lSjFjuBhQ5/DQ0NHDPPffw8MMPk0iMzyyZ6667jne/+905H2SDweEVajRNM6dfl8jhTgFdREQmpoaVsPwjmf/6aTic65KZQCXQwaGru/sQSCRIxka/EYxoGYHzPod93A0Q0DZOMnZypVr7e9/73pwrCNeXqqoqdu7cqc4jMoEooIuIyMThe5Coga13wdpvQee+yfPaDWAGsIFDVnY3HQ9zNEfRDQOjcBaBsz6Nveh6VWqXMdVVrf3ee+8dl/MHg0EuvvjinKzW3h/bHtqf+rm6nl5kMlFAFxGRicFLw97H4PVbofpR8LzJ1wYhMiPpuzhoqrvh+1ipFF5kdIKzWXkCgTM/mdlGTWQMqVr78JWXl7N169YhvVYRGV8K6CIikvvad8C238DrP4aOXZO7LQqBJqD14LtMx8Pwvezui24FsWadReD8z2NWLlZflDGVC9XaL7roIpYuXTohR5cjES1DEZloFNBFRCR3eWnY+yRs/DHsegA8d9I3CRZQCrQDb5pEYPoepuvg2sEsnSuIfeL7sE/8IGbpPLW9jKmhVGs3TZNQKIRpmqTTaVKpVFauYSJUa+/PUCu5q4K7yPhTQBcRkdzktGXWmr/+fWjeCL7COZBZix4BohxcMM73MVw3K+/uRqQI++R/xj7xfRjxKWp3GXPPPvvsoKq1BwIBSkpKCAQCGIaB53l0dnbS0NCA7w9/y8WJUq29P0MdQS8oKFDHExlnCugiIpJ70i3w6pdhw/+DdJJD7i02mQWBAg4K6Iaf2Rc9017GsJ/eiBRhn/kp7JM+gKFK7TJO2traBrWVWmlpKeFwuPt7y7IIBAK4rktTU9Owzj3RqrX3paqqakjHa4s1kfGngC4iIrnD96BzDyz7AOx5RO3Rl65R9BCZ/dEPvMt3MTwP37SG99QFVQTO/k/s429UO0vOCwaDvcL5geLxOK2trUPakm2iVmvv8/fZMDBNE2+QRTWHWvVdRLJPH5OJiEhucDuh+hF45GyF88EIAYfIJYbnYQynwr1pY5YfQ/DK2xTOJScUFxcPGJJNq58Pogyj//vf/CsVCnUXhJto1dr7bB/THNIU/crKSnU8kfH+vVUTiIjIuEvUwubbYfn7oGWr2mMwAmRC+ptmsht+Zsu1ITEDWAsuI3j597DmnKO2lZxw+umnc+WVVxKNRvs8pr/Rcd/z8AY5et5Vrf3GG288rPYCN03zsJgJIDKZKKCLiMj4StTA+h/Ami9B+161x2AZZArFvXlG6hDDuRHKw15yI8Hz/wdz2vFqV8kZxcXFXHfddVxzzTV9HuOk03R0dBzyvvb29kFPb7/iiit473vfy9SpUw+rNjRNU4XfRCYYLTQREZHxk2yAlz8DO/4I6Wa1x1CFyGy7lu65aUgj6KF8rBPeT+C0D2PEpoBhHI6tJBNYUVER73jHOwgGg9x+++0H3e/7Pg0NDbiuSywWwzRNXNelubmZ1tbWQZ3juuuu4z3veQ95eXmHXfsZhkEoFBr08YfbBxQiE5ECuoiIjJ8V/wLb78sUh5OhC5IJ6G82mHweiBA4698JnPavMMyCciJjIRaLsXTpUoBDhvR0Ok1dXR319fU9vwKD/JDqbW9722FRrb0vlmUNaS/0YDCoDicyzhTQRURkbPk+tG2GZ98DtcvVHiNhc+iA3h/DxIgWE7z0O1hHX6k2lAnBNE2uvfZa0uk099577yG3XxvKnueHW7X2Pn/dhziCLiLjTwFdRETGju9B4yp48eNQ+7zaIxu6CsUNJpsYFub0kwic/WmseReo7WRCiUajXHPNNbiuywMPPEBbW9vwfmVCIS688EKWLl06pNHlicgwDGKx2KDbV0TGn4rEiYjI2PA9qH8RVn4GalcwuEQpAxrsR+2BKNYRFxO85GtYc89Tu8mEVFhYyLXXXstpp502rD27DcM4LKu198U0zUGvrZ8yZYo6mEgu/N6qCUREZNT5PjSuhtX/DXufAc9Rm2RLgIO2Wjv4mBj2wmsJXHgzZsUiMPT2LxNXcXExp512GjNmzBjyY6+66qrDslp7f4LBoLZaE5lANMVdRERGX9sWePGjUPuCwnm2DRTO7RCBEz+AfcZHMaIlqtQuh4Xy8nKqqqpIpVLs2rVrUI+ZOnUq119/PaWlpZOqrSzLIhQKDXtJgIiMLQV0EREZXalmePIKaFyPprWPveAl38Q+/kaNmsthpaSkhHA4TGVlJcCAIb28vJxp06bR3Nzc/ZjJIhAIEIlEBjxu9uzZ6lgiOUDv1iIiMnqS9fD8P0Hj6yicjw3fBN8yMYtmE7zmF9gnvEfhXA47xcXFBAIBIBO+KysrMc2D+7lpmpSVlVFZWYllWWzfvn3StVUgEBh0oTgRGX96xxYRkdHRWQ0v/Xtmn3MZO4aFOfU4Ald8H/uYq9UeclgKBALk5+cDmSnc5eXllJeXY1k9+w6apklJSQmVlZXdYX79+vU4zuRaZmPb9qBG0EUkR35n1QQiIpJ1iVp4/fuw4/5M9XYZG4YBVcdjX/JVjJmnaeRcDmsVFRVs2rQJyAT2qVOnEgqFSKVSQCa4FxcX99oHfN++faxfv55jjjlm0rRTIBAY1BZqhYWF6lQiOUABXUREssvthG2/g023Q7pV7TFWDBN/7ulw5Xcxpi0BU2/xcngrKyvr9X0gEBhwqzDP83j88ccJh8PMmzdvUrTTYEfQi4qK1KlEcoA+WhcRkezx0rDzT/DaVzKj6DL6UoAP3qKrMZbehVF1ksK5TArD3ce8urqahx56iNdffx3PO/xn+Ay2SJyI5Aa9g4uISPa0boZVn4OOfWqLMeK74J/8XswbbteUdplUhruXued57N69m7vuuos5c+awcOFCpkyZQklJSfe69sNNIBDAsixc11XHEclxCugiIpIdyXpY9gFo3aa2GEtn/yfmKbconMukEw6Hicfjw97fO51Os2HDBjZs2NDr9oKCAvLz8ykpKSEajRKLxSguLiYWi1FQUNAddg3DwLZtLMvCNE1M08S2c/NP61gsRjQapbW172VHs2bNUqcSyQEK6CIiMnKpJnjxk1C7TG0xlswAxrxLwQ6rLWRSmjFjBuvWrcvqczY3N9Pc3MzOnTsPeX80GiUvL49AIEBJSQmRSIR4PE4oFKK4uBjTNIlEIliWRTAYxDRNYrEYpmkSCoUOuR3caAsEAt2V7A8lVz9YEJmM9NsoIiIj46Vh4w9h291qi7EWLgVba0tl8qqsrMx6QB9IR0cHHR0dAOzateug+23b7g7w0WgUy7IoKirCsizi8Xj3vuRdVeYNwyAajRIIBMjLyxuVsFxWVkZJSQkNDQ2HvL+qqmpcPjgQkYMpoIuIyMjsegA2/Bi8ybW3cE6Iz4NAodpBJq3KysqcuybHcWhsbOzz/q6RdMuyeo2sW5bVPfJeWFhIKBQiHo8TjUYpKioiGAx2fz9UhYWFLFmyhL179x40zT0ajXLKKadoFF0kR+g3UUREhq95HWz4P+ioVluMh9h0CMTVDjJpVVVVTbhr9jyPzs5OgD7Xz9u2jWmaWJaFZVm9vrdtm/z8fPLy8igsLCQejxOJRCgtLSUejx9yP3PLsli0aBG2bfPcc8+xfft2bNumqqqK0047jQULFmAYhjqUSA5QQBcRkeFJt8Ibv4DqR9UW4yV/AQSL1Q4yaeXl5REKhUgmk4fV63Kc/mckVVf3/aGoYRjE43FKS0s5/fTTWbRoEZBZh37cccdx3HHH4ft+97EiklsU0EVEZOh8D/Y9CVt+rbYYL3YYYpVgqUCcTF6GYVBRUcG2bdvUGPv5vk9rayutra3s2LGDTZs2cfnllxMMBnu1m4jkJlWDEBGRoWvfBq99CxJ1aovxEpsN8blqB5n0pkyZokbog+u6vP7662NeSE9Ehk8BXUREhm79D6DmGbXDeIrPhPgstYNMemVlZWqEfrS1tbF37141hMgEoYAuIiJDs+OP8MbtaofxZNqQPw+iuVfBWmSsTZ06VY3QD8/zSKfTagiRCUIBXUREBi9RB6s/kykQJ+MnWAiFi8AMqS1k0svPz9cWYf2wbZtwWLUqRCYKBXQRERm8td+A5q1qh/EWLofSU9QOIkAwGKS4WLsZ9KWgoICZM2eqIUQmCAV0EREZnLrnYcefwHfUFuPJMKFgHhQtUluIkNk+rLS0VA1xAMuyCAaDlJSUcNZZZ3HEEUeoUUQmCM0HEhGRgaVb4I2fZKq3y/gyQ1B5udpBZD/btikoKDg8f91Nk1AohGVZAEQiEUwzM74WDAYJBAIYhoFhGITD4e7j4vE40WiUI444ghkzZqiTiEwgCugiItI/34O9j0H1k+Bp9HzcRUqg8mK1g8h+gUCAkpKSnL/OWCzWvRd5KBQiGo1iGAamaRKNRgkEAgCEw2Gi0SiQGQmPRqPdwTsvL6/7uFAoRDgc7g7oeXl53ceJyMSlgC4iIv1L7IPt90P7drVFLph6IcSq1A4i+1mWRX5+PpZl4bruqJ8vGo2Sl5cHZEbv8/Pzu4N3PB4nFosBmRHuvLy87gJ2XSPeXY8LBoPd4frAUfJAIND9fCIy+Sigi4hI33wfGlfD7gcy/5bxd9Sn1AYiBzAMg1gsRjwep7m5edCPs22b4uJiQqHMbgjxeJyioiIgE8KLioowTRPLsigqKiISiQB039Z1bsuyMAwDyHxY0Nd9IiKDoYAuIiJ9c1phy12QbMnq03ZlfZ9D/eG6/1YD9Gftm5SdCkXHqh1E3mT69OmcfvrpbNy4kXA4zLRp04BMYC4uLiYejwOZ4K1900Uklxm+ryERERHpQ81z8Oi54Ixs7XnKNWhNBWjqtNndEmRdXQGNHSF2NscOOjYacJlZ1EplXgdzizooj6eJBR3iQQdzMid204Kzfw8zrlG/FBEROUxpBF1ERPr2+ndHFM6bEjbbGuNsqI+wZm8xr+0rpDUVGPBxL1dn9jS2TZ8ZBW0cWdrMcVObmVvcwcyCdgKTsQ5SyfEw9Tz1SRERkcOYRtBFROTQGl+Bh0+HdPuQH9qStHh5TxEv7i5iTXUxe9oiI76coOUxv6SFk6fVc1pVPbOLOrDNSfKzME046TaY/yEwA5PkRYuIiEw+GkEXEZFDW/eNIYdzz4c36qPcv66KldVFNHSG8PzBz0sPh8M4joNziFH7lGuytqaQTQ15rNhVwjmzarjsiH3Egm7ON+WIFS2BKWconIuIiBzmFNBFRORgzetg18NDftgjm0v5zZo57GuL4HiDD+a2bVNRWUnx/grKu3fvpq6u7pDHJh2L12sL2dYU58XdpXz0lHXMKDyM92c3TZhxJeQfoX4pIiJymJsskwNFRGQotv8B0q2DPtzzDb67bC7feOYYdrdEhxTOAfLz8ynZv91RKBRi2rRp3XsHH4oPdKRtXtpTzL/+9VRero5z2K7XKjoeKi4BK3K4vkIRERHZTwFdRER6S9TBjj+Blx7wUN+H6tYg//3oQh7cWJXVy+gvoB+oLWXzlScX8cTWEpLuYfa2ZoWg4hwoXqx+KSIiMgkooIuISG97/wGdewY8zPdhR3OYn740l5f3FDOSkqOJRIKOjg48z8NxHJqbm0kmk4N+fFMiyC9ensvT24pJOIfLW5sBBQtg1lIwg+qXIiIik4DWoIuISA83mdn7PFk/4KENnQHuWzud5TvLSHuZUGwYBpFIhFAoRGdnJ8lkksFsFtLZ2cnu3btpbm7G8zwaGxsZ6iYje1qj3LlmNrbpc+aMBgLWBJ/0bgZg1tuheIn6pYiIyCShgC4iIj3at0PT+gGntyddk0c2T+HJbeW9ppXn5eVRVVWFbdukUil27NhBe/vAleB936e9vX1Qx/ZnZ3OMO9fMZnp+B/NLOif2z6J4Mcz7oPqkiIjIJKIp7iIi0qNxFTS/NuBh62vD3PXKbNpSvbf9Ki0tJRaLEQqFyMvLo7CwEMMwRuVSg8EgU6ZMoaCgoNft25ri3P7y3In/s1j0BQhPUZ8UERGZRBTQRUQkw+2ExrXQua/fwzzf4HvLFtKeOngSlmn2flvpb5q6YRgYhoFpmoRCIQKBQPdtA4lGo8yfP59Zs2Zx5JFHUlVVdcA54fndpdy3burE/VnMfidMv1x9UkREZJLRFHcREcno3Av1L/d7iOfDr9dMZ1tz7JD379u3j3A4jG3bJBKJg9aSm6aJbdtEIhEikQjBYBDLsno9RzqdJpFI0N7eTjqdxnXdg4J+fn4+kUjPtmNFRUVUV1fjOD37od+xcj6nTW9gWn5qYv0c4tNgyVfUH0VERCYhBXQREclI1EDzq/0esr05zJ/Wzejz/tbWVt544w3C4TCJRKJXJfZgMEgsFiMWixEIBPp8jkAgQCAQIB6Pk0wmaW1t7a7w3sXzPDzP6x6xdxznoBDfkbb49epZ/PsZGwlaE+RnEIjDws9CdLr6o4iIyCSkgC4iIuC70PIGdOzu97C/v1FBW6r/t45kMnnQFmnRaJSCggJCodCg16QbhkE4HCYQCBAKhWhqasJ1XQCam5sJh8MUFBSQTqfZt29f930HWr23mC2NURaUduT+z8AwYNpbYfqV2lZNRERkklJAFxERcBNQtwIOGKV+s+q2IKv3FuH6Qyv6FovFKCoq6nfUvD+WZZGXl0cgEKCurg7HcUgmk1RXV1NfX4/run3umd6SDPD8zjIWlG7P/Z9B/gKY936IVqo/ioiITFIqEiciIuCloPGVfg9ZV5NPbXtoSE8biUQoKSkZdjjv0rW/enFxcfcIfDqdpr29nUQi0WcxuqRj8eq+fKrbcnxEOlgAc98LU88HY6LMxxcREZFsU0AXEZFMBff65X3e7QOv1RTRnBh80LUsi6KiooOKwI1EJBIhPz9/0Mf7QE17mF3N0RxufANKl8CCj2lqu4iIyCSngC4iIpmt1Zx0n3fvbQ2yqzk0pOnt8Xh8xCPnb2aaJrFYjGBw8EG2pj3C1sY4fq62fXwWHP9dsCPqhyIiIpOcArqIiGTWn/djX3uYus7woJ+uayu1N++Lng2BQKDXFmsDSbkmtR0Bko5BzgnmwwnfgOIl6oMiIiKigC4iIkDja/3e3dwZojUx+NHwUCg0pFHuoTBNk1AohG0Pvs7p3rYwzYkAOcW04KhPwMzr1f9EREQEUEAXERGAlg393t2YCNKc7B24TdMkGAweNEpuGAaBQCCra8/fLBgMHvT8hmEc8naA9pRN0s2x4mvz3gdH/pv6noiIiHTTNmsiIgJOa793pz0Dx+uZIh4MBpk9ezaRSIT29na2b99OKpUCMkHZskf37cW27V5B3LIspk6dSmlpKb7vs337dpqbm7vvb06E6Ejl0Fte5VvgqE9BuFR9T0RERLppBF1ERKB2xZAOLysro6CggGAwSFFRESUlJd3bn5mmiW2N7mi1YRjd54PMuvSKigpCoRDhcJjZc+b0Or4zbZFyc+Qtr+AoWPgfmf+Sg+viRUREZNwooIuIyJC9uUjbgevN3xyex8KbzznaHxAMv+HK4aiPQsWF6kQiIiJyEAV0EZHJzmkf8kPq6upIJpN4nkdnZyeNjY34fmYjM9/3u/89Zi/BdWluacF1XRzHoaamJvfa2Q7BkR+GeR9QnxMREZFD0hp0EZHJrnXLkB/S0tLCjh07CAQCJBIJ2trauu/zPA/HcUb1kl3XxfO87u+ddJqdO3YQj8fxPK/X+nOAvFCaSMAdvza2LFj4aVjwcTCDiIiIiByKArqIyGTntAx4SDzoEA04dKQzbxue59HY2HjIY7sCuu/7ozbV/c0B3fd9Ojs76ezsPOTxsWCakD2OAX3eB+Hoz0AgT/1NRERE+qQp7iIiMqCo7RIZQsBNp9O47ugF4mQyOaRR+sJwimhgdEf1+zT/Q7DoFoVzERERGZACuojIZFd47ICHTIl3UhJLDPopk6kUqXR6VC7X8zxSqdSQPgAoiyXJC45xQDcsmPseWHxzpjiciIiIyAAU0EVEJrtA/oCHlEaTFIVTg35K13HoaG8flVH0ZDLZ51T2Q4kHHabnJwnZY1i4zgrBrBvguC9CpFJ9TERERAZFAV1ERMDs/+2gOJJmZkEnAcsb9FO2t7eTSCSyepmu69La2kp6CKPzZbFOZhS0jV1bGhbMuBYW3wLxOepbIiIiMmgK6CIiAvGZ/d5tmbBoahOFQxhF9zyPpqamrIb0lpYWOjo6Bn28YcD0/ARzijsYM3OWwpKvQN489SsREREZEgV0ERGB2OwBDzm6rJmyWHJIT5tKpairqxtxSPd9n5aWFlpaWoa0x3rEdjiqrJm84BhVcJ//ITj+6xCfjYiIiMhQKaCLiAgUHDPgIYURlwvnVGOb3pCeOp1OU1tbS3t7+7AuzXEc6urqaGho6N5azTAM8vPzmTp1Knl5fVdHL4qkuGDO3rFpw/kfgsVfhkiF+pOIiIgMi/ZBFxERKDlhwEMM4JL5e7l37UyqWyOHPCYejzN37lyCwSB1dXXs2rWLdDqN4zjU1tbS2dlJQUEBtm33u0e67/v4vk8ikaCxsZFUqvfU+rKyMqqqqrAsC4ANGzbQ3Nx80PNcPG8PU2KjXL3dA78O/JJ8TDOqviQiIiLDphF0ERGBouPAHPgz24gN71m8mUAfo+jTp08nFAphGAZlZWXE4/Hu+3zfp7W1lT179lBXV0d7ezvJZJJUOt3zlUqRTCZpampi79691NTUHBTOA4EA8Xi8O5wDFBcXH3Qt5fFOrjxy9+i2mwPUgLEXjCdvxV9zn/qSiIiIDJtG0EVEBGKVkDcHmjcOeOh5s+t4dnstz+3of29v3/cPOUrueR5tbW20tbVhmmavoO37Po7T/4i353mk0+lez59M9l4bH7Zd/vXkDRSER3FrtSRQC9QBPhh4+H/6GH5BJcaRF6tPiYiIyJBpBF1ERMCKQPl5gzo0ZMG7j9vOnKLWg+6rq6sjlUrhed6gKq53he2ur4HCOWS2Wquvr6empobm5mZqamqoq6vrdcylR+zk1OlNo9deHcAuusN5F6OzDe/PH8Nv3KY+JSIiIkNm+EMphysiIocn34Odf4SnbwBv4Irnrmfw5LYybnt+Ps3JQPftpmkSjUYxTbN7uvpovc3Yto1lWbiu2yvYnzGjhn89eRMVealRaCegCaghE9Lf3C62QTqWj7n4XQTe8iWMaKn6loiIiAyaRtBFRAQME/LmQ+GxgzrcMn3OmFHL9cdsJ2z3BPqu6estLS0kEokhhfPCwkLmzJnD7NmzCYfDAx7vOA7JZLJXOJ9d1MrbF+5ianwUwrlLJpjv5tDhPGCSisbxDAN3/UM4L/0a3FG4DhERETlsKaCLiEhG3hyY9tZMWB+EsO1z+RF7OG92NUHLG9Gp8/PzqaqqorS0lLKyMubNm9drbfpADGBGQTv/fOIWFk1toZ8C8cOTIhPMq4H0wXc7QZtUJIZvZq7ZTzbjvHwH7vq/ZWYniIiIiAyCArqIiGTYcSg/B+JzBv2QgrDHh07YwnVHbycWHP52ZoFAANvuqVtq2zbBYHDQj59f0sKHTtjMKdMbs9smHtAGbAPq6bXeHMA3DNLBAOlwpDucd9/Xsov08v+Ht2eVQrqIiIgMigK6iIj0KD0FSk9lKG8PRRGP9y7Zzo2LtjOjoH1Yp02lUr22U0skEqTT6QEfZ5s+p1fV8InTN3DmzIbstkVXlfZtwCFelm+AEwriRA4O51283S+RXv4j/LYa9S0REREZkIrEiYhIbzsfhBUfgY6dQ37oi7sLeXDDVFbsLiPpDH6KummaFBQUkJeXh+/7NDY20tbW1u9jyuMJLpm3h8uP3ENp1Mne6+8aNa8Hmjlo1BzAswycUAgnGCIzwb6/FxfAPumDBC78Hww7jIiIiEhfFNBFRKQ3N4n/97dh1D3MIdNpPzwf6juCLNtZwp9en8aO5hieP/gF4V3rzl2370ry8aDDGTP2cdHcGhZOaSVsZ3H6eFchuAYya80P8fLdgEU6FMazbQYM512CMYLnfg77tI+of4mIiEifFNBFROQgfs0rGH87HYzhTVl3PIPGhMVjW8r48+sz2NsWycp1nVFVww3HbmdecYKw7Wa3GFw7PRXa+3hndIL2IdebD4YRLiR49Y+xjrxEHUxEREQOSQFdREQOybv7SszOv4A98ud6ZnsBT2yt4JV9RXSkLVzPxPMNPJ+DRtht0wd8bNPHMn0q4p0sqWjguqO3MyWe5WJrPuAA+8isN+/rMMPACQdIhyIMetT8EIzS+YSuuwNzytFkv9S8iIiITHQK6CIickh+Wy387FiM/H0QyM5ztqUM3qiPsbkhj5q2KPvawzQlej/5/OJWgrbHkWVNzCpopyIvTdDK8luVT2YKezNQByT6PtSzLNLhAG4gC+vHDQtr/sUEL/4qRtFMhXQRERHpRQFdRET65C/7ETz9cYwpTlZG0nNCGmgBGslMa+9jUN43DdyATToUHtaU9j4FYtgn3ETgrE9iREvUyURERKSbtlkTEZE+GccvhZnXwl4y245NZGkyldl3kVlr3kqf4dyzLdKR8LDXm/d/He24r96Lu/bP4KbUyURERKSbArqIiPQtlAcnfgjfmw57mJghPU1mjfk2Mq+hiUy19kPwDUiHA6QiEZxAEN8YnbdJv72G9DPfxt3xgvqYiIiIdFNAFxGRvhkmxoxTYPG7MtPCt5Gpcj4RuEA18AaZGQBtZArC9cGzDZLxGOlwFM8awhZqw+S3VpP604fxk63qZyIiIgIooIuIyEBCcZh9AX7hEZlwvoHMiLTLULdJH13+/mtqB3YAr9AzNb+f4u++YZCKBEnEC/CsAKMdzHudu2U3yd9cD+lO9TMRERFRQBcRkYEZC98C0y4EZ/967GpgE9BAJgCPV1DvqsbeTqYa+1YyI+b1g3ioaeCEAiTzYjih6Li1rbfnZVKP3qKRdBERETlsavKKiMhoqz8Cv70Io6AuE4w7yBRciwEFQASIMvof/XpAiswHA4n91zHA9PVeD7cMPDuAE7Dx7LEdMT/0BTm4a/+AWXoE9pJ3gR1GREREJicFdBERGRSjdA7+9iPwFzZgWPvnjHtkqqG3AyEyIT1MJqhHyM67TFcgT9ATyrsCusOgR+8908ANBnBtOzOVPYf2IPfb63BW/AijYDrW/AvB0AQ3ERGRyUgBXUREBmdKEUZNJV5xKcb0mt73eUDn/i+LzLuLRSa0B8mE9uAB9wXe9NwumanqXVPW0/SE8NT+53f2H+cN7bJ9E5xgADcQxDPtnArmvZqwYSvpp7+NUTgDc8oC9TcREZFJSAFdREQGp6ocwlHMJ4/Cf1cthtnH0LVLzzZmXbXPjD7+28U/xL99RrS23TfBCQVwAhF80yCbU9lTfpDH0icz1axngb2VCImRP6nv4e15mfSz3yd42bcwQnH1ORERkUlGAV1ERAZnRgXEIuBYeCuOhTNfx/QcDL+fFO2/6b+jzDcMPMvACQVxA9lfy+1gs92t4K/pM2n08gji0OzHODuwEnOoQ/uHfAEe7qv34JQdQeCMj4Kpt2kREZHJRIvcRERkcArjUJwPhoG5tQh3ZxXpaAQ3YO8foR4Hxv615bZFOhwgGY+SjOdlPZx7GDR4BTyTXsIfU+fRTpiqyG4sy2GtO5fNbhVeFt9SnWe+g/P6g+C56nciIiKTiAK6iIgM3okLwDIx0hb2xgo8fwqpaJRUJIwTCuLZJv4oZ3XfBM82cYIB0uEQqWiEZCxGOhwblX3MHWzecGfy9/RpLEsvIhpo56ySF7ix6n5OKVpJg5/HS87RNPvZm5Lup9tJP/J53K3PqM+JiIhMIpo7JyIig3fUbLBMcFzMmjDWtimkj+7ENUzcgI/pOpiuh+G5mI6D6XkYI5n5bYBvgGea+JaFZ2ZG633TzHyNcrXzJi+fFc5CNrozaTUiHJm3iZOLXmFefAe24XJy0Rr2JKaytW0GrznzODXwCoHB7vc2AL+1mvTT38SIFmNWLFLfExERmQQU0EVEZPAWzAJzfyju8LE4Drcwile3GjDwrACeRWZdetDL/Ncns1bdczNfgOEevCjdNw18g0zoNi0808r828isLccwRj2Qd3Gx2OTOYFl6EXu8UgJWmnNLnuekwlfJs9sxjcz1FwXaObnoFfYly1jhHMMsq5oqszo7F+F7eLtfJr3s/xG88H8wCqar/4mIiBzmFNBFRGTwjpyZGUHfz+zIx8o/Hb9tG36iqfv2TKC2umvDedj0qhTn956I7sObZqaP31ZoHX6EZenjWOUeSacfoijQxPXTHmBmtBbL6L0m3DQ8FsQ3sS1/KssaTubh1Ol8KPyH7F2Mm8Lb8FecKUdin/JhjGBMfVBEROQwpjXoIiIyeKYJ5x7f8311A3blJZjTjh/E/uJGz5dh4B/wlXnsgV9jz8VipzuVe5MXssw5Fs+AM0pe5ONzf8ac2N6DwnmXgOlxWvEaZkR2U+2V8Fj6lKwWjPPTHTgv/AJv69MqGiciInKYU0AXEZGhOfnonn/v2ofRmMI+5SMYofwJ+XJ8DBr9fFakj+We1MXsoZSZ0V1cN+1B3lr+FGFr4D3iSoPNnFK0mojVyfPpY9jqTsvuNbZVk378q3j71qn/iYiIHMYU0EVEZGjOPbHn3+0J2F6NVXUm1sJrJtxLSfpB1juzeDh1Bv9In4xtpTi16GWuqXyYhXmbsYdQ4W5RwescV7AWF4tnncU0+tn9wMKrWUv6H1/Ab9qpPigiInKYUkAXEZGhOXImFOX1fL9uKzS3Ezjr3zGKZk+Il+Dv39f82fQSHkmfyhvudObHt3BlxSOcX/Y85aFGhrq1u23AeaUrmBquYbdbxsvO0aQIZPW63a1PkX78K/jtdeqHIiIihyEFdBERGZpgAE46YJr7a5uhpQ2jYBqBcz83IV7CFreKP6fO5QXnaJJmgIumPMW1lY+wMG8zESs17OctCLRzVcXfwPRZ68xhm1uZ9Wt31v8FZ8VPwUmqL4qIiBxmFNBFRGTozl7c8+9Nu2BvA/g+1vwLsBZem7OXnfKDPJY6ld8lL2SnV055pJYbq+7jnNKXKAq0DHnU/FBmRGo5v/Q5mv04LztHZX2qO+lOnFW/xnn1fvVDERGRw4wCuoiIDN3px4FtZf7t+fD0SnA9jHAB9uJ3YcSn5tTlOlhUe2XcnbqYZ51FBK0UpxS9zLur7mdebM+Q1poPxDI8FhdsYFZ0JxvdGaxz5uBgZfX1+G37cF76Od7OF8H3EBERkcODArqIiAxdVTkcPavn++dfA9cFw8SsXIx19FVgBcf9Mn0MWvw4LztH87vkRezyyqiK7Oaqike4ouIxCgIdo3LeomAzZ5asoCDQyvPOsez1SrN+Dm/PStLLf4jftINee8yLiIjIhKWALiIiQxcOwvELer5/ZRPUNgFgRIuxj7kGs+zIcb/MLe50HkmdxhPpE7ECDqcWv8w7pz/AcQUbsUdxu3UDmBvbzXH560gaNo+mTqHDD2f9PO7Gh3BW/Aw/0ao+KSIichhQQBcRkaGLhOCUY3q+b2mH5a90f2tWLMI66moYp73R2/woT6VP5OH0abzuzaQispe3lj/JRVOeoyQ4NmE2YiU5segVKsP72OGVs8xZnP2TuGmc1b/BWfUb9UkREZHDgAK6iIgMnWXB/Bkw54Aq5Xf/veffdhh78TsxS+aN+aVtdafxh+QFPJdeRAsxTilaxbWVf2Nh3ibCpjOm1zIl1Mj5pc8SsRKsdI5kozsr6+fwky04z34Xd8PD6pciIiITnAK6iIgMT1khLJjV8/1Tq6GtZ023kV9B4Kx/ByswJpeT9IM8m17C/anz2e5VYFkOS6vu54qpTzIl1IRljH0xNQM4Mm8npxavpNMP8VT6eFr9eNbP43fUk3rwE/vXo4uIiMhEpYAuIiLDU14Mi+aDuf+txPPg78/3OsRacCnW7PNG/VJqvSLuT53PY+mTcAyTRfmv89n5t7Egvh3LcMekOXwMHN/E8S1c3+wu22bgc27pMirD+9jnFfN0eglJP/sF9Pz2GlIPfBS/vVZ9U0REZIKy1QQiIjIsoSAsmAnlRVBdn7ntL0/D1eeC1fP5b+AtX8Lbuwa/bd+oXcrvkhfTSJyK8D7OLHmB4/LfIGD2XdncB1Kejev33v4s7QVw/N5vjSnPxvEDbzrOJv2m2zpdi5Z0HB8D23CYE9tNRTjTLiHT55rKh/jVjut5w61iplnN0fYWTLI4qu/7uDtfJP30dwic+xmMSJH6qIiIyASjgC4iIsN3xAyYWdET0F94HfbUZrZh288sOxL79I+RfuxmcNOjchlJAtiGy6L8dSwuWI9t9A7ndalCNrfPJOllRq4936DdDZJye49kt7sxkm6o120dXoROt3cF9oQbpt2N9Hk9tuFyevHLXDb1ye7bpoXrObPkBR6tOZuVzgLKzQbKzIbsNoTTibv2fsySedhLlkIgoj4qIiIygSigi4jI8M2ZBkfNgpdeB8eFjgS8sLZXQAewF16Nu/6veDuWjcplnGa/yhPO8Wxqn83C/C2Uh+p73b+zs4J/1JxBq9P/+u+wlSDPbu91W9BIMzVU0/v1mA5FgabetxkOQTPNQ/suJGQlmRruPdXcNDyOy1/Pjo5K1rfOZ40zn3OCLxMgu4Xr/PZa0it+jFE6D2v22WBoNZuIiMhEoYAuIiLDFwrCCQvgL89AXTO0d8JTK+Ha83sdZsTLsU/6IKl9r0Iy+9ucHWNvYoc3lc0dVbzUuJALpjxP2Ex1359vtxGxErQ6cY7K28jReRuJ2x3k2clez2MZLrbROzCbhk/Q6D3ybxgeQfNNt+GxvGExACXBBo6MbzroOgsC7ZxS/Ao1qTJWphYwx93DHGtn1tvDb9hC+rEvY77jLoy8qeqnIiIiE4Q+VhcRkZE5+3go27/e2XFhzRvw2pvCqWlhzTkb++irR+US8o02TrZfI0aCFU1L2JPovf56TmwXx+RvJGCm2dE5jSPzNnFU3jaqItW9virDNUwJNfT6Kg02kh9o6/WVZ3cQMtO9vsDj+cYTsAyXEwpeI/6m8A+ZsD8nup1j8taTxuLB1JmjUjAOwKteRfKPH1H/FBERmUAU0EVEZGSqyuHo2WAame/31MHqjeD3XgduREuwjroKo3h09kafYe3leHs9nmfxQPUl3evNIVNJ/ayS55ke2UO7E+OhvW/B8bI3icwHVjcvpMOJELESHF/4ap/HBkyfU4pXMzO6iyY/zmPpU3Cxst8gvo+39QlSf/8COAn1UxERkQlAAV1EREbu0tPB3h8y65rgxdd77YnexZp1OvaCS0eleJmNw0J7MzPNvexLTOFv+87E8Xve5qKWw4Vly4hanWxsm82q5gV4vpGVc7c7IV5tOZKkF+TskuUE+6kgD1AUaOeskheJ2+2sco5gvTMbH4PR4Ky8A2f1PeAk1U9FRERynAK6iIiM3LknQlF+z/drt8CW3QcfF4hgHXs95iiNopcYTZxoryNudPBS03GsbZ3T6/55sZ2cU7qMlBfgpaZjqU6WZuW8WztmUJMsozTYwMlFrwzqMfPjWzmxcA0OFsudY6n1ikfnZ5PqwHnhJ7jbngN/bPaEFxERkeFRQBcRkZErzodrzu35fv02eG1LZk36m5hTFmCf8F4wrVG5lLnWThbZm0h7AZ6qO43qRO8Qflrxahbmb2B3ZwUvNi6izYmO6HxtToT1rXNpceKcWLSKiDW4quy2AWeVvMy82DZqvCJWOgvo9EOj0CI+Xv1mnOd/hFezXn1VREQkhymgi4hIdrz70p5/tyfgpXXQ0n7wcaaNddwNmJUnjspl2Licbq+hwqxnX6KM5xsXkfR6PgwImS7nlLxIcbCJV1oWsKWjYkRT3asTU9jcPoOiQDPH5G8Z0mNjdoJLyh8jYKVZ585mkzsDbzSmuntp3G3P4qz4GX5brfqqiIhIjlJAFxGR7FgwC046quf7h5bDvvpDHmoE44Te9n+jdikRI8F1occx8VnbsoB1rUf0ur8iXMvZJctJuiEe3nceLU7esM6T9Gy2tFfSmC7kuIJ15NttQ36OaeFGLih7mlY/yipnAY1e/ug0ipvEWf0bnFd+B25a/VVERCQHKaCLiEh2GAa88+LMfwFqGjLF4jzv0IcXzyJw1n/2HJ9lxUYjZ9pr6HCivNC4iL2Jku77TMNnQd52FhesozH9/9v77zA77sO+93/PzKnbOxa7ABaFAEGCnZREUdWSLLdrWZZc5HLtuCZxbCv3cVyS2Il8Eyf2L3ac372Kb4p97dixk+vYjixbvlbvokSJnSABondgezv9nJn7xwEBUkTHHuxZ4P16nn2IU2bOd74zw93P+bY+PnbmERrJ1f9KnKv18vTiXfSklri96wiZsH7V+wiDmLt7DrKrey+H41GeaeygRqoldULSoP6ZX6ex/xOQxF6zkiS1GQO6JGnlvOUBGH/ZmO//9lEoVy/69uje7yEcvL1lxbk/tYdt0QmOFsd5anEHlTh97rXuVJEH+nYznJnh8YV7eHrh6iauSwjOtp73sqvnRUay09dczp70Eq/pf5qBzDyP1XZxpDHWsjpJagWqf/uPiU897fUqSVKbMaBLklbOcD+8/bXnHz+5F57df9G3h70bSb3u70KutyXF6QxKvCa1m96gwFfnHuBAYdMrXt/ScYyH+p8mG1b428m3cbI8fMX7LjTSPDr7GrpTy9zWeZSO6NrXGg+ArZ0neLDvGYIo5jO1B1lMulp2mpL5I9Q+8b+TzBzwmpUkqY0Y0CVJK6cjB9/wIHSeXee8UoP//D8v/v5Uhmj7O4i2vLklxQlI2Bid5q7oALV6hk9OvZ5C43z38TCAh/qeZ2vnMRZqPXxi8hGKjcwV7fuZhZ1MVQbZkDvFpvyJ6y5rNqzxmr7n2NJxjFPJIJ+tPUid1sx0D9A4+kVqX/htksI0kiSpPRjQJUkrJwph1zZ4aOf55/7mUTh6+qKbBD3rSd393QR9Ey0pUpYq96X2sjE6w8nyKH9z5u2veL0jKvOt6z5BJqxyoLCZx+fvvuw+q3HA52ceJh+Vub37EN3p4oqUtSdd4K1DXyQXVthd38rj9Ttbd64aNRovfJj6134faiWvXUmS2oABXZK0siZG4eGXhdxSBf7wIxd/fxAR3vYOoolHIGhNi3FfsMRb0k/QSYkn5u/mqYVXzuo+kl3ku8f/mnKc5Yn5uzhcvPQY8K/N3cNstY+e9BK7el645oXRjhWHKDdeufWmjkneOvQoFdI8Ud/JmXiwZacqqSxR/9rv0Tjwaa9bSZLagAFdkrSy0il45B64/WUt4h/5IswsXHSTIJ0n9cAPEfRPtKxYG8LTPJDaS5IEfHr6EU6X+1/x+l3dB7i7Zw+nyiN8de4uluu5C+6nFqf48vwDhEHMQ31P0xVd25Jlc7U8f3Dse/nNA3+P+Vr+fF0Abxn6Gts6DzMd9/Hl+t2Uk2zL6iVZPkPtc/+G+NSzQOL1K0nSKjKgS5JW3l1b4Y7NEJ79NXNyGj7yhUtuEm56mNSu90LQul9Nb0g/xUR0mqnKIJ+feZhi43wID4OEdwx/nuHsNLuXdrJ3edsFl157ZnEHi7VuulMFHup79prLkgurDGdmKdQ7+djkWynHrxz7/q7Rj9GTXmRfYyPPN7bQaOF49PjUU9S++O9ICjNeu5IkrSIDuiRp5Q30NieL6zs7E/lyCT72FVhcvuRmqdf8KOHoPS0rVpo635r+It2U2Lu8lWcXt1N/WQgfyi7yhsHHCUj4/MxrmKr0vWL7QiPHs4s7KTeyvLb/cfLRla97fqo8xJHieipxc5K6fNTgm9d9lnxUZu/yVp5bvI34ZQ3YI9lF3jr0FepByJP1nUzHfS09ZY3df0Ht878FjarXryRJqyT6wAc+8AGrQZK04kYG4JNfhdMzkCQQx7BrK2wZv+gmQbaLYOA24t0fgrjekmJ1BiVSQYMXaltYqneyqeMU3anmJG9hkNCTXmKu2sOB4mZKjQx395xfJm5fYTNPzN9FR6rEd67/OJnwysv4icnX87X5e8iFFdbnmjOn96WXCIMKuxd3stzoZCw3SU+60KyLIKEvvchcrZv95S3EhGyOTou/bugAAEywSURBVBIRt+yUxaefhjBDNPF6r19JklaBAV2S1BqdeTh8Er72QjOgLxWb66S//m5IpS66Wdg3TjJzkPjMcy0rWm+wTIFO9tc2EZCwueMkqbABQCas0ZNa5mhpjMPFTXSnlhjPT1JsZPnK7L0cLE7w8MAT3Nl96Ko+c6HWxWNz91OMc4znzpz7UmAkO8dUZYCDxQnSYZWN+dOkz5WlTkdU5nhpHUdq44yGswyF8607Z0lMMr2XoG8z4fAOr2FJkm4wu7hLklojDODvvfd8GK834NFnYO+RS28XRKTf8gsEncMtK1pnUOK+aA/9LPHl2Qc4VBw5//HARMdp7u3ZQxgk/OWpdzJd7eR0eYSDhc10hGVe23/1Xx480LeHzR3HOVSY4MmFnS/r6l7l7SOP0pUq8OW5BzhcXHduqraAhK2dx7iv7wUIYz5cfTOVJEMrJctnqH/uN4hPPu01LEnSDWYLuiSpdbo6YN9R2H22tXl6AXZuhrtva66ZfhFBugNSOeLDn4ek0ZKi9YRF6qQ4nqzjUGkTD/Q9T/plXdY35E9wqLSBmeoAk9Uh6knA80u384bBr3J71xGi4MJdzRPg+aUJ/vDYd9EZFRnOzhEGCVEQM5ydZM/ybZwsjzKen2Qws0AA5MMyqaDKoeImTpVH2dl9kFzUHAseAMOZaU6UR5msDjGT9HN76ghhC7u6J6VZqCwSjj9IkOs+WwpJktRqBnRJUmvdPgF//LfNFvRGDI0GvOUB6O68+DZhiiDXRzK5l2ThKK1Y/isgoS9cZibu40R9lIVaFzu6Dp0L3lEAY7kz7Fm+jVPldRwtbaArXeBNg48xnJ2/RGQNOFMZ5Mn5u5mt9bIh3xzjHgAdURVI2F/Ywmy1h21dh8lHVaIgoSddZL7Ww8HiBAkJWzqPEQXN486EDfrSS+wvbOZMfZCeoMi6cKZ1sTmJiecOQ5giHLufINW6Zd4kSdJ5BnRJUmsN9sKz+893bT8zCw/uhB2bILhEzM32ABCfeByqyy0pWjao0hmUORSPcaQ8Tl9mjg35qXOvd6dKdERL7C9spU6Ke3ue577evWRf1tLeSAKW6h3Uk5B02DgbxCvM1bo4UNgCxGztPEEqiImCmO5UganKAPsLWwiDOju6jgKQi6p0REWOldfzYmEbPamFV5SlP7NInCTsLdzGfNLNWDhNT1Bo3XmLayTT+wh6NxCO3NnS5e8kSVKTAV2S1Hqjg/Bnn2y2oNfqsLQM73nb+XXSLySMCLqGiaf2kMwcgKQ1Xbp7wwIEAQcaG5ir9bEhf5re9PkvBIYzc8QkxEnEwwNPMpp7Zcv1Qr2bz888xAtLt7G18wTpsE4mrJGPyhwvr+dwcROD6blzM7fnU2VyUZmjpXEOFzaxLjvFcHauWZb0MvU44mBxglPlUTblT7yiLKPZKSYrQxyrrCchYkM4SSaot+681YrEky8Qjd9P0LvB61iSpBYzoEuSWq8jDy8cgv3Hm49PTMHbHoKxS08EF2Q6CfL9xAc/C9WllhQtIGFdOMvxxign6yNU44itnUdIhy91dU8Yz5/hju6DrMvNnut2/pJynOWphTvZvbSTbFhhS+cJAqAnXaAaZzhc3MjR0hj39j5LNowJgP7MEou1Lo6WNnCkNM5dPS+Qi+qEAYxmZzhWWs+J0ijFOMvt3QdInf3MVBizIX+G55Z2cLoxRH+wxEg429oR4uU54uOPE932DoJ8n9eyJEktZECXJLVeNt3szv7hzzcfN2I4ehre985LbxcEhP0TxFMvkpx+pmXFi4jZHh3jq/VdzNb66EsvM56fPPd6KojJRVXC4NVj4fNRlUaS4nBxAy8sbeeunmfpSjXfuy57hhPlUY6XxpisDnN/7wtAc731iY4jvLi8lanKMMVGB7vOrreeChts7TzAY/P3M1frIxfWmOg4de7zcmGFfLTMM0u7WEh6mAhP0xmUWnr6kuI0ycxBop3fShC1dhZ5SZJuZQZ0SVLrBQGkInjhMBw703zuyGl491tgqO9yGxNteC2Np/4Yaq0LoumgQVdQZm99M4v1zuZa5enCK1qnK3HIV2bv4Uyln9HcDOHZF0eyk8xU+zhdGeFwcYL7eveQChukw+aY8/2FzZwuj9AZLTOWnyIAUgFsyB/j6cVdzNT6yUcl1uemCYKEXNQgHxbZs7SdpXoX63KT9KaXCc5WZXeqxHK9g4OVjaSChE3RaaIWzuoOkCyegHqFaNNrIUp7TUuS1AIGdEnSjdHdCQvL8Nju5jh0gKUifNPDEEWX3DTIdBDkB2js/3jLxqIHQHdQYD7p4UB1E1FQY0vnSVLB+WXeio0sn55+hMfmH2R97hQj2XmgueT7SHaGg4VNnK4MkwCbO04QBQkDmUUaCRwobGa21sumjuP0pIrNKkmVSQcV9izdxlK9i7H8aXrOfimwLjvLdLWXQ8VNBEHMpvxpMmcnp8tGNbpTy5wsj7CvOsG6cJbhcL615y+uk8wdIegYIhzeCWHKa1qSpBVmQJck3RhRCJk0PP4CnJppPjc5Bw/dCZtGL7t5MLyD5NTTJLMHWlbEdNCgKyxxKh7mSGUDI5kZ1uVmXvZ6nWKc41BhgqOlcbZ1HqUr1WzV74gqdEQFnl/awUytn5HsNMNnA/yG/Emmq/0cLk5Qj9Ns6jhFNqwBMJydZrraz4HiZsKXBfEwiOlLz3OktIGjxQ30pxcYzU2f62bflSoQE3CkuIFj9TE2RmfoDoqtPYfVZZLF4wTDOwl7NzizuyRJK8yALkm6cXq74ODJ5rJr9QZUa5Ak8A0PQvrSLbJBmCLo3dicMK6y2JLiBUBnUCYEjjZGOVIeY9fZCdyg2b18ODvHyfIIx4rjLNfz3NZ1mHTYbGUfys5STVLsK2yl3MixMX+ajlSZMICx3CR7l7dwojxKZ2qJ9blpoiAhFcb0ppc4WhrjWGmc4ew0I9k5wiChI6oSBJxrmb+9e//ZtdSbrfYD6UWmqoMcrYyxkHSzI3WMFI2WnsKkMA1Lpwk3PETQMeA1LUnSCjKgS5JunHQKBrrhk1+D+WWIE4jj5rrol5nRHSDMD0CtQHzkSy0rYkRMf7DIVDzIsfp6Zqp93Nn9ItHZ8ebpsM6G3HG+On8vc7U+8lHl3CRuYQBj+SmOFJvLq+VTRTbkTxMFCfmoSme0xDNLdzJTHWBL53F6Us3u7J1RiRjYt7yN0+UR7ujeSz6qEZ1tRZ+t9XCoOMF8rZt7e188V9ZMWGckO8nzSzuYqg+QImYiOtXik5iQLB6HSoFo+zsgjLyuJUlaIQZ0SdKNtX4IXjwCz+yDhGZQH+yD19/d7AZ/KVGaINtNfPIpkuUzLStiOqgzFC6wpzHBqeq6V4RwgI5UlaHsFE/O38NyvZP1uSn60s1l4DJhncHsNLsX7+BkeR1bOk/Ql14iAHrTBcqNNHuWt1OLI7Z3HSUVNIiChP7MAjPVPg4WJ6gmae7sPghANqzTEZU5VNzI4eImelILbHjZDPNdqTKZoMzu5dtZoIt14Sx9wVJrz2ESE59+hiDbS7jxtV7TkiStEAO6JOnG2zIGf/zR5mRxcQzVKty3oxneLyPoHIJ6mfjYY9CotqyInUGJdBBzoLGRycogG/PH6X3ZrO5DmQWmKv0cKEwAMZs6Tp6bxK0zqgANXlzexmy1j9s6j5CLqqTDBvmoyonyOl4sbGUke4r1uVmgGcTzUZlj5fXsW97KaO4UI9m5s+umL1JJ0hwrjXO0PM6Orn10pSrnyrohP8npyiDHK+tpELExPEMmqLX8NDYOfopw08OEfZua/f8lSdJ1MaBLkm68wT54+kV48Wjz8fQCbFoH9+647Fh0gpCgc4h4ag/J3BGazfCtMRzOMRUPcKIxQrmRY6LjOLmoGXzDIGE4O82h0iaOlcYZzMyzLjtDGCREQUxXush0tY/9y1tJBVW2dB4jDKAntUQCHCuNc6g4wc6uA3SmygD0pRcoN7LNIF7cwG2dB+k6+9r63GlOlNdxqryOQr2brZ1Hz30hADCeP8G+5S2cqo/QGZRZF84StnjpNYD46KNEG15L0DPmdS1J0nUyoEuSVsftE/Bnn4JKrdmKPrsAb30QBnsvu2mQ74cwIj78Bai1bubyiJj14TSH4w2cqQ3SlSqyPjdFdHYm9XxUJaLBgcIEp8tDbO08fC5Q58MymbDG0dIYB4sTjOVOM5xdIAigP73ITLWfY6UxZqp93N69n3QYn12ubZqT5RFOVkapxhm2dB4jHTZIBQkjmVn2LG9jqjpAZ6rAWO7MubXYs2GdTFhjf3Ezc3Ef4+Ek3UGRlrdrV5ZJ5o8Rjt3X7N0gSZKumQFdkrQ6hvvh2Gl46uykZzOLMD4Er9l1Rd2lg94NJLMHic8819Ji5oIqWWrsrTfXMR/PnzzX1T0MEnrSS8xVezhY3EyxkePunn3N8gXQl16i2MhxtLiBU5VRdnTtJx9VyYR1BtLNsH2qso5cVGFzx0mgOYZ9ODvFc4t3MP11QbwnXSAfLfH80u0s1rsZy03Sl16Gs2XpTS+x3MhxoLSZSpJle+ooUctb0ROS5dMQ1wnX30+Q6fTaliTpGhnQJUmrZ+MofOgzUKo0l1vbdwx+4Jshl73spkEqSzBwG41n/xQalZYVMQC6gwIl8uyrTRATsu1sqzZAJqzRk1rmaHGcI8VNdEfLjJ+dxC0KYtZlJ3mxsIUz5REqcYbtXQeIAuhOF+mMCjy7eAcL9R5Gs1P0Z5rLx3Wni3REyzyzeCfFuIPx3CQ96QIAA5lF5mo97C9sIUkCNr5sTfX02QnlTpTWcbg2TldQZiycav15jOskc4cJukcJR+6EMOW1LUnSNTCgS5JWTz4L80vw1Reaj5eK0JGBN9x3RZsHnUPQSIgPf66lxUwHdTqDEqfiYV4sbWF97iSjZyd3C4C+9DKlRo4jpQ28WNjK24a/fG7bbFRnLHeCx+YfYKnexUBmkdHcDAGwPjfNidI6jpQ2UIlT3NZ5mEzYIABGsnNM1/p4cXkb6aDKpo6TZ7u6xwxn5zhc3MDB4iY25I8zkl0geFlZqkmaw6VxDjY2cE/qANmg2vpzWS8Rn3iccPMjhL3jZ0sjSZKuhgFdkrR6MmnoyMJnn4TFZgsxT++D73kH9FxZV+lo8+tpvPjRZjfrFuoMyjSSiBPJCPuKW9nV8zwd0fmZ0jfkT1COM2zMn2JH15FXbNubLgINXixsY7nRwcb8iXNj1bd2HWD30u2cqQzTnSoxlpsiDBLCIKYvNc/B4gRHSxvY3nXk3FJuHVGJTFjhQGELBwpbuKP7AB1R+dznrctNcqY8zKnKOibjAW5PHSFFo/Xns1YkPv4EqR3fRJDr8fqWJOkqGdAlSaurMw9nZuCZ/RAnUK0110N/0/0Qhle0i6B3E/H+T0C91LJiBiT0h0vMxT2caowwV+tnR9fBc13dowB2dB15VTh/yfrcaY6X1nOkuIFUWGdD/jTpsEE6iOlKFdh7dkm2sdwpetPLBEBHVKEzVaCeROzoOkx3qjkhXhBAb6rAUr2TI8UNzFZ72Nm1n1TYHG+eChL60ovsL25mqj5ANqgzFk4RtnDG+3OKUyTT+4k2v5Eg2+31LUnSVTCgS5JWV/7sePPHnm92dweYnIM33QfrBq5oF0HHAMnSGeJTT7a0qJmgTk9Y5HBjjGPV9eSjIhvzp87NpH4pqTChN7XIoeImTpVHWJebZjAzTxgkdKcKLNU7eLGwlXoSsr3rKKmgQRTEjGanub3rAD3pImFwPmBnwjpdqWWOlMY4VJygIyqwuePUudd708ukwzJ7l29jMeliJJijL1y6Iac0mT0IjSrhxtcSpHJe45IkXSEDuiRp9Y30w57DzZ84gXK12f39Tfc3W9MvI4gyBLke4pNPkRRaOylaV1AiHTTY29jMfL2X9blJBjKXD74B0JkqUUtC9i1vZbbWy46uA+SiOumwTneqwMnyCIeKm+lNL56baC4IOLsE26tbv7tTBVJBnX2FLdSTDA/27X7F6+uyM8zUejlc2kidFGPRFLkbMR4dSOYOEWT7CNffC2HkNS5J0hUwoEuSVl820/z53JOwXIR6AypVuG8HjA1ffvsggI5BKM0Rn3gC4nrLihqQMBzOsxD3cKS+nmqcZkvnMbLh5T8zFcT0ppeYqgxwsLiZMEjY3nWUAOhKlagnaY4Ux9lf2MxdPbtfMcb9Yoc9kp3jtq4DbOk4wkBm+RWvR0HC+twUewtbOVUfpi8osC6cvTFd3esV4rnDhH0ThEPbvcYlSboCoVUgSWoL73gt3Lv9/OTfLxyGv320OSb9CgSZDlL3fDfh2L0tL2qKOt+YeZROyuxZvo2nFm6ncYWZdzCzyOsGnqE3tcRnp1/PocI6oLkk2+v6n2Ci4xilRo7/ceJdVxSj02GdLR1n2NZ54UnyOqMy67LTlJMM+xobWU7yN+iEJiSz+6k9+n8Sn9nt9S1J0hWwBV2S1D7Gh+AvPtNsQY/js63ot8P6oSvaPOgYIKmVSY4/BvVKS4uaDur0BCVerE+wWO9hPH+GnnThihYX68/MMV/r5lR5lIPFCXb17CEX1YgC2JA7yYuFrUxWhkkFtSse4/71yo0s+wrj/NGx93KsOE5vsMz9qRfZGJ0hJL5hpzRZOA61EuH4QwTZLq9xSZIuwYAuSWofG9c1l1l78Wjz8fQCbFoH9+6AdOqKdhEN7SA+9lWSuYMtLWoAdAdFyuTYX91EIwnY3HmcTHj55czCANblpjhSGudMZZg4idjceZxUENORqtARFdizvJ3J6iDrc6fpzyxd8arijSRgsjrIl2bv52OTb6XUyLMjOsZb049zR+oQ0Y1Ybu3rxNP7CHK9ROMPQJhCkiRdmAFdktRedk7A//gkVGrNVvTZefiGB2Gw98q2T2UIesZp7P6Llo5Fh5da0Qucjgc5UJmgK1pkU8eZK9o2F9XoS8+xd3kbk5Uh+tPzrMvOEAQwlJ1huZ7nQGELpUaejfmTdESX7xFQbmTYvbSdT089zLOLd9CdlHh96lkeST/D+nCa4EaMPb+QpEFy+jmCng2Eo7u8xiVJuggDuiSpvQz3Q6EIjz7bfDyzAPkcvOWB5qxoVyDsGSOpLBMff6zlxc0HFUISjjVGOVLewLbOI/Ski1e0bV96kWxY4tnFOynFOTbkT9OVKhEGMJqb5mhpjNOVEcbyU6zLzlxyX3O1PJ+YejOPzj7AVGWYXdEh3pp5nDtTB8kFFVZdvUR86mmi0XsI+jZ5nUuSdAEGdElS+xkfgU8/DrOLkCTw3AH4vndCd+eVbR+EhBseorHv41CYbGlRQxIGwwVmkz6O10c5Whrjgb5niK7gu4QwgOHMPNPVPvYVthIFdTbkT5MOG2SjGsOZSZIkZDx/hoHMwkX38/TCDv7i1LdwYHkLYQxvSj3NI+mnGQ7nVq/V/EIqi8SnnyHc+laCfL/XuSRJX8eALklqPx3Z5lron3uy+bhWh/kl+LY3XPEuglSWsGuExvMfanlxI2LWhbPsbmxlttFHPc6wvevwFY0bT4UNhrNzvLC0jYPFCTbmjzGcXSAA+jMFdnYfumg4X25k+KvT38DHp97Mcr2L0XCWd2U/z92pfWSC2jUdS5AkRPUKqXqFVLVMulImVSmTKZVJly/9k6pWSNUqhI0aYaN29suBAILzi8YkxWmS+eNE295GkM55rUuS9DIGdElS+0mlIJeBx1+Aybnmc88egHe9udkF/goF+X6SuaMkMy+2vMi5oEJXUObFxgTz9R5Gc5MMZBavKKTnogphUOdgYTPL9U7u6D5I+hKTzVXiNC8ub+FDp97J3uXtdFDhvtQ+3pX9HEPB3JXVTRITJDFho0FUq5CqlMiUS6TLFVK1OlE9JmwkBDEEV9gIHyQQxBA2EqJ6TKpaJ12pkqpWiOpVgqRBkECydJIgCAnHH4Ao4/UuSdJZBnRJUnvq7oTpeXhyb3PZNYDlIrzzYUhFV7SLIJ0nyPUQH3kUKostL/K6cJaFpIfD9TGKjRwT+RPko+plt4uChJ5UkSisM5SdZaLjJFFw4aXQTpcH+crc3Xxy6o0sVnrZHJ3iLekneTj9DGkuPSleM5DXiep1UtUK6UqFdKVKVG8QxskVB/GrFSQQxglRvUGqWiWsFGBqL2R7CNbtgijt9S5JEgZ0SVK7yqQhm4avvawVfXoeHtwJE6NXto8gIMgPkBRniE8/2/JZ3QFGwxmOxus5VRshnyoznpu8aNh+uXxUYWvHMcbzZ8iEjVe1vFfiiGcW7+BT06/nmYU76aDKg6k9vDH9FOPh5CVb6sNGnahWJVVttmanqjXCRtyyQH7Z05JAWFqE07th/S6C4duAAEmSbnWhVSBJalv3bIc33d/s7g4wswh/+JFmUL9CQb6P1F3vIRzacUOK3BMUeHP6ScIk4atz93C8NHTF07SFAWQvEM5Plwf5mzNv4W9Ov5XDhU1sDk/zrekv8vr0M/QHixedCC5s1MiUCmSKpbNjxGuEjfaZNC6YPQwf/gWSxTNtUyZJklaTAV2S1L7yWfjJ74Sx4ebjeh2+9Ax8/qmr2k24/h6iu95LkOlqeZEDEjZHJ7kv2sdstZ/PTj9CqXFtk6E1koDnFrfypye/ja/N3U+lkeWt6Sd4d+bTbI2Ok+XC3efDRo1scYlsoUiqUiNsNFattfyy9XV6N/zOG73WJUnCgC5Janeb18P7vvH8Gugnp+FjX4bpuSvfR5gidd8PEgxuvyFFzlLlntSLbAzPsGd5G88u3nbV+6jGaT4x9Xr++4nv4GRpHSPBHD+W/TBvSj9OZ1C6YKt5kMRkygVyywWiaoMgbtNU/vXlPnOAxh+8G+KG17sk6ZZmQJcktb8fexcM9p5//Nkn4PE9EMdXvIugc4D0G/7hDZs1fF04w/2pvXQGJf769Ds4Xe67ou2qcZqjpWF+78h38empN9CRVHgk/Qzfl/1bRsKZCx9bHJOqlsktLZEq12jJ0ucBzb8aLvdzjaI9nyL51G9Arez1Lkm6ZTlJnCSp/eVzzXHon3is+Xi51Hz8yD3NbvBXKBy5nXh6H8nk8zek2H3BMvNJD6cbQ5ysjHJH934y4YUnqkuA6Uofjy/cxYdPfxNzlX62Rid5c/pJHkjtIRdUXrVNc83yGulKkXSltjLd2CMgDeTO/nQCHUD32Z+uS/x0nN0mD6TO7iekGe4vV7ZGFeaOwNBWgqHbXrF2uiRJt4ogSZK10f9NknRrWyrCN/8sPH+o+XiwF37/V5qTyF2FeP4Yld//FpLFEzek2FNxP39efTtTSR/fMPRF3j78KNHXzQJXi1PsK2ziy7P3cbA4QSap87rUbu5IHWQomL/gfsO4QXR2Rvbr6soe0QzVWSBz9r/R2X+/FNavZYL1KhADtZf9VIHy2Z8LfU8RQLL5dfDe3yEYf8BrXpJ0y7EFXZK0NmTT0N/dHH9eb0CpAqem4XtfNj79CgS5HoIwTWP/J25IsTuDMh1Bhd31bczX+hjKzjGcPT9+vthI8cmpN/KF2Yc4URpjU3iGb0x/hbtTB+gKihfcZ1ivki6XiWr1a2s1D2m2hg8Cw0A/0Af0cL4VPE0zoF/r6mcRzVb0LM0W9c6zP90v+5yIZlB/2UiFYPEUyfxxgtveCtlur3tJ0i3FgC5JWjsGe+HFI7DvePPx8UnYtRV2bLqKnQQE3aMk0/tJZg/ckGIPhAuUkjwH6+NU4zSbO46Ti6ocLq7nj46/lxeXt9KI0zyc3s03pL/G+nCaiAuPr09VS6SLFaJGfPXZOQ+MABtohvIuzofxl7qit8pLY9hfCu0dNIP6wNly1Wm2sicJwewh4iAi2P72q/ryRZKktc4u7pKktSOO4S8/Bz/9b6B4djKxiVF4/I8guooxy0mD+vN/Re0jP0dSmr0hRa+R4j+X38Ns0s03DH+BaiPLo7MPUU8i+oMlvjnzJbZHRy+5j0x5mVS5fnUfHNJsuV5HM5C3c94tA2eABUhiSH7wvxLe//2GdEnSLcMWdEnS2hEE0JGFg8dh/9lW9IVl2DACd2+78iAXhASdQyTLZ4jP7G6mwRYLSRgO5znQ2MiewnaOlDbQEVTYlTrEu7OfYSycunhx4waZUoFU5QqXIQtojiHvo9laPkqz1brdc26Kc13tgxB47i9h69sI+ia89iVJtwSnSJUkrS0b1sE3vg4Ges4/93sfhkMnr2o3QecQ0Z3fQdC/+YYUOyBhfTjFQ6kX6A8W2Rye4p3pL/OuzGfoCZYvul0YN8iUS6SqjSv5kGYQHwI2Axtptp6vNXlgHIKNDfjUD8PJT0Nc9dqXJN30bEGXJK0tYQAj/fDCYTh4ApIElovQ0wGvuxvCK//uOexeR7I0SXz6GYjrLS96igYD4SLrwxnuTe1jIjp1yUbtMG6QKpdI1a6gbBHNceUjNCd/Wwst5pevMIJwASa/2Ozl0DEG6V67vEuSblq2oEuS1p6xYfiut0H/2Vb0YgU++TXYe/jq9pPuIPXQ3yHs23jDit4dFNgeHWUwnCe4xOLgQRKTLhWb4fxys8V0ARPAepoTr91Uv90TWN4Pz/5L+NIPwYm/9vqXJN20DOiSpLXpWx6BO7c0/50k8NwB+MRjUL+6lvCwfzOpN/xvbXVoQRKTKSwT1RqXDucRMEazO3svzdnYb1bVeTj9Bfji34FHfwLqy94DkqSbjgFdkrQ2ZTPwM98NUdR8XKzAn30ant5/dfsJAlL3vY9w69vb4rCa4XyJqH6ZietyNFvNR7i5g/krJFCZhX2/Cx+5Bya/AEnjVjl4SdItwIAuSVq73vE6+J63nX/83AH4zONQqlz1rtJv/2WCXN+qHk6QxKTKJaL6JZrNQ5pjzbfQbDW/VYdjLxyCz38/vPgfoTrH5ccBSJLU/gzokqS17ed+EIb6zj/+H5+AvUeuejfR+ntIveYnIEytymEESUyqUiZVrV2ikMAwzaXTcp56CsfgyV+CZz4AhSO3em1Ikm4CBnRJ0tq2bQN87zvOP957FP7ob65+P0FIdO/3Eo7df+OPIUmIqhVS1RrBxRqCszTHm6+nuV64mqpLsOeD8PjPwczXrA9J0ppmQJckrX3f/81w17bzj//80/DCoaveTdi3idQDP3zDu7pH9RrpSpUgvkg6fymcD3Lrdmm/lDiGIx+CL/0YTH3Z+pAkrVkGdEnS2rdtA7zvG88/XliGf/Lvr34/UZpo2zcQbn3LDSt62KiRKZYuHs47gI3c2uPNr0QSw9wz8OWfhOmvWB+SpDUp+sAHPvABq0GStKalIujuaLaaH5tsPnfkNOzaCtsnrirYBtluSCA+8TWoLLW02EESk1tevni39jywieY656sYzuMEGklAPQ6pxSG1RvO/T5/u4MRilpOLmXM/uVQCBDSSkEbSXOk9AIIbVf7yJJz+DHRvhe7bbuAHS5J0/RzFJkm6OWzfBN/2Rnj2ACwVm5N6f/DP4KE7YHToqnaV2v6NxAc/Tf2Z/w6NakuKG8Z1MoUCwcVWU8sA4zRb0G+wJIFiPWShnGGpkmbfTI5D810cne/k5GInk8Uc9fjSwXe4s8xYV4ktA0ts7ltia3+FvlyN3lyVznSDqJV9+Jb2w+7fhOwQDL0Ggsj7Q5K0JgRJkrguiSTp5vDiEfj5/xO+8HRzXHJPJ/zSD8FPvoerTYTxiSep/MWPk8weXPFiBnGDTLlIVL3IGt4ZmpPBDdzY6qvHcGShg8Ozneyb7eT5yV5enOml0rj+NJ2JYib6CtwxPMfW/iLbBopM9C3TlYlb1zlg9G3wwK/B0MPeG5KkNcGALkm6eTQa8Ef/L/zq78L8UrN78+t2wW++v9nd/SrVHv0dah/7pytaxCBukK6UiKr1C3dtT9FcRq3/xlXbQjnihakevnpygH0zXRya62a52rpOdukwZmNvgTuGF9k1ssAbNk3Rk23RnyPr3wJv/BPIj3l/SJLangFdknRzmV+CH/nf4TNPNB/ns/Az3wPvfx90XN3i4UllkfL//W0kk8+tSNHOrXVeqV48nI8CQ9yQMeelWshjx/v4+MH1HJzr4vRynhv5V0EYJPTmqmzsKfLO207x1s1TdGZWuABB2Azpb/1rSK3CeAFJkq6CAV2SdPP5wlPw7T93/vHtE/DBfwQP3XnVu4pPPEH5d9++IsVKVctkSuXm+PivFwAjwDrgBgyZPjqf5j8/voMnT/dTqkXEyepOptaRrrOlf5kfuu8QD6xfILWSY9SDALb/KDz8u94bkqS25izukqSbz6ZROHQCdp9dC31moTke/TW7IJu+ql0FXSMk5SXik49fV5GiepVMoXThhvGA5njzUVo6fWuSQLUR8ifPjvEbX7ibA3Nd1BohyQo01wdBQBiG536CIOBq2gBqcchUIcdnD6+jWINtA0Vy6RUcn758FLKDMHCfM7tLktqWLeiSpJvT5Cy8+e/Cmdnm4/5u+G//El5311XvKj7zHJU//wmSqT3XVJSwUSO7VLh42OyhOe4827rqqDRC9kx18EdPbeHJ0wMr2mIehiH9/f2MjY2Rz+cBmJmZ4eTJk5RKpWva5+1Di/zEg/u5c3iZfDpemYIOPQSv+x0YfAgXlZcktSNb0CVJN6fOPKRTzbHocQLlKpyZgW99A2SushU92w1JTHzssatedi2q18iUioQX+zq8i2Y4z7WuKparKT55cJj/8tQW9kz3rnh39s7OTjZt2nQunAPk83nS6TSLi4vE8dUH7Jlils8eWUc6rDHaXaEz07j+gpZOQaMMw6+HdLf3iCSp7YRWgSTppvXNj8Dr7z7/+LNPwp/87dXvJ50n2v6NRBtec1WbhY06qXKZsHGRdJ6nudZ5C8P5YiXiD5+a4A+e3MLBue4VD+dBENDR0fGKcP7S8/l8nlzu2g+uUg/5r89s5Q+e3MzBuRWY4C1J4PhH4OTHIa55f0iS2o4BXZJ08xofhh/5dlh3dkHxah1+60/g4PGr3lU4sIXoru8i6Bq9ovcHcZ10uURUv8Ra5xuAFk4sXq7DB79yGx/eO8ZsqXX958Pw4n9OBNc53rtSj/jkwVH+w1e38cJUJ/H1DsyrzMKe34blw94fkqS2Y0CXJN28UhE8cje86b7zz03Owq/9/tXvK0wR3fG/EI4/0Fy66xKCJCZdKRPVLhLOUzRbzjtbd+jlOvyrz97Jpw6NUqm3blr4JEkolUo0Gq8+1lqtds1j0F+u2gh5/OQA//ZLOzkyvwLdDWafgf2/5/0hSWo7BnRJ0s1t3SB89ztg61jzcQJ8/in40Ke52kW/g1wPqdf/DEHnyCXelZxd67x+4ZdDmrO199KyecqWKiG/+cWdfOnYMI249ZOhLS8vc+bMGer1OnEcE8cxlUqFEydOUK/XV+Qz4iRg/2w3//xT91C+3i8ckhj2/jYs7PX+kCS1FSeJkyTd/Daug2Nn4Nn90IibE8aVyvDw3dDbdVW7Cvs2kMwdJT75xAVeTUhVK6RLlQtn7xAYPvvToq/I58opfv/JLXzq4Ci1+MIfkkqlSKVSV70U2sUkScLS0hJLS0sUCgUWFhY4evQo5XJ5xY9vsZLmwGwH944uXN/EcXEDCodh4rsguAELz0uSdAUM6JKkm18UNcejf+kZmJxrtpzPLMJAD9x9W3O296sQjNxOvP8TJKXZlz2bEFUrZIrlVVvrvFiL+H/3reevXxynUHv1hwRBQE9PD6OjowwODtLV1UUQBFSr1RUJ6tVqlWKxSLFYvKaZ26/U8cVO5ssp7hxZpON6lmBbOgDr3gzdW71HJEltwS7ukqRbwx1b4O+/9/zj+SX4H5+E5w5cdVf3sG8T6bf/M0idn3gtVa2SKVcu3mu9j5aG8ziBp05386EXxlkoX3gZue7ubjZt2sTw8DB9fX0MDw+zadMment7r3sytxvti0eH+eu9oxRr11HuJIY9/wfUC94fkqS2YECXJN063v1WePebzj9+/hD894/C4tUHtOi2byS1810AhPUqqUqF4GJTjHfRnBQu07pDmyml+L+f2Mbp5fwFXw+CgP7+/lcth5bJZOjv7yeVStFOwjC85OzwxVqKj+4b4/ETA9fxKQlMPwYnP+a9IUlqCwZ0SdKtoyMH/+KnYHSw+bjegD/+KHz2iavfVzpH6uG/R5TpIVMuEzYu0tW6A9gEpFt7aP/xq7dxcLb7oq9HUUQ6nb5gS3kURW3Tgp7JZNi8ZQv33HMP9957Lztuv52OjguvRXe6kOcj+9ZzfPE6ZnavTMGJv4RGxftDkrTqDOiSpFvL+DD8wv/aXIINoFKDX/s9KF99QAsGt5G+872EjYu0nGeBsbP/baHPH+3lkwdHuVRH/Xq9TqVSueBY82q1esVjxoMgONe6HYYh6XSajs5OMtnsK56/lsCfSqUYHx9nZHiYTCZDOp2mr7eXzZs3k8u9OoQnCXzl+BCPHuun1rjGLxjiBsw8DbNPIEnSanOSOEnSrSUImiH94HHYf7y57NrMIszOw1segKvo6h2kchAGcOCzBKWFV76YoRnOe2jZcmoAc6U0/+pzu1ioXL7/fJIk5HI5stnsucflSoXJyUmKxeIlqiwgnU6TzeXo6u6mt6eH/v5++vv76enpoauzk57ubvr6+ujp6SGfz5PNZgmC4NxM8VcyCV0+n2dkZIR0Ov2qzy+VShddU/34QicPjc3Sn69dWyVW56B7Gwy/7rJr3EuS1EoGdEnSrSefg8Fe+OrzMLfUfO7ZA7BjE9x5dTN6B13roDBDcPwJiM+u+Z0C1gH9tLSvWiOB//7cBr58fJg4ufy3ANVqlUqlQhzH1Go1FhcXmZycZGlp6YIBOggCstksnZ2d9PX10dvTQz6XI51OX3R8eBAEpFIpstksHR0d5HK5c+PbG41LL4uWy+UYHBx81Xj4OI5ZXFy86JcIy9U0YdDg4Y1z11aRSQMy/TD8CGR6vT8kSavGr4klSbeeMIAH74D3fAN0nZ00rRHD7/wZ7D5wdfvKdhG89odJxu5qPg6AIWCQlv+WPTKf58vHhqk1rvyDlpaWOHLkCEeOHOHYsWPMz89fMDinUin6+voYHBxkYGDgXIv41QiCgEwmQ29v77n9fH3r+MvV63Wq1eqrno/j+LLh/m/3j7NnuuPaK3Pqc7C833tDkrSqDOiSpFtTdwe8753w4M5mYAfYfQj+04dgYfnq9rVuF9z/fZDtgmGaPy3+DVuP4fNHhjm2cG2h9FLjzrPZLENDQ/T09JzrDn+90uk03d3dDA8Pn1t//etVKhVmZmao1c53VY/jmNnZWZaWli65/3I94s93b7z2ApYmYeoxaJS9NyRJq8aALkm6dW0Zgx97F/T3NB9Xa/C3X4K/+lxzhverELzhp0gmRmA9LVvr/OXOFLI8P9lDuR6t6H5zuRzr1q0jn89fcpmza/FSl/mBgQG6u7tfFdLjOGZqaop9+/Zx8uRJTp8+zYEDBzhx4gT1ev2y+//s4XUcmL3GLxSSBKa/4prokqRVZUCXJN26ggC+/c3wnrc2/w0wOQ//5SPw/MFmaLsSSQynP0YwMH9DfrMmwN6pXvZMr+x46ZfCeRRFLS1/FEX09fXR2dn5qpCeJAnLy8scP36co0ePMjc3d8UzzNfikE8eXE9yrQWb/DRU570vJEmrxoAuSdIHfhIe2nn+8df2wB/8NcwvXX7buA7TX4ZnfrU5G/gNsFyJeG6yk8XKyi2u/tIM6ivdan4xURQxMDBw0TXOr9VXTwwyV7rGLxjK8zD/gveDJGnVGNAlSerIwW/9Q9i8/vxzf/xR+H8+centkgQWnoOnfwVmnrzyFvfrNFPK8syZgRXbXyaTob+/v+Ut51/vpZB+oTXOr7luilmePdN37Ts482nvB0nSqjGgS5IEcNc2+NnvPT+re7UGv/0n8KVnLr5N4RA8+2tw5ks3LJwnCUwupzm20Lki+4uiiJ6eHjKZDKshlUoxODi4Yl8OFGopnp/qu/YdTH3Re0GStGoM6JIkQXMM+ne8Gb7vm84/NzkH/9tvw8mpV78/rsPu34Jjf3VDZ/6uxwHPTfVQbazMr/BcLkdHR8dVL6G2kjKZDD09PSuyr2oj5Mh8/tq7uc89470gSVo1BnRJkl7S3ws/+M3wujvPP7fvGPyT/wtKlVe+97Gfhn2/C43KDS1iPQ7ZfaZ/RfYVRREdHR03vGv7hXR1dZFeoVb8qWKW40vXOLa9XoKpR70XJEmrwoAuSdJLAuCe7fDj74b1Q83nkgQ+/TX4T/8TanWIq7D/9+HF/9j89w1WiwMOznWtyL4ymcyKT9J2raIooqtzZbrtL5YzTBeuY1z74oveC5KkVZGyCiRJ+jrvejPsPgj/4S+gXIXFQnPptS3DsOMAPPWLq1a06WLEfPn6W5qDIKCjo+OGzdp+JeXJ5XKkUqkrWvP8UhYraaaL2WvfwYIzuUuSVocBXZKkr5dJw99/Lxw+BR/6bPO548fhox+E5cehPr9qRTs8tzIt3i8F4naSSqXIZDLXHdCrjZCZYppqIyATXcPkffO7vQckSavCLu6SJF3IyAD88o/CPduaXd8nFmD841A7tqrFOrmcX5H9pFIp0uk07SSKohUr01IlolS7xj9zlmxBlyStDgO6JEkXs20D/Ob74cE8fNs+GCs0w/oqmr1E1+1MJsPIyAgbNmxgYGDgkjOz53K5VZ25/UKCICCdTl+02302m2V4eJiJiQmGh4cvObndTCnLcvUaOwoWTnrtS5JWhV3cJUm6lAe2w49PQ3l51cM5wKHZ7gs+n8lk2LFjx7ngnSQJxWKR559//oLvT6Xa80+AMAwJw5A4jl/xfD6fZ2Jigq6urnPHNzAwwJEjRyiXX73MXbUR0kiusR0iib3uJUmrwhZ0SZIupl6EL3w/VL7SFuEcIE4uXJCxsbFzk74FQUAYhnR1dTEyMnLB97drQI+i6FUt6EEQMDAwQHd39yuOr6enh6GhoZXvCZAkUJ3z+pck3XAGdEmSLqQyC8/+Kzjy52uiuL29vRd8vqen54LPt8Pa51cqnU6Tz+dfFcSDICCTybTgy4YElg56D0iSbjgDuiRJX69egH3/Cfb8H2umyEly4dnKv76r+FqUJMklj+9mOEZJksCALknSK9WLcPiPYc8Hoba0Zoo9OTn5qhAbxzEzMzMXfP9aCrX1ep3l5eVXLb9Wq9UoFAoGdEnSTcNJ4iRJekkSw6mPwdO/CsW1NZP39PQ0YRgyMjJCJpOhWCwyOTnJ4uLiBd9/vWuNt8qFWsSTJGFmZoYwDBkdHSWdTlOuVJianGR2dvaireuSJK01BnRJkl4y9xQ8/o/aepmtif5lnpnsf9Xz9XqdU6dOcebMGeB8t/CLhdd2DeiNRuOCLeL1ep3Tp08zOTl57rk4jg3nkqSbigFdkiSA8hR88Ydh8UBbF7M3V73oa0mS0Gg0rmg/lUqlLY+vXq9ftMv61Rzf+q4SvdnqtRUiCGHwQe8JSdIN5xh0SZIKR+Hz3wdzz7V9Uce6iyuyn1qt1nat6PV6nVqttiL7ykQJqdDWdUnS2mJAlyTd2grH4Ml/Cqc+uSaKu61/ZQJ6nCSUSqW2OrZGo0G1Wr3u/aTChJGuGp2Za5w8Lt3pfSFJWhUGdEnSrasyDc//1ppZ6xxgfXeNzsz1t3wncUyxVGqbMdxJklAul1ekVb8rU2Mgfx1d+Lu3eW9IklaFAV2SdGuqLcG+/wsO/AE02qsl+VKiMOG2gcUV2Ve1UqFcLrfFccVxTLFYXJEvDHpyNYY7r+O4um/3/pAkrQoDuiTp1hPX4PB/g2f/NVQX1lTR02HMrpH5FdlXvV5vm3XES6XSin1ZMJCrXN9Y/Z4d3iOSpFVhQJck3XpOfwqe/gDU1k7L+UuiMGHn0CJRsDJd04vF4qqPRY/jmNnZ2RWrn029ZUa7rmOyucGHvEckSavCgC5JurXMPgWP/ggUT63J4ocBjPfUGO9ZmcniGo0GS0tLKzZ7+rV8/vT09BUvn3Y5XZkad627zrDfu9P7RJK0KgzokqRbx/RX4NEfh8LaDOcv6c9XuHOFurkDlMtlFhYWbnhX9ziOWVxcpFAorNg++3I17hq5jjH6+VHo2uK9IklaFQZ0SdKtYWEPPPFPYObxNX8ovdk6d48s0pFemVbnJElYXl5mfn7+hs3qHscxS0tLLC0treh+d43Ms777OpZqG3rYe0WStGoM6JKkm9/yYXjqn8Hk52+KwwkD2DG0xNb+lQu3SZKwuLjIzMxMy1vSkyRhaWmJhYWFFevaDhAA37r9+PXtZOSN3i+SpFVjQJck3dyqC7D338HxDzVnb79JbOsvcufI0opNFgfnW9InJydbNiY9jmPm5uaYm5u7aDgPw5DOzk6iKLqqfd+7bo47h69zwrvRt3jPSJJWTcoqkCTdtGpLsOffwp4Pwgq21LaDIIDXb5ziS0cHOb7YcYXbBGQyGfr6+sjlciwvL59rxX6pa3uSJJRKJSYnJ8+972qD8oXEcUytVmN2dvaiy6mFYcjQ0BBjY2NkMhkAJicnOXHixGW/MEiHMX/3NXsJgusoZO+O5hh0SZJWiQFdknRzimtw5E9hz+/cdOH8JbtGFrlv/RynlvM04ssn0+7ubiYmJsjn8wCMjIwwPz/PsWPHXhWaq9UqU1NTdHR00N3dTTqdJooigqtIwEmSEMcx1WqVYrHI8vLyJbvP9/T0MD4+TjqdPvfc0NAQjUaD48ePX3J8/Bs3TbJz+DrXUR/7Nkj3eu9IklaNAV2SdHM69mF44hehPHPTHmI6hPfccZzHjg8yWchd8r2pVIrh4eFz4RyaLeq9vb0sLCxQqVReFYCTJKFQKFAqlcjlcmSzWdLp9LmwfqGW9Uajce6nWq1SrVYpl8vU6/VLli8MQ7q6ul4Rzl96vrOzk1QqddFW9N5slXftPHF9lRllYPB+SOW9dyRJq8aALkm6+Rz5M3jil27qcP6SLf0lvmfXYT742KXX7s5kMmSz2Vc9H4Yh2WyWMAwvOiY8jmOKxSKlUulcMI+iiDAML/jeRqNBHMfU6/UrnhU+CIKLts4HQXDBzwJIhQnvvO0U2wevc1343jug904I/NNIkrR6/C0kSbq5zDwOz/wLWDpwyxzyt94+yWePjPLsmb6LvuelVu2LvXYlQTpJEur1+mVbw69FHMeUSiWSJHlFUE+ShEqlQrV64aXTbhtc5G1bJ+nIXOcwhuE3Qvc27x9J0qpyFndJ0s1j7hl47Gdh7tlb6rDzqZiff8Pz9Ocvvv53pVK54BjwSqVCoVBo+dJql5MkCfPz80xOTr7iy4JyuczJkycv+AVCX67Ku3ac4vbBAtczNxy5YRh+LWT6vIckSavKFnRJ0k0ggeJxeOG3YObLzce3mLHuGj/2wD4++JWdlOsXnnX91KlTQHPitTAMqVarnD59msXFxbY4hnq9ztGjR5mbmyOfz9NoNJidnb3glwfpMOaNmyZ5y5Yz1zdzOwH03QlDr/M2kiStOgO6JGntq8zA7t+Ag/8VVrkleLVEYcIbJ+Y4tnCcD+/dQKn26pAexzEnTpzgzJkzpNNpqtXqRbu9r5YkSVhcXLzslwZ3rZvnfXcfpSN9nV/GpPIw+lboud37SJK06gzokqS1rVGBvR+EA7duOH9Jb7bOt+04xcmlPI8eG6Z+kaXXWjGOPAgCOjo6yGaz52Z/v9i48eu1tX+JH3/wIOM9K7D/zjHY8G7vI0lSWzCgS5LWtj3/f9j9b6G2ZF0A4z1lfuCeIyxX0jx9po84CVr+mVEUMTAwwPDwMJlMBoBCocCZM2dWvPv8jsEFfvbh/dw5vHz9OwtC2PAd0H+XF44kqS04SZwkae3a++/h2X9tOH+ZMIAdgwXe//q9bB+4MfWSz+dZPzZGV1cXmUyGTCZDX18fIyMjF1wr/VrdPrTA+1+/n10jK3Rc6Rzs/BmXVpMktQ0DuiRpbTr50WY4r85bF18nCGCir8xvfNOTbOkrtPizAjo7O8l93RrrL3V57+rqWpHP2TawxM+8bj93DK/glw53/Dx0TnjBSJLahgFdkrS2JDGc+Tw8/otQPGF9XEJvNuH/901P8OaJSbJR6yaDCy4xjfqVrK9+KVGQcMfwAn/vNQfYNbLEinXY79sOd/6cF4kkqa0Y0CVJa0cSw8Ju2P3rMPe09XEFhjoa/OzD+3nXzuMMdlRY6RHpSZKwvLxMpVJ51fOlUolSqXTN+86mGrxx4gw//8YXeGhsfuUKne6Gu/5587+SJLWRILner7YlSbpRiifga++Ho//zlp+x/WotVSI+d2SQD+/ZwP7Z7hWdPC6KIgYHBxkZGSGfzxPHMcvLy5w6deqaJ4kb7SrxLdtP8h07T9CbW+Fzve2H4TW/DZl+LwxJUlsxoEuS1oZ6Eb76D+Dgn0Cjan1cg1oDDsx289cvruMTB8aoNFauI10UReTzeTKZDEmSUC6Xr6n1PJtq8Nrxab5l+xkeGp8lvdJ9/fp2wet+B0be2JzFXZKkNmJAlyStDV/6ETj035rrnuu6LFZSvDjdwR88tYXdk+3RihwEMNG7zHfeeZTXb5hjsKNGuNL98dNdcM8vw873Q5TzQpAktR0DuiSp/T39z+GZf9kcg64VU6oFfOlYP3/w5DaOL3aualm+e9dh3nfXUfrzMUErlm4PAph4Nzz8e3ZtlyS1LQO6JKl9NSpw8I/giX8MlWnro0WWqwEf27+Ojx8Y48xyjqVqmnoctOzzoiChI1NnIF/lbVtP8Z47jtOVafFB9t8Nj/weDL7GEy5JalsGdElSe4qrcPwj8MQvweKL1scNUK7DM2d6+cKREY4udDBdzDJdzFKpR9e970wU05+rMNBRZVNvkQfHZnlobI7+fL31B5bphUf+ADa925MsSWprBnRJUvtJGjD5eXj8F2D6q9bHDdaIYbqU5vBcF4fnuzixmGG6mGWunGWmkGWxkrnsBHPru0p0ZOoMdZQZ6qiwvrvCxt4im3oLbOgpk7pR87NlB+Dufwx3/iNPrCSp7RnQJWkNi6f3rY2CBiFh1whkr3Dd6aUD8MXvg6mvgb+mVt1yNWCpkmG5mmKxkqFQS1FvNLvAn16OqDYioiBhoKNOPtU8XwP5KtlUg55cld5sjY50vPKTvl1OFMHdvwJ3/WMIM21Wq5IkvZoBXZLWirhBPP0ijef/isahT0NliaRaXBtlDyCIMpDrIxy9h+i2txNt/8YLL3NVW4LPfiec+pThfA2oNAKSJCAgIR0lNz6EX0wYwa6fgzt/HrJDnihJ0ppgQJekNSBZnqT60V+msfvPgWSNB9cAgoCgbzOZb/93RFve9MqXP/4OOPVJT7quXRjCzp+Ce/4FZPqsD0nSmmFAl6R2VitS3/cJan/50yTVpZvv+NJ5Ug/8KOk3/AxBNgdP/Qrs/fcup6Zrl8rC1h+E+3/dlnNJ0ppjQJekNpVUi9Sf+ENqn/oXUFsjXdmvRbqD1F3vJT0cEhz+fagtevJ1bcIIbvthuO/XITdsfUiS1hwDuiS1o7hB/fkPU/v4r5Asnrj5jzeVJd1TINW9fMFh6dJlZQdg6/vgnl+15VyStGalrAJJaj/x9D4aT/wXkqWTt8YB1yvUF0LCTEiUt3u7rlLHONzzy7D5fY45lyStaQZ0SWo3jRrxoc/ROPblW2oW86QR0lhOE+UrXgO6cv33wP2/BuvfAVHO+pAkrWkGdElqM0lplvj4V6F+6wXV+nKe9ECFIPI60GUEAYy+GV77H6B3p/UhSbopGNAlqc0khRkax792yx5/oxCR6ml4IejCggBy62DrD8Bd/xSy/daJJOmmYUCXpLaSkBRnSOYP37I10KikSGFA1wXkhmH4tbD978OGb7M+JEk3HQO6JLWTJCZZvEUmhrtYFdSdxl1fJ8rC4IOw5fth4nsh5yztkqSbkwFdktpJAkm1YD1IL8kPwvafgonvgp7bm2FdkqSblAFdkiS1p43vgvt+Fbpug3SX9SFJuukZ0CVJUnvp2ggP/EZzXXMC60OSdMswoEuSpNUXhJAfhY3fDrt+Cbo2WyeSpFuOAV2SJK2uTA+seyts/wkY+yYI09aJJOmWZECXJEmrIwxh6BHY+n2w4d3QMWadSJJuaQZ0SVrLgoRUR4Wwo0HQpkN160spGiVn3tbX6ZyA7T8CG78T+u/GseaSJBnQJWlNCwJID1QIUknbljHM1SkdNaDrpQsiDePvhF2/CAMPQKrTOpEk6SwDuiStdWH7hnOAIGrv8umGXQmQzcFD/wG2/ZDVIUnSBRjQJWkNSxKoz2VI9dTbs3xAfTHyRN3KwhRkh2HTd8L9vwaZPutEkqSLMKBL0lqWBNSW8tSLMUEQt1/x4pCkYUC/ZWX7YfStsO1HYf07IMpZJ5IkXYIBXZLWuiQgqUckGITVRta/HSbeA+PfDp0brQ9Jkq6AAV2SJK2c7i2w46dgw/8CPbdB4J8akiRdKX9rSpKk6xdGMPHdcNcvQc/tdmeXJOkaGNAlSdK1C0Lo2goP/Dps/HYIM9aJJEnXyIAuSTeBIGjfpcySJPAE3ZwXHXRsgIn3wp3/CDrGrRNJkq6TAV2S1rgoXyXMtecyawCNUpq4nPZE3Uzy62HktXD7z8Lo26wPSZJWiAFdktawIEzIDJYI0u3bgh511Cif6PVk3QyiPIw8Alu+Hza8C3JD1okkSSvIgC5Ja13UvuEcaOsvD3QVcv1w5y/Apu+Eri2ONZckqQUM6JK0hiUJ1OaypPsqBG24DHrSgNp81hO11m35Abj7F6FrG6Q6rA9JklrEgC5Ja1kSUF/MU1/MWxdaWUEEvTvhgX8N49/WnK1dkiS1lAFdkiSdF0TQvRU2fzfc/tPNCeEkSdINYUCXJElNuWEY+ybY/pMw/DrHmUuSdIMZ0CVJutWlcjD6dpj4btj0Hkh3WyeSJK0CA7okSbeyntthx0/Cxm+HrtsgCKwTSZJWiQFdkqRbUZiGzd8Dd/2T5pjzKGedSJK0ygzokrTGBWFMmKlD0L7rjce1iKTur5z2uGAi6N4Ar/tdWP8O60OSpDbiX0uStJaFCdl1y4S5uK2LmTQCqlM5GiXXRF+9ayUNHeOw7e/Azp+G7KB1IklSmzGgS9IaFgBhtr3DOUAQJoTZBo2S52xVrpKOdbD+nbD9x2Ho4WZYlyRJbceALklrWJJAfTlFqqveTOttKq6ENMqGwhsuimD9t8C2H4B1b28uoyZJktqWAV2S1rIkoDbXQaPQaOuAntQD4qq/cm6ovjvhjvc3x5l3bbU+JElaA/xrSZLWuKQR0iiFVoSaUnnY/mNw+89A1xa7s0uStIYY0CVJuhmEKei/E+7/NzD2TutDkqQ1yIAuSdJaFqaaXdg3fy/c8Q8hO2CdSJK0RhnQJUlai4IAOjbA2Nth5/uh/z7rRJKkNc6ALknSWpPqgPVvhy3fD+PfCuke60SSpJuAAV2SpLWkaxzu/ufN2dk7N0Lgr3JJkm4W/laXJGktSKVh64/Cvf8MskMQZqwTSZJuMgZ0SZLaWZiG4Ufgod+CgQeaY88lSdJNyYAuSVI7ClPQewds/QHY9qOQG7ZOJEm6yRnQJUlqN11bYMM7YduPw+BD1ockSbcIA7okSe0i0w3rvwm2/iCMfTNEWetEkqRbiAFdkqTVFgTQvwt2/kMYeyfkxyEIrRdJkm4xBnRJklZTmIadPwN3vB/y65uPJUnSLcmALknSaoiyzVbz1/57GHrY+pAkSQZ0SWo3MQFLjSz15Nbs4hzWI7KVm3gpsTANuSHY9neas7OHOZidfcVbOjo6yOVy3gySJN1iDOiS1EYSEk4WUnx8/i4KjcwtWQdBFBPO127eA0x3Q99dMNMNj/3ZBd+yadMm3v3ud3tDSJJ0izGgS1IbSeKEI7N1vry86dauiOWb/PhOnwROXvTl5557zoAuSdItyCliJanN1BuxlXCrXwP1upUgSdItyIAuSZIkSVIbMKBLUjsJAoJM3nqQJEm6BRnQJamdBCFB96j1IEmSdAsyoEuSJEmS1AYM6JIkSZIktQEDuiRJkiRJbcCALkmSJElSGzCgS5IkSZLUBgzokiRJkiS1AQO6JEmSJEltwIAuSZIkSVIbMKBLkiRJktQGDOiSJEmSJLUBA7okSZIkSW3AgC5JkiRJUhswoEuSJEmS1AZSVoGkm80LL7xArVa75HuKxSIAQRC0VdnjOGb//v3nyrcWBEFAFEUXrctcLtfyeq7VatTr9Vc9nyQJcRwTx/Gau46/8pWvrMrndnV1sby8fMG6TJKEzs7OS27f09PDxMRE291bkiStBUGSJInVIOlm8fjjj/Onf/qnlw1kcRwzOTl52SC/GsrlMoVCYc3UeS6Xo6+vjyiKLvj64OBgy8tQKBQol8uvej5JEpaWllhaWlpz1/KNqLcLyWQyVKvVVz2fSqVYt24dYRhedvt/8A/+AWNjY7fC/3IkSVpRtqBLuqmcPHmSqampy74viiImJycvGER0dZIkIQzDiwa3S7Wur5SLfX4cxyRJcsHW9XZ35syZtipPKpUin8/TaDQu+975+XkDuiRJ18Ax6JJuKnYKkrwPJUlaqwzokiRJkiS1AQO6JEmSJEltwIAuSZIkSVIbMKBLkiRJktQGDOiSJEmSJLUBA7okSZIkSW3AgC5JkiRJUhswoEuSJEmS1AYM6JIkSZIktQEDuiRJkiRJbcCALkmSJElSGzCgS5IkSZLUBgzokiRJkiS1AQO6JEmSJEltwIAuSZIkSVIbMKBLkiRJktQGDOiSJEmSJLUBA7okSZIkSW3AgC5JkiRJUhswoEuSJEmS1AYM6JIkSZIktQEDuiRJkiRJbcCALkmSJElSG0hZBZJaLY5jnnjiCQ4ePEgcxy39rAMHDlxxmZIk8eRIV3kvX4nPfOYzPPvssy0tSyqV4o477uCOO+4gDG1vkCTdHAzoklpufn6ez33uczz33HNWhnQLePzxx2/I5xw+fJjx8XH6+vqsdEnSTcGALklqqVqtRhAELf2MVvfMUHtqNBrU63UrQpJ00zCgS5JaqlAotPwzDOiSJOlmYECXJLWULZySJElXxllVJEmSJElqAwZ0SZIkSZLagAFdkiRJkqQ2YECXJEmSJKkNGNAlSZIkSWoDzuIuqeVSqRTr1q1jeXm55Z+1vLx8xZ+zbds2T84KCILg3E+7SZKEjo4ORkdHPVFXaP369Zw6deqi5/pKDAwMkMlkbkhZ0+m0J02SdNMIkiRJrAZJrRbHMTfifzf+L026PkEQXPd9dKO+rAmCgDC0M6Ak6eZhQJckSZIkqQ34tbMkSZIkSW3AgC5JkiRJUhswoEuSJEmS1AYM6JIkSZIktQEDuiRJkiRJbcCALkmSJElSGzCgS5IkSZLUBgzokiRJkiS1AQO6JEmSJEltwIAuSZIkSVIbMKBLkiRJktQGDOiSJEmSJLUBA7okSZIkSW3AgC5JkiRJUhswoEuSJEmS1AYM6JIkSZIktQEDuiRJkiRJbcCALkmSJElSGzCgS5IkSZLUBgzokiRJkiS1AQO6JEmSJEltwIAuSZIkSVIbMKBLkiRJktQGDOiSJEmSJLUBA7okSZIkSW3AgC5JkiRJUhswoEuSJEmS1AYM6JIkSZIktQEDuiRJkiRJbcCALkmSJElSGzCgS5IkSZLUBgzokiRJkiS1AQO6JEmSJEltwIAuSZIkSVIbMKBLkiRJktQGDOiSJEmSJLUBA7okSZIkSW3AgC5JkiRJUhswoEuSJEmS1AYM6JIkSZIktQEDuiRJkiRJbcCALkmSJElSGzCgS5IkSZLUBgzokiRJkiS1AQO6JEmSJEltwIAuSZIkSVIbMKBLkiRJktQGDOiSJEmSJLUBA7okSZIkSW3AgC5JkiRJUhswoEuSJEmS1AYM6JIkSZIktQEDuiRJkiRJbcCALkmSJElSGzCgS5IkSZLUBgzokiRJkiS1AQO6JEmSJEltwIAuSZIkSVIbMKBLkiRJktQGDOiSJEmSJLUBA7okSZIkSW3AgC5JkiRJUhswoEuSJEmS1AYM6JIkSZIktQEDuiRJkiRJbcCALkmSJElSGzCgS5IkSZLUBgzokiRJkiS1AQO6JEmSJEltwIAuSZIkSVIbMKBLkiRJktQGDOiSJEmSJLUBA7okSZIkSW3AgC5JkiRJUhswoEuSJEmS1AYM6JIkSZIktQEDuiRJkiRJbcCALkmSJElSGzCgS5IkSZLUBgzokiRJkiS1AQO6JEmSJEltwIAuSZIkSVIb+P8A+Ni/VD9GMkgAAAASdEVYdEVYSUY6T3JpZW50YXRpb24AMYRY7O8AAAAASUVORK5CYII=;fontSize=10;fontStyle=1" parent="vrEQ0h4mwyizi6MIvwLH-0" vertex="1">
          <mxGeometry x="439.99999999999994" y="620" width="72" height="54" as="geometry" />
        </mxCell>
        <mxCell id="vrEQ0h4mwyizi6MIvwLH-22" value="Edge Computing&lt;div&gt;and Cameras&lt;/div&gt;" style="sketch=0;aspect=fixed;pointerEvents=1;shadow=0;dashed=0;html=1;strokeColor=none;labelPosition=center;verticalLabelPosition=bottom;verticalAlign=top;align=center;fillColor=#BE0000;shape=mxgraph.mscae.enterprise.application_blank;fontStyle=1;gradientColor=none;fontSize=10;" parent="vrEQ0h4mwyizi6MIvwLH-0" vertex="1">
          <mxGeometry x="230" y="630" width="50" height="43" as="geometry" />
        </mxCell>
        <mxCell id="vrEQ0h4mwyizi6MIvwLH-24" value="Material Knowledge&lt;div&gt;Extraction&lt;/div&gt;" style="sketch=0;aspect=fixed;pointerEvents=1;shadow=0;dashed=0;html=1;strokeColor=none;labelPosition=center;verticalLabelPosition=bottom;verticalAlign=top;align=center;fillColor=#BE0000;shape=mxgraph.mscae.enterprise.application_blank;fontStyle=1;fontSize=10;" parent="vrEQ0h4mwyizi6MIvwLH-0" vertex="1">
          <mxGeometry x="259.9999999999998" y="30" width="58.14" height="50" as="geometry" />
        </mxCell>
        <mxCell id="vrEQ0h4mwyizi6MIvwLH-25" value="Distributed Edge&lt;div&gt;Processing&lt;/div&gt;" style="sketch=0;aspect=fixed;pointerEvents=1;shadow=0;dashed=0;html=1;strokeColor=none;labelPosition=center;verticalLabelPosition=bottom;verticalAlign=top;align=center;fillColor=#BE0000;shape=mxgraph.mscae.enterprise.application_blank;fontStyle=1;gradientColor=none;fontSize=10;" parent="vrEQ0h4mwyizi6MIvwLH-0" vertex="1">
          <mxGeometry x="340" y="630" width="50" height="43" as="geometry" />
        </mxCell>
        <mxCell id="vrEQ0h4mwyizi6MIvwLH-26" value="Cross-correlation&lt;div&gt;algorithms&lt;/div&gt;" style="sketch=0;aspect=fixed;pointerEvents=1;shadow=0;dashed=0;html=1;strokeColor=none;labelPosition=center;verticalLabelPosition=bottom;verticalAlign=top;align=center;fillColor=#BE0000;shape=mxgraph.mscae.enterprise.application_blank;fontStyle=1;fontSize=10;" parent="vrEQ0h4mwyizi6MIvwLH-0" vertex="1">
          <mxGeometry x="359.9999999999998" y="30" width="58.14" height="50" as="geometry" />
        </mxCell>
        <mxCell id="uWiy1Z3-CHDcQIck3Mmg-16" value="Simulation&lt;br style=&quot;font-size: 10px;&quot;&gt;Services" style="sketch=0;aspect=fixed;pointerEvents=1;shadow=0;dashed=0;html=1;strokeColor=none;labelPosition=center;verticalLabelPosition=bottom;verticalAlign=top;align=center;fillColor=#BE0000;shape=mxgraph.mscae.enterprise.application_blank;fontStyle=1;gradientColor=none;fontSize=10;" parent="vrEQ0h4mwyizi6MIvwLH-0" vertex="1">
          <mxGeometry x="49.99999999999994" y="30" width="58.14" height="50" as="geometry" />
        </mxCell>
        <mxCell id="uWiy1Z3-CHDcQIck3Mmg-18" value="Digital Thread" style="sketch=0;aspect=fixed;pointerEvents=1;shadow=0;dashed=0;html=1;strokeColor=none;labelPosition=center;verticalLabelPosition=bottom;verticalAlign=top;align=center;fillColor=#BE0000;shape=mxgraph.mscae.enterprise.application_blank;fontStyle=1;fontSize=10;" parent="vrEQ0h4mwyizi6MIvwLH-0" vertex="1">
          <mxGeometry x="149.99999999999977" y="30" width="58.14" height="50" as="geometry" />
        </mxCell>
        <mxCell id="vrEQ0h4mwyizi6MIvwLH-17" value="Reduced&lt;div&gt;Order Model&lt;/div&gt;" style="sketch=0;aspect=fixed;pointerEvents=1;shadow=0;dashed=0;html=1;strokeColor=none;labelPosition=center;verticalLabelPosition=bottom;verticalAlign=top;align=center;fillColor=#BE0000;shape=mxgraph.mscae.enterprise.application_blank;fontStyle=1;gradientColor=none;fontSize=10;" parent="vrEQ0h4mwyizi6MIvwLH-0" vertex="1">
          <mxGeometry x="544.5299999999997" y="310" width="58.14" height="50" as="geometry" />
        </mxCell>
        <mxCell id="uWiy1Z3-CHDcQIck3Mmg-30" value="" style="endArrow=none;html=1;rounded=0;" parent="vrEQ0h4mwyizi6MIvwLH-0" edge="1">
          <mxGeometry width="50" height="50" relative="1" as="geometry">
            <mxPoint x="30" y="140" as="sourcePoint" />
            <mxPoint x="30" y="110" as="targetPoint" />
          </mxGeometry>
        </mxCell>
        <mxCell id="uWiy1Z3-CHDcQIck3Mmg-29" value="" style="endArrow=none;html=1;rounded=0;" parent="vrEQ0h4mwyizi6MIvwLH-0" edge="1">
          <mxGeometry width="50" height="50" relative="1" as="geometry">
            <mxPoint x="30.000000000000057" y="140" as="sourcePoint" />
            <mxPoint x="280" y="140" as="targetPoint" />
          </mxGeometry>
        </mxCell>
        <mxCell id="82SbF4fwL_mv2y3TkE3i-17" value="&lt;p style=&quot;margin-top: 0pt; margin-bottom: 0pt; margin-left: 0in; direction: ltr; unicode-bidi: embed; font-size: 7px;&quot;&gt;&lt;b style=&quot;font-size: 7px;&quot;&gt;Data In Motion&lt;span style=&quot;font-size: 7px;&quot;&gt;&lt;br style=&quot;font-size: 7px;&quot;&gt;&lt;/span&gt;&lt;/b&gt;&lt;/p&gt;&lt;p style=&quot;margin-top: 0pt; margin-bottom: 0pt; margin-left: 0in; direction: ltr; unicode-bidi: embed; font-size: 7px;&quot;&gt;&lt;i style=&quot;font-size: 7px;&quot;&gt;&lt;span style=&quot;font-size: 7px;&quot;&gt;MQTT&lt;/span&gt;&lt;span style=&quot;font-size: 7px;&quot;&gt;,&amp;nbsp;&lt;/span&gt;&lt;/i&gt;&lt;i style=&quot;background-color: initial;&quot;&gt;HTTP publish/subscribe&lt;/i&gt;&lt;/p&gt;" style="text;html=1;strokeColor=none;fillColor=none;align=center;verticalAlign=middle;whiteSpace=wrap;rounded=0;fontFamily=Helvetica;fontSize=7;" parent="vrEQ0h4mwyizi6MIvwLH-0" vertex="1">
          <mxGeometry x="170" y="140" width="94.93" height="40" as="geometry" />
        </mxCell>
        <mxCell id="vrEQ0h4mwyizi6MIvwLH-27" value="" style="endArrow=none;html=1;rounded=0;" parent="vrEQ0h4mwyizi6MIvwLH-0" edge="1">
          <mxGeometry width="50" height="50" relative="1" as="geometry">
            <mxPoint x="280" y="140" as="sourcePoint" />
            <mxPoint x="480" y="140" as="targetPoint" />
          </mxGeometry>
        </mxCell>
        <mxCell id="vrEQ0h4mwyizi6MIvwLH-28" value="" style="endArrow=none;html=1;rounded=0;" parent="vrEQ0h4mwyizi6MIvwLH-0" edge="1">
          <mxGeometry width="50" height="50" relative="1" as="geometry">
            <mxPoint x="480" y="420" as="sourcePoint" />
            <mxPoint x="480" y="140" as="targetPoint" />
          </mxGeometry>
        </mxCell>
        <mxCell id="82SbF4fwL_mv2y3TkE3i-20" value="&lt;p style=&quot;margin-top: 0pt; margin-bottom: 0pt; margin-left: 0in; direction: ltr; unicode-bidi: embed; font-size: 7px;&quot;&gt;&lt;b style=&quot;font-size: 7px;&quot;&gt;NGSI&lt;/b&gt;&lt;/p&gt;" style="text;html=1;strokeColor=none;fillColor=none;align=center;verticalAlign=middle;whiteSpace=wrap;rounded=0;fontFamily=Helvetica;fontSize=7;" parent="vrEQ0h4mwyizi6MIvwLH-0" vertex="1">
          <mxGeometry x="244" y="170" width="40.32" height="20" as="geometry" />
        </mxCell>
        <mxCell id="82SbF4fwL_mv2y3TkE3i-1" value="Process&lt;div&gt;Control Manager&lt;/div&gt;" style="sketch=0;aspect=fixed;pointerEvents=1;shadow=0;dashed=0;html=1;strokeColor=none;labelPosition=center;verticalLabelPosition=bottom;verticalAlign=top;align=center;fillColor=#BE0000;shape=mxgraph.mscae.enterprise.application_blank;fontStyle=1;gradientColor=none;fontSize=10;" parent="vrEQ0h4mwyizi6MIvwLH-0" vertex="1">
          <mxGeometry x="544.5299999999997" y="460" width="58.14" height="50" as="geometry" />
        </mxCell>
        <mxCell id="82SbF4fwL_mv2y3TkE3i-21" value="&lt;p style=&quot;margin-top: 0pt; margin-bottom: 0pt; margin-left: 0in; direction: ltr; unicode-bidi: embed; font-size: 6px;&quot;&gt;&lt;i&gt;OPC UA&lt;/i&gt;&lt;/p&gt;" style="text;html=1;strokeColor=none;fillColor=none;align=center;verticalAlign=middle;whiteSpace=wrap;rounded=0;fontFamily=Helvetica;fontSize=6;" parent="vrEQ0h4mwyizi6MIvwLH-0" vertex="1">
          <mxGeometry x="470" y="560" width="48.93" height="10" as="geometry" />
        </mxCell>
        <mxCell id="82SbF4fwL_mv2y3TkE3i-18" value="&lt;p style=&quot;margin-top: 0pt; margin-bottom: 0pt; margin-left: 0in; direction: ltr; unicode-bidi: embed; font-size: 6px;&quot;&gt;&lt;i&gt;MQTT, OPC UA&lt;/i&gt;&lt;/p&gt;" style="text;html=1;strokeColor=none;fillColor=none;align=center;verticalAlign=middle;whiteSpace=wrap;rounded=0;fontFamily=Helvetica;fontSize=6;" parent="vrEQ0h4mwyizi6MIvwLH-0" vertex="1">
          <mxGeometry x="290" y="570" width="96" height="10" as="geometry" />
        </mxCell>
        <mxCell id="vrEQ0h4mwyizi6MIvwLH-30" value="" style="endArrow=none;html=1;rounded=0;" parent="vrEQ0h4mwyizi6MIvwLH-0" edge="1">
          <mxGeometry width="50" height="50" relative="1" as="geometry">
            <mxPoint x="200" y="610" as="sourcePoint" />
            <mxPoint x="530" y="610" as="targetPoint" />
          </mxGeometry>
        </mxCell>
        <mxCell id="vrEQ0h4mwyizi6MIvwLH-31" value="" style="endArrow=none;html=1;rounded=0;" parent="vrEQ0h4mwyizi6MIvwLH-0" edge="1">
          <mxGeometry width="50" height="50" relative="1" as="geometry">
            <mxPoint x="530" y="630" as="sourcePoint" />
            <mxPoint x="530" y="610" as="targetPoint" />
          </mxGeometry>
        </mxCell>
        <mxCell id="vrEQ0h4mwyizi6MIvwLH-32" value="" style="endArrow=none;html=1;rounded=0;" parent="vrEQ0h4mwyizi6MIvwLH-0" edge="1">
          <mxGeometry width="50" height="50" relative="1" as="geometry">
            <mxPoint x="200" y="630" as="sourcePoint" />
            <mxPoint x="200" y="610" as="targetPoint" />
          </mxGeometry>
        </mxCell>
        <mxCell id="vrEQ0h4mwyizi6MIvwLH-33" value="" style="endArrow=classic;html=1;rounded=0;exitX=0.5;exitY=0;exitDx=0;exitDy=0;exitPerimeter=0;" parent="vrEQ0h4mwyizi6MIvwLH-0" edge="1">
          <mxGeometry width="50" height="50" relative="1" as="geometry">
            <mxPoint x="370" y="610" as="sourcePoint" />
            <mxPoint x="371" y="530" as="targetPoint" />
          </mxGeometry>
        </mxCell>
        <mxCell id="G5twlPVQ4e8QAl2WPa4J-0" value="" style="endArrow=classic;html=1;rounded=0;startArrow=classic;startFill=1;" edge="1" parent="vrEQ0h4mwyizi6MIvwLH-0">
          <mxGeometry width="50" height="50" relative="1" as="geometry">
            <mxPoint x="573.18" y="450" as="sourcePoint" />
            <mxPoint x="573.18" y="400" as="targetPoint" />
          </mxGeometry>
        </mxCell>
        <mxCell id="G5twlPVQ4e8QAl2WPa4J-2" value="" style="endArrow=classic;html=1;rounded=0;entryX=0.443;entryY=-0.009;entryDx=0;entryDy=0;entryPerimeter=0;endFill=1;startArrow=classic;startFill=1;" edge="1" parent="vrEQ0h4mwyizi6MIvwLH-0">
          <mxGeometry width="50" height="50" relative="1" as="geometry">
            <mxPoint x="690" y="170" as="sourcePoint" />
            <mxPoint x="480.00397999999996" y="170" as="targetPoint" />
          </mxGeometry>
        </mxCell>
        <mxCell id="G5twlPVQ4e8QAl2WPa4J-3" value="" style="endArrow=classic;html=1;rounded=0;entryX=0.443;entryY=-0.009;entryDx=0;entryDy=0;entryPerimeter=0;endFill=1;startArrow=classic;startFill=1;" edge="1" parent="vrEQ0h4mwyizi6MIvwLH-0">
          <mxGeometry width="50" height="50" relative="1" as="geometry">
            <mxPoint x="529.21" y="334.76" as="sourcePoint" />
            <mxPoint x="480.00397999999996" y="334.76" as="targetPoint" />
          </mxGeometry>
        </mxCell>
        <mxCell id="G5twlPVQ4e8QAl2WPa4J-4" value="" style="endArrow=none;html=1;rounded=0;entryX=0.443;entryY=-0.009;entryDx=0;entryDy=0;entryPerimeter=0;endFill=0;startArrow=none;startFill=0;" edge="1" parent="vrEQ0h4mwyizi6MIvwLH-0">
          <mxGeometry width="50" height="50" relative="1" as="geometry">
            <mxPoint x="509.46" y="420" as="sourcePoint" />
            <mxPoint x="479.46397999999994" y="420" as="targetPoint" />
          </mxGeometry>
        </mxCell>
        <mxCell id="uWiy1Z3-CHDcQIck3Mmg-19" value="Digital Agorà" style="sketch=0;aspect=fixed;pointerEvents=1;shadow=0;dashed=0;html=1;strokeColor=none;labelPosition=center;verticalLabelPosition=bottom;verticalAlign=top;align=center;fillColor=#BE0000;shape=mxgraph.mscae.enterprise.application_blank;fontStyle=1;gradientColor=none;fontSize=10;" parent="uWiy1Z3-CHDcQIck3Mmg-1" vertex="1">
          <mxGeometry x="1099.9999999999998" y="380" width="58.14" height="50" as="geometry" />
        </mxCell>
        <mxCell id="82SbF4fwL_mv2y3TkE3i-4" value="Techs" parent="uWiy1Z3-CHDcQIck3Mmg-0" />
        <mxCell id="82SbF4fwL_mv2y3TkE3i-5" value="" style="shape=image;verticalLabelPosition=bottom;labelBackgroundColor=default;verticalAlign=top;aspect=fixed;imageAspect=0;image=https://www.fiware.org/wp-content/uploads/2018/05/FW_VERT_noclaim_RGB-forms.png;" parent="82SbF4fwL_mv2y3TkE3i-4" vertex="1">
          <mxGeometry x="490.9599999999999" y="506" width="29.04" height="24" as="geometry" />
        </mxCell>
        <mxCell id="82SbF4fwL_mv2y3TkE3i-6" value="" style="shape=image;verticalLabelPosition=bottom;labelBackgroundColor=default;verticalAlign=top;aspect=fixed;imageAspect=0;image=https://www.fiware.org/wp-content/uploads/2018/05/FW_VERT_noclaim_RGB-forms.png;" parent="82SbF4fwL_mv2y3TkE3i-4" vertex="1">
          <mxGeometry x="490" y="606" width="29.04" height="24" as="geometry" />
        </mxCell>
        <mxCell id="82SbF4fwL_mv2y3TkE3i-9" value="" style="shape=image;verticalLabelPosition=bottom;labelBackgroundColor=default;verticalAlign=top;aspect=fixed;imageAspect=0;image=data:image/png,iVBORw0KGgoAAAANSUhEUgAAAZAAAACYCAYAAADKm78VAAAACXBIWXMAABJ0AAASdAHeZh94AACbv0lEQVR4Xu19B2Bc1ZX2md6lUe/Nkiz33rDBmN47BALpjU2ybBZSIWU3lez+CdnskrKkbEhCIEDoHWzAuODebVm99xlN7+X/zn0zsiyrjGTJGHiPTCSPXrn3vHtPP98hkg+ZAjIFZArIFJApIFNApoBMAZkCMgVkCsgUkCkgU0CmgEwBmQIyBWQKyBSQKSBTQKaATAGZAjIFZArIFJApIFNApoBMAZkCMgVkCsgUkCkgU0CmgEwBmQIyBWQKyBSQKSBTQKaATAGZAjIFZArIFJApIFNApoBMAZkCMgVkCsgUkCkwnAKKDyM5mn1uZcAfMQUjUVOc1IZ4PK5UKSloMuhcVRaj68NIE3nOMgVkCsgUmCwFPjQCpKHXlnGguXF1t92+rNfhWBqIRPNcwWCmSqdPi4cjUWU85kszGhxZRmNnTlr68fzsrP3lRSW7082WwXydQhYqk11Z8vkyBWQKfOAp8IEXIEfdwcy9h4/fuP9o/ScG3M4F/qAvg2IxikXDFIuESAPTw2LUUzQaI6/XQ9G4gpRqLSmVyrhJb+qqqqxoXLt0yW8r8rNfL9WrBz7wK0KeoEwBmQIyBVKkwAdWgOzps1ccaWm98lBDy21dA/bVwXBUo4/HyWLQUW6mleZUlFGmNY2MWhWZTCaK4j+vP0C+QIj6HU7q6uyk/kEvuVweigcCsaqSor2La6qfmFtV8WRuhqXZpFDEU6SxfJpMAZkCMgU+kBT4QAmQ1phX2W1z1tQe7b/5WGfnzS2DfYtCyijB1KBMCIn1s6ppTnEx5ednkVGnJY2Sp89yIE6xxOuNUJgi0SiMlCj1uyPUY/NSS2MTNR2vJ4/bTcUFebVLlyz42/wFNQ+V6XW9H8hVIU9KpoBMAZkCKVDgAyNAdvfaqvbX1n2ysaPjavugf4nH76OYIkZWs4EWz5lNy+bNoQpLJunVRFHM2o9PREnkgevK7XJRDNYJHxqNirQaDen0GtKTmlT4LgIZ5PN5afe+vbR//37qcw7SwiULNl20YvW3K/MK9lhVqnAKtJZPkSkgU0CmwAeKAu97AbK72156uK7htoP19R9zhcILQ7AcNBAGerWKKsuLaf2KlVSclU56zFSHV+eDMHBFYtTpclOf20mOYJC0CiUp4vjwT2WclAoFfo9TmlZNVri8hKtLoxPCZMBmo3cP7qN3dmynNI2+bf3KNU+tWrDkZ+VZaZ0fqJUhT0amgEwBmQITUOB9K0C2tvbN3dfRevPRhubrnR7vsphKQWG4ntItelpSXk7zy8uoPC+HcrVaioAI+BM54mHqtA9Sp22QnAii+5UqCiuVZIjpIFyUFBcuLSKVSgUBAiESc5JeFWFBQTl6C2UZzZShM5E/FqbajnbatmcndbZ1RuaUznru2g2X3F2ZZ2mTV5xMAZkCMgU+LBR43wmQVxvbFxyqbf54S4/talcsMi8aDpIiGkJwXEuzK0toxcK5VJZlhvMJUQ34qpQqHflhO7T12am5v48CEBzigLCIitiHEn/VkEqhgcsLv0N4IAEL1ynwXRSnReHKUpI+jmC7Wk0WCKTc9AwE35Xk9vpp1559tPHNtyk7K/+d6y698Lur55a//WFZPPI8ZQrIFPhwU+B9I0A2tbQtPlDffHO73XmDwxOcHwjFSK2JwTrQUlVBLi2fW0mzivPB6oNkwDsNkYJ8YPq9Hh81dPaSzRugUDRIeq2OjBASelgYCHxAgMQpgN+jKggQiB2lEnEP+Krg0cK9YhAuECTxGGmR3quFxWKAkDFB+FiNBrJa0mCuKKmhqYWefPZZMmlV+6++4Pxfrl+66E8f7mUlz16mgEyBDwMFzmoB0uL3KJp7+qsOd3Z/tKG/71N2f7AiEFaQOqKgLJOBqvPNtKikmCpzcinPYsT7iuC/OIUjOmp0eKnW6aFWp4N8wQAsBgXlWNQ0KzuXcvXplAVLIhpE6m7ATw0+G/X5/ZAaenzUhNtDMEQhPGCRIBbCgkPDggRGDQwT1I4o8EFMBSnAVmR3oQCRWppq6dWNW8iFpK0bL1l/PwTan6xqbejDsIjkOcoUkCnw4aTAWSlA6kNR7dGOtnMPNzbd1Gtzrg8EgvMi0bBSAYvBojfS3JIymjerlEpy0sisN8BukA4fPh2IbzR3OKjbFyK/Du6rSACCIER5RjUtKCuiIks6WXGeGp4sFgZsabQiptHQ2082dwheL7UoJmQBwkWGbIGo+YPvNBBOLFQUSA1W4zo1JIpRr6dMi1nUk3R19dGLL79Ove2dnbdce+1/r1y86L8yNQpZiHw495Y8a5kCH3gKnHUC5NXmjvk7j9X9U7vDcb1HES9WoGrcBHdVmlZDuRYTrV20iGpK8uFGIrB1gsOKyIsMXCci5c29NuGucgbwF5MZqbowGSI+ylRHqTzdSGuqZlEWzoedgawr/B8+YZzSh5hHO1xc9Z195I0g/gHrRAFbhq0PtUIFYaEcEiCcqcXfc5YW/+QYiUGjppwMC4SZibq7OunRx56meEzRcfM1133nvDllD3/gV5E8QZkCMgU+lBQ4KwRIlyOgPdrdv2hPR+ftrb09F3vDwYURBCLCcBOloeBvcV4hzS8tpgpkVeXrlAR+T1FYI+54hPrggmqHu6p5wE0eCJFATIXsKg3x9XEIEE3ATYWaOC0vyqIF+RA8uBbGhVQ/iPvHIIjgvKI2X4wOdXSTPRQWAkSFe3NK72gCRGRoIQ7CQkSDULwG/9YpI2QGJEpmRia1dfXSc8++RJFAsOETt9zwlaUlRS99KFeXPGmZAjIFPtAUSHp/3pNJHg4GjLXNXSv+uH37Z+2+yPmuqKKMWTLFQpSNir+ykjyqKSukmoICykCQW4FgdhSM34M6j8FIkI72dlKX20vucJyccBQpYxwEZ9MkILKsWDoadQoywxWVBlcTT1YJhi/+wB+cw3JEg281qB/Bg4fowEJKWCkJEQvEXvyOe+Nc8SW7uXBCDL8DiRFOMhW5fQHgaDmorDCfLrvoPHrphZer/vqPZ+8/0mMbnJ+ftf09IbL8UJkCMgVkCswQBd4TAVIbj+oONTeu/9ubb37eEaL1vlA0Lxhis0JF6YgrVBcV0JoFNfiZI+IOejBpzpZi99EAigBb+gfoYFsr2eBm8kMsMPNGRAJWgJoAgwjXUhg1HBLF1OEAWdPSKNNoFLJApOomhAIzfz6N/6mBq4yzrViIRCEs+HoVhJFI1pJkjfie5RPHQYQJgwBKHMKDxxblE/GVw+NHIaOK5ldXU/ziMD3y1AuL/v7s8//ROmD7bFl2Vv0MvUf5tjIFZArIFDjjFDijAmSPL2RtbOtb/uQbuz/R5bJd6otG8zlrSg/GbzYoqSg7m5bD6phTwAWAOgqHo1D62ZUVJXswQh1ONx3vH6ReaPpelP7FVJw1hfgExAaSbEUabhC1HyoYICxE9Po45ZqMVJmXR+lwS/FkcUegXeEyMHu2MkTtIFxfRsCXmHRqskUjqBWJ4+8GCBsIGEgS/ItD5/idBQvECcbEh7BKxAFBwjUlSq51RyIxovlhZYyWzllAvit89PSLr5z32KYtDzYOer5cmWFuOONvWX6gTAGZAjIFZoACZ0SA7Bp0ZB/r7r/0qR2HPouq8QXRSCQ3ytXe4RBlgmlXF8JVBZDD6rxcygJv5gI/diiFAUcyCObeCqyqtp4+GvAGyYOgBdd3xAQT5zJAqV5D2BKwIBRg3CpNmIyQCiXmdJpXUkgmvZL6+X4hRtwNA9cKOFkQBHq4tQxGHVlxPzUKA3Os2XCH2cgdQgCdKQPhEcM9lRAccfyMw/yIC78WBsUWB48AQgRX459cPML/Q10J8LWcXh9wtcy0eNFS8uCZb2x559IXwsEf2bzBL2aZdIMz8C7lW8oUkCkgU+CMUmBGBUhdLK7efeTYhU9u3nGXi7Tr/TpTmloFJ1MkLFxGs/JzaUllOQRIDmXDCoFNQSF2H4EZO0GGVrufjvV0U0fYK1JrI1xfrtSiLgO1GmDokUTcgmMjKvyVfyqZuUdcVFSQT/OKiskAvt5hc1PbQB+YOofLOSk3YUEIMRWjQp2BTMC6ysrOgiArpG5YOQ63C4F6CA0IMQ6Ws6DiuAdq24XZouQYCMsYyTGWeGniLNSRxMmL6niFx4NkMCOtP3edKGLc+PLLt1j0mpAzGvxyukrnPqNvWn6YTAGZAjIFppkCMyZA3ugdmPPczr2fRyHgRyJKQzG7lsIeL1nAuyszkBFVUUo1hRlkAf9F5YUAOmQ2zRm4HUinquuzUVu/jYLQ9P2oNlcy2CH+roUFokQGlvA8cVEfAA/h6yI1GLYG/+b7zCmporQ0M2IlNuro74VFEaIAp+eq9ZABuJ5BE3FfJcwMzrRCd0IyRv3U3dlBRelWqsrLIlWGlRwhD9J6/bBaAJfCmVewmljkRFiwsPuKYyDCi8U/pTHxwdZRBOm9Xm5ahSZVVrOJLli7jpz2fuXG7W/fpknThvrDvq/naIyyJTLNC1q+nUwBmQJnjgLTLkBQBKjY2dV6zaa6uvv6XN7VUcQp1DAKMsFUK/JzaC7gRirzrajNAP8FN0b9nQAMsWHO7W4PNdt8yKzyi5hHlBk8MqiiItsJggbuqSjHJMC0OTIhnF1wP8XRWdBs0FOu1UJpqP8IRNXU1NxDLggAP6ydOJh/nLO4hAjibCp2dXEWFYfD+f5KCnFGFsbU5h6AteOjmrx8KrNY8BwLhVAswmCNEQzYi6p2pz9EgyhUjMFVJe4z7IiJ7C58OGMLqcBKXOtlwYmK9auvuppCkbBm05btt+r1xn5HLPw9qxL+NvmQKSBTQKbA+5AC0ypAGkMx7abjx+/cN9B9ry+mLPDDWjCAo2YD6mNleakIkKch7g2WD6uBGa0CKbmASA94qQEoufUDLrKFYKmoEMDW6UmHRlCBgIe0iE+II5laxZdCihi5yA9B72K4nYpzs4ULq629m1oghIL4uxqV6BEhLFhMnMzo47BiOJ7BgimOcXIWVRRCwg9rRhfyUUHYR1m6NLLAVRXTiORffNQCtsSoM8K95Sc3GkyJHC4IuaF8X7ZAWDbxB7+zm82PQkiGQTFmptOVV19LDt/fzS+8/PrHcq05B3DKY+/DdSMPWaaATAGZAiO46mkQ5KA3qNtc3/IvR7oGvhFSKLLZzWMC15wFV9K5cypRCW6mdE6LZYaNjxvaey+sjFaHG1bHAAHnKpGOi5A4TogA+dYMrq0GzIgy7iEdhIGJq8uBWaVB5bceGn65NYuyUAFuABJvq9NHh9q74HbCtSIdV3rOCbEhfSf1+mCkXenn8Mpyjr1YcJERqb8LUMsxJ9dKJgUsIRYKw2iDCA4NIEjT0NdNITWsGgBjqWBhSQWGUmYWC0k1PsB7FD/1sIB0GKcRWWE93X308BOPkb2/r/6uT3/ia2uqa547DdLLl8oUkCkgU+A9ocC0WSB72rpubegZ/BdEIrK52i8Dd67My6S1NeVUYkCQOuF0QoYtMp1i1NjfT/U9NtR1RCmoRvic4xNo2sFJTuz94WC4GnGTAr0O2VmZlJ6eDktEK4ikQWCb4x0m/O7Cp23QQUeaWiGUNJIQEnFuKbwthEYiTsG/87f8HwsphigR5yROBPwI4hecz4WoDAYh3FFCGEgftjOExYJrIcOkokUIBxaWLIjE3zkrK5GhJa7g8hZcxZArigAAGlEkWZSVS7df/xF65Im/Vj/25D9+vL3uaOSc2fPkavX3ZAvID5UpIFNgqhRI+Iamerl03VPNPeuP9wx8yxOjYk6M0kEbr8rNpPMXVFMhtG7kTOE/xAIQQ2gDXC0sFdrd0kkDqCAPwl0VgOYf5iA5KsklNs1F3jHKRgbTIkCYLMnJomrAhJQBwZA/JWDsBQmmbkfh3qH2NnKBaTN8CUOPiEzbFA4+LZFMBaHAdR5SID8GlxTDqHDNCNsRKoxLFUE8Bl+qEF8RMRgeKrvWVOwKw78h/KKYPAfT2T0mOhyyQBLSkIsdueEVhA1SeuP+uMDzuvWamyBrVQueffGVn+xrazo3hSHLp8gUkCkgU+CsocBpC5BNNkfR7ubW79oDkbkcVE7Xq2h2jpXOqSqnfHUcvTnYAQT4EbDi2gE7bW9uo2ak07rR5c8Lhu/D30PQ4GNgriLEITKbYANgZKUQHGVZOtLC4uDgN7xF4sNsnbsMDrrDVN/RQwP+KCwRDbR8jlWwW0pK053oEGm6DI8C5h/jmAiYfxTPjSDm0et1QsAFyYvvoyxZOFjOsRKkfoVxzoDfg+wuL9KOcT0XEfK92KxJHMkiQ3FPnCMJJ6kfOze18sLVtmBOBV1x1TXU22df/LfH//GzettAzURjlv8uU0CmgEyBs4UCpy1AjnW13WYPB88PIlaghcPfCiirRSXZgE1H4yaR4wS0XATDm+1uOtrvoF64rwLQ8EOs4Yuns8OIKzzYTQTtXriNAJOO9KwsBKwlpxUDKHLfcgiHxIeZsQ+puzbUWrD7i2HYuT0tM3dxD8ZpT37GofaJanLpJCTeUggmjAvl5B0OOzk5zRf345a4LAR8eHCHzUV2j1uMX4iPhODge7EgZGtGOiRoFE4d5k8E4wvhfg5AzA+EAtSIfiVllZV08aWXU1d3/+onn3r2oeO9PfPOlsUhj0OmgEwBmQLjUeC0YiCbuxqqXmvs+hSylxBGRlYUGGlVXjpVZ1sgPBALALMNgfl3Ai0XwXVq9YZRXc61F6yNc7wDaa6ifoIryfmQxAWbIhEw2BBqKJTAsRKsOGEEJCfDrNmBbKkgrB6OVxD38RAygzGthGdp6EjGMvgLkXXLVsxJbi6WZIkiQC5KBJP3AZW3Hc2oQkjZLdFlUHE6eo9geB5/jPpRGc9IwApYRlzgyPYOWyE8SA3fGLfif7PVJIL1CcStiEgVBlow5tfS1UqDDgctLaum5WvOQU2Kkv7x2GPr1RrVf7W4HJ8rT7O2yUtXpoBMAZkCZzMFTkuAHOwJfc7t1y7QwMdvQPprCXpuLC6roDSR1hqCJq+lZlR0H+21U7eH6zEQS8B/Qlxw/Qa7jRLUAY4itHMIFFgykAHCndTqdxASf6kQ57DrKplVBfHC3TrI5QxDgOB8I1Jv4dMKo6Mgms+CcXPF+diHVATIqbZ8UxY+yVGwpcOuKLYWjBQIAQIFcZpwxEOEOpMivZYCiONgJgnrieMhErqvEHCJYD0H0oXHC0OI85x4KHBbxQ0m8iAb6ygKHBv6nXDTAXa+pZ/WmjNoGYSIG7R6+eWXLsnMLfh2t9/37QKDceBsXjzy2GQKyBT4cFNgygLk7S5HyZutXTfGlAZSwApIw53Kc7IpE6CIfFPUbpMbQqQZcY9eN6fo4lvGv+L4BAcCEkCEDFYoHWDcKkgBtgAkE4U63U5UpPeTJisDfcwB1c69N6QcKtwvTmakBps8BmEtwAjCt7jXsFqRoVfLQiJ5DDM9BMPncUDgKRNYVuwqY4tCBNPxYQvHDuh4K+pRstIyIVikIkb+m0LArkj3HhJBbIAI1xkLD5ZSOJer3mF52ZGCXN/bQe2eAPnhdvP5gnD7xWlHbT2tnltBK9edR/12J7362htfUIeD8W6X89sFaelcYykfMgVkCsgUOOsoMGUB0m23Mwx7pRIumRgqwU0Inhch3Za7/TEzjYDV93od1No3gIAxNHVDmmjwxNr5EIjtCHJw5pVgxlDfI1DpB90+qo33kA8/M9NNKBxEjQbiCJlmMxivhoB9SGabDvEIVCUirzaKupMY9wJJsbxFshrgaBKVf0khc6Lig0MZUQZQjETIHQiKVFw2LRjWXbJgEucm0HnFnxkNWEClSMIpBkuL5aUDwqIDwrQTBZMRJBCoMF4tiMW9TXoCAdp+5DitnlNFl1x+BdB8/bTxzXc+Y9QZWge8nl9mm8zcrVc+ZArIFJApcFZRYEoCpM4byXz10LGPeUJRKO5ghOCWBYARyTKx+4gzkhQUAD8+1tZNg4gZuFlnBwSIFoFx4TYaj8GDoTNbhk1BCpxvR7aSu99FugEHnFNRSgcuVhbiEYsrSwEDr0EFehY50E3KAbBCFSwciaWnloU12ptgAReD5BD9PzAXUU3CwXMweU7DlZCCJWea5KpCXCPxk+/HQfxI4h7ssosg+m7zAJ7F4ySb0wW3HtxWDBMP1xePl9ugeECvMO6/r6mN1syfTVdefz39w+HQPP/KK1/JKcw/gts+d1atGnkwMgVkCsgUYIV5KlTosdurel2eZTFm2FxEB3sjxwpodCW7mFA5DoZrR/C52+kHGCKYKLR4Tl1lXCrGkxp+iJ4cUtxZcv0I1xHXbgN5V6EHs9ULd48bKLwOhY56kEZb7/LQ9pZ2YlujOMtKFbkZpMGzYQol7iFlYiU/I+d4wos13LV1wv3F6cjJg7Os+F9c3e72eiXRkRAaIusqAX7FQod/ZcysmB6paHojhFocLjg71Xb3Uxeg6L0QeFH0ORFZWThZXC9wuNQUUBuoDX3Z97W0ktqaTjffcitl5xTk/f7Pj/zircNHr5zKe5KvkSkgU0CmwExSYEoCpLWn77JALJ4rWsIiEK5HDMECVFy2EJImjQsCxBlEyi5iCxHOkAKjDILBh+AOYnwowWyT2a4jZsgCRST3svBBIB4JwhRUQpDgdyfg4PvAmOsdLqprb4V7KUqF2WaAFfJNwOpPlk+j0m64YBH1GaOMg4sC+T/+u6gNwb0dXreIgQg3Flsi7I5LzCN5Hqfp2v0+ahkcgPDopQ4ARNrQRdGDuXDFfTBBj2RqcnKuQQhIr1pLTTYbHWlvImtOPl113Y2kNhhm/eXRJx7YcujYhTO5EOR7yxSQKSBTYLIUmLQAqesdNNQ1NV/IeFSioRPU+ez0DMo2pcH64GReDSBF4Nf3BFEkCIgSzrbigLMo7kOtBnf8CwUpgqyt4YV30sAT6bSJoLcUxuYsJi4b5A9nSDFsCCq7Efao7xiklh47WYC3VVNcQkYULirVEnLVWMJJclElPsK6wAdWkSgGFPEZSQIxY2cARG5zq0JWFnpMIaDOwXaGdYd1xBYH2144J8IpZCiZ9CsM1IIKwQYIt3obkgcQNPdzb3YIVzjkEgkAOHWoPuVk8jOtXDEdHepx0/7ebiqaV0E33PgR8nu9NY/94x8/39vSvmiyL1g+X6aATAGZAjNFgUkLkE67Pd8bCpRLDJqRbiEy4LbRCggRCfWWGyq5AdkRAt4HoDoE5HkyZTaOgDNfG0A3QhYkQfwUbBwMmz/MXJMpsZxSyx/OrOKBMqouf1jQRHGeP66j5j4HdfY5ERexCjh3Bfp6iPMT/c1PhkFMMO+TqMmFflLBX/JcAUcCASG6EIqIP+d/qQkF7xSExcPCkOs/wphbGO4nP/7uCEeQbeZH8aGLetB61wMByanG7L7jFrjcxorpw2nMEpAjixTuYsipw5LA4vmHYWW5YXEdRgfGAy19VLNoDn3qc58n2+Dgksef/scv21y+vJlaDPJ9ZQrIFJApMBkKTFqANLU0LwpHo8VJDT+RqZoIjp8Ij4cgGPgYXuktBdAl1xXHClhwSBZJCD8lHCkp4iAJp+S5o00oBisgpDGREzGR4x195EKguiwXnQ11AFoEk+dCwjE8ZKPSh4WFNOBEWi5DmLCbCjdByaAQBH4ICf7wOYyPxYLFj8r6HtRvNA30U6utDynFSGDmtGAIFj6S9JnMS2FxaUcNypGOXjrW5aBZ86vo+puuo66Opg1/+etf/4RmW6WTuZ98rkwBmQIyBWaCApPKwgKCrvaPzzx/mS+uQVWDVEynA2NVcb8N/nBwGKOMsF+HmScj2w7DhxL8eVjcnmtABNggiwsGGoR7SsO1IlDMJWh0fARG1Qg5xz0+uCARQigUgcssiHqT1j6qnFVE1SVldKChC5YNzAUuaBTouifHOUYTLMLqYNcXJsCFkRxoZ+Eh+oTgdyO+Y6gUHwQdWx3usB8xERc54dvy4ztA2IuU3+R8eE7qIaTGyb+6GALu7liQDnW0C7fcfBQaOtx2ev6pFy5HmvOv6/ttX6jOyeqa/J3lK2QKyBSQKTA9FJiUABl0e3Ka29uXBzNyyMAprYxEywFv4fKRSukkuHMpvVUIEGj2CsQQGGJECBBRYJdMs5XcN3xwhIOFRQyB9hjOV0OwqCCm2I6QYNOlu4sMKmHJsOsJvTrwt0hMSzYUK2q7bVRclEeFmWHq6O0VlgCnyQ4P2CeflyRfEngRsiuRsstCT+oXwpIswh0RIcB8XEkeiJDRh37t6F3SZh8Q/dsj7MYS1fUYB1tWol/6icyyk15Tstpw3HeXrC1RIOCuRIOtEO2qr0MPlNl0zsVXkscbozdfeeWqdKvl3p6g91v5OpN3epaCfJcPGwU6JM0M0KEULVRgM8mHTIFJUmBSAqS7tye3u7c3X4lsIoZTF4yfkWYZTZc5sDhOcMmkW0iqp5AEwHiZwyKjieMAcGtxw0IFfnLPDjWsEm7YxOnBklIvIi2kifNZyNJCBlMMMCY9Ng8K9HRUnJdNfhTu2WAhcB/zsXxZoo7jhCQRI5csEQliJQAhCSQTKWssGERWmR+NrABBjyJGp8BbkeIxkvdLEoaiSh1jHCmoJvVehIUVEbGZEASYDYLrMNx0qjI9XX7dDRTweemtzW9/zppmbOz0OX5bZLRyRrN8yBRIiQJHoAi2ul1XvVDbdBOyI7M1sYjr8frWo1l641tl+dlvVWkUzpRuJJ/0oafApATIwKDdijauFhM6CUJiCB+PYJ7C58RBYe45zo2aJO9RBFo7w5cwUx4uQNjSSB4jlXL+t2DCzNyFYOI+GhyO5kwuZDIh+0sJ15VCZHdJ2n4YypMaYFkhPtcxSBqzjnKKM8nZ4gXz52AIZ29JVk8MFwyh5TLCL/+H73j03Dud4dk9KEqMww3HKblswbCYUcFNpeYYCDc8QUoxu9DCmGg0FIUI04qMLQldWDpEWi+Thq/nuQhL6MRslSPqYU5aiRwLSlhdMMZIqbNQhxetcRs76Yr5lXTJFVdTwB/RP/PsG9+wmjNbce3TH/qVLBMgJQrscMfWbW5t/G67z3mRxxNTSyjXMEMofqlRq/tovSv09gF/6GuLDdr2lG4on/ShpsCkBIjb5U0PBEJaPfz+MajmSmagYIQBMNcgigS5doOZv4brQow6CAB8J9xV4ILC9ZQwBoZiGuyGGo3+HE+RzheyJsGEYZIApRfFigigs1USEWlbnBUldfxjQREAxz/e0UhzKtHMCm1p69s6E5XtEvPmPLGku40tiwS7Fwyev2eLKiIsG5aRHNNJxGiEiw5uJQzIBNcau7gY5l0IT+byfO9TXFQM487DT/Re5/knzhkrzVgajyTYhMUmeolwxpmSepDZtu3QETpv/ny64pobqL+rt+Cpp1749+1HDjedM3/BgQ/1SpYnPyEF9nrj8984WHt/Z8R3ngN7yaDUIU4H0YGlxikv3pgyr7/f8RGPu6/3eCx0T41SK7u1JqTqh/uESWVhuVwua9Af0PhQKBdFmmrSZeMA7LoL2jmj1LIAQSIUZZi4Mp078yEjaqhyWyo8HH6k2j0wGcdgJh9GgDwYRJowhBZ/OBVYFChye1z8tPvC1NLeiwJHHVm1BggdVMHjHM70ivA4kTnFH65Fka6HZYHr/MD04mJHjmecqEVPpA1D1vBz+aMDnAo3uYqjYp1jKMkiwvGEwlA8fcgNl+LCG5ZAwIKk3RWkA82tZICVddPN12C84UXPbdry0xa7PTPFO8qnfQgp8G5n/6IdB4/+CAgS53HMTsluX7aSsbyTe0sksuM7nHPh0eb25R9CMslTniQFJiVAOCIehdrvGnQRhEmiAC+KznzISEKMIMD4UGC+bNakG3RkgKtJza4uITTYCpEaQw0FmROyRPRBH6G9j/ZdsgCPT+WMLVHEx9Dr3CkQ9w2L2gy2DNTUw/UYgJHPyckDziLnjKEXCRh+IAK3FH6GEzAikrDA9dwDna0lCASpUv2E9ZGkqRr3YZiTOFxz7KYT0Cu4hq2UKGIinFWWnNsk38MYp0vCKxk3EpAqBjOq3N1U29lJZXNq6NLrrqYjzQ2Xv/L2ps9OzzPlu3zQKPD6gUOLf/e3R//rQHPT9RHA7HDzteTalTINEx+OpvPa15tnN3fbz/+g0UGez/RTYFICRKXVeqFxRzwI4g4CVTbGPcAhLbgbYQ+AAn1gznygfBBuHiWq080CnZeruZXCzQNGnigklLSe4Qwyld9PaEt8H/ERDJ+tAEkQCAgUmOVh1Gl02x3kArJtYX4BauKlroI8Bj6XCwFZaCS7BSbHwz8j3D1wCJ1XInoyVZl/ZyHBAJLCf8zV9yx4EpJDEpDSZ+SRFIqpWl0jr+ex+nBfN57ZPOCkNgjJlevPo4qacnr1rdc/v7XxyNzpXyLyHd/PFKjv7zc++Pvf/WhvXd0FYSh1XPQqMhMRE+Q9EIPiw1bI8E8AqSjeqGrOcXtwVAfz+5ke8tinlwKTEiBYdgFo2ZEgspHswHqKQhPngDZrLX0ON3nhBpLyrCLo3qeiQvTx0CFWcVoZSaPOd6xhS0KIK77ZeevFaNpR4KfTIahuZqiVU/eDEBzDnjG8juMUAZAohGT3lQHBfDU0OVGxzvfgrKzRepFM7/sSG50tPTtXq3f2AvokQhdftJYUOlU1KtXv7wh6jNP8SPl272MKvPzqy1cfrj2+Low1wxl9/BFxPWh+woUlFLnEB/Pk34Nc86RQ6yT8B/mQKTA2BSa1QsCI3ciCCqkQUwjaYIEAKFDJMQMIkQHEOmzomcH5pBosPBOYaUmWkUxGtg4Qn2AXD/42etA81Vd0wp0zhLaL+3KNCae8JuLt4mbCGmGkW9RR2KCt52QXkcXM0CroLihqSHizMNNH+HBYCrxkSMANB4uJq9nZBZfMpIrChFEggcAM68qCP6ogQDk7izOwzsTB4+Bn8by8GCjiHgCU7KTiwio6Z9UGaqhvu3jrjp1Xn4mxyM94f1Bgx46dl2O1ZwT8XlJ4/aJ+S8QkE7qU1P6Z8d6wb/kDK90QjgYNRAfmZqLbmXzIFBiHApMSIBnWjEGDwehVQFD40ZbV19NPKgSjYfGSHRlXzf395EOQmdNrTWDS+egPUoj+6GqsygiyPpjRM3DhWFDro7l4hp87HkS7mKMQCCdndnEPD9ugk7xABy4tySIDEkuGwBm5fa4Aa5RiF7yJkjGM5Fikf+PvIgs4Rhakh2WhDqQiKxPwidx+l3U7EX48yZKZqVXHwo2fFlQjngNB1tY/CNwxBa1duQF4YPmmHbv2faLLNmieqefL933/UKChp0tvtzuKOf09iJilt7ub9Egc0XJaecLrqob7V6x9dsviex1MEGMoeLDEYnzx/TNTeaTvFQUmJUAyrVa7Ua91cRqtA5XYXe0dFA2EEA8AG0aKaVtXH/W7vUiplVJ30wHHUQk3Vg56ietFaiwXx838VJMxBiFwwGTdsEI6e3tQQ6Kn/NxcuJ/YuoBQ4DTgBDIuXzOE65X4PcJ9OgAfH+RqdPyXY9HRhrmzaZ7VQHNz82h2MWIrUNsiaMUrmfuTIucUCSGZO8JKQktDh8dPXYj15JXm0Lrz1tOxY8fOOXj0mJxBM0XqfpAu02g0QYNBb+dswaDHQ7WHD9FgTxfqmUKkh2XNbZYDnCYuEkEk9xUUMG9Ouv4vH1taxY3M5EOmwLgUmBTHy8nKdmaY0zr0SGNljaWvq5NcdhvFUPXNrVwdPh/VAUXWxTEIcG8ddPMCg55mZ6aTBa4uNpGljKwTx4RWxWm8QO7XwYHyMOQZo+PWNzRRXkYuuiemk47Ti7n4DwWJw4/hWVScFhyJo4gR0kWL87PQSjcnHcIQF1hxWWUOLBoQQuSecSHl+MUdpzGTE5eeeASEGuM6agzU7vDQIABNFixehNa/mZmbt23//LQ8TL7J+5oCZVk58dLSireA4+DRYB/0d3TQoV3baaC1gaJoNx2HW0sL4aIElpwO6ey6kM+Zb9T+ZnlN+Z/f1xOXB3/GKDApAbJ2TrWnrKh4kwK+fx20c5fDTt3tbRSCb5WFQwhMtLHPRi2AFImIyvQ4ZcECqIa7p0xvICObyeNo6cMbPSUpMJnMpeGpv8msKgY5jEHTCmsUotbDgbhBcXYmZUKwoYRKquPAg0cL9CshYbRwielYgOBci14HYSLZGZzVZYVbLkNA2QMEUoToGdKeYyZS3GTk53Te6smuPCQKIEbDHUaiEGf9wMdq7euj7Pw8qp49mw7U1q451tVXeDrPk6/9YFBg/YYNr5i0+j0idhbwUk9zI+16eyM1HtxHg62tFO7vo3BvF/naGm2ZYf8PNsyp/PGGDLPzgzF7eRYzTYFJCRAezNzK6q1alaabayFYcDQ3NJLH7Rbgh6zt98GFdby1kwa5yI/ZG7hoKRo+LcjLoyxkfrCP9UwdUqAcjjPAnHCvcm4ja++3A0NLQRXFRQToBjBh7ZjD0SNGYoz7yYx+7tloUWswGqjBF6I2aG7OsI+ydFqqhEssDcI0Ci1OADCesYPpzQjBavJBCPYAwgXyhJYuWsxzrnz9rTdvO2NDkR901lLgxvXrWq6+8oqfWAya/Xput4y129vSTHvffpO2Pv80vfG3v9Ibf324v3X75ifWlub9aZ1F5ThrJyMP7KyjwKQFyJyqytZMa1o7o+aqwbA86LzX0dhIPrivuLAvCkZbP4B2s139ECBshSihrcepqiCHavKzEYRGFkiij3o0FhKZUCdXfk+NRlITqGRHQSmonfxIjak4/RWNn9Cv43hrC1lRkDcrO4vS4z5hiSTz4BXc112JTCu4rioAx7Isz0orygupoiCLegYG6K2Dh2hzYzMdtXtEu96KvHwqT08jI8O2RILAz+IkgWRalpQyOZplNdEsT8wnOa9Tf3K6AvcqCUFI96OZVT/8WHmFBZSWlkaHDh28sHPAPimomonGJP/9/UmBH99152u3XnvNV0rzc15AgW8nlCGfIRD2I1jeZwkHdmyYO+f+r3z0tn+7aP5s+/tzhvKo3ysKTJrBXLpyYfcX//0/X2t+863linhcpUIWbPvxOkqH+6R4ViWhUIQ68TnU0k2FFjMZM1B/AcU8DT6f+eVAyWWEWXQR9IPBR8FsRd2F6GTIRwKufQxqTKYAj5k240mJREQunOKcdxQRBhC76EOr2Z6uLpoDK0QXdtNBOwojRWU60hkR69DCuio2WWhtWR4VIWAeBGZQg9NDR6C5uZDmaHNFqNvbTzWDQaosKKSFRQXoCYIYi9MOlF4E6CNqPJcRdZPFilKmC2N2pXoMb8TF14w1d5GKDLqhky4NAOakBvGdMrT3PXRgX1VHVye7sdpSfaZ83geXAt/7p89tfnr7uwd3Hji0qr9/sEIZUamNFr19bnnF7jtvvrL+Lz/7/gd38vLMZowCkxYgPJLVK1c88e7Bgx/pdDhmC80ecY/u48cpMyOT9JlZKFZSULPNRQebushQraeCNK2IGRTqlLS8KAdlF1GqtdmgmatR7MdwIOB+zGAToIQzMVsRHOfsMPDbIBcYIn5jhYArKywlZ6ydwgM2AjipsBbYEZWdYaKMdBPwvGBm4ZtwGJo+ovExlR5QKEoaQCpzyNtDLmR4zZ9XScsXVJBrL9B/vUG4lrhPSaJtLefYQ0DOdEI943jZ0RnRWFBCsxEHefutTWXHGurnywJkJlbT+/OeN5yzxoGRv/b+HL086rORApN2YfEkFi+ae3heddVrJlgPOrijDGDIdgTkOuuOA3EQddKwLAJI9T3aY6P9bd3U50OqK67TwwYoNalpRWk+VVmtZIYg0aFuBP0IkMWFIj1kaEkdCGeG3aq4OBAOqwgElwPFkK0IIHLm1OzCHJqVYSAT3FZGMHyOjCDzGLBYWgg4BfUgA7l70AP8LMYRQlovMs6isEo8+L0BgmdfbT2wwfw0r2KWiItwijDQtkQBZdKNJtWKzNyhBkwFetULCP38/HyGwNe39XYtnbknyneWKSBT4MNOgSkJkKUlBbH1a1b+IT89rZbjGaKSFam8bcdqqb32OCkArBhG4LoPguFIdx+aIXWSHV384LwC+w5RCSrCV1YUUw1qRKzA09Jzau94/TGm8JaGCgFFFEb6CAuH3WUKDQrxNNSPPuo9EAAFFiOEWiFVp1nIClshO82EbogKqgUMym4IwXfrW6gRRZOcZcb4QVyFxTEThnzwQYi0IeZzpKGe/AhQzikrJasOOVmYu4JrXxIupmRcZLTCyClM75RLGJLCEw4KZOIs9IbnuvzOgb5FbfY+zjqWD5kCMgVkCkw7BabkwuJRrFi8+OCOd3c9N+DcWx6OxPUKQKJ7unshRI6R1qSjjLIS8iGFF9hM8MLDDa8K04KKHMoA82WwxRIzipdgibDFcdTuRHtcdBac9umdfEMGI+SDUxoRvYErK0odgGQpzzNSRXoG6atQUQ9BF4UAONJ0nHqQHhtSmyiKMSZrDgX0iWgVxYF59E6HSAxDIPWia6C3p4dml5XT7PJyamxpJTsYehjuvDhmzNbPTB7cp4SRiCMoDjEYDJSVk0N2pz3P4/MxNtZZ17Fwjz+a7Y+EC/oGBysAqZ+NmpsMSGYgqCE3GgTWafRurVZrA5Ky3WxWNKwzmd5XDY5aonGtMxQuQSvkHGDEZbvd3jy0D0hHyrge2YBqWNm8IIDZGfcYtJr27Axrk1WraZqv05yRFNrdg76Clt6+JfDKZjKWhFmv7s7QaurW5+W1zuQ6He/eB33+NGdYUeYPBTNC/oDB4/WauIoeLa2ZNYTRJtuPf3vTrdYBtVbjPD9N/74M+u92OHO8sVieOxzI8gZD1pA/jA4YKiSxQsVVKkOoKQtg2p4sq74V76V/pSE92bjovXo1Yz53ygJk+azi2JOvbvptbUvzmvbegfUxMDD29PdCWMRQXFeuDFN2eSn5kCbbCYsk1NQp4EyWVJSRBVo5q8Xl6cjPKi8iL7hzg9Mt0m05I0u4sKDd8zFR4Hx4ZftE50oBZ76p9GGh1Rfwkw1B9ArEQ2Yh3bgg3UxHAQ9icwKuRWNGXESCnwd+YuJIZHdxYJ5vA4HIjaWAcy/a6CpQnV9dVkGFuXAjdXYg6B6G24v7onAUiK9IpgvgZwL+XcRdTtNrFxcWnBRr0cCNloEMM5/PoQ8Gg/zgs+LY3T9gtnl81XV273WvHjh2jicUqIadlofGXkbu1cLj5xbG3DOGQSrBLBDqVblB4c77d+3ZU5Sd/VKewbz7svysprNiQqMMYpc7tKTD6T7v1SNNq+0B30KgIOR6g4F01BsZwBwSjcuwzjljkFsX48WjAVtY197RY1SrG39/rGELQEhfy9Vq96+wWtzTPc9j/rhmf2vHJ18+WHsngDgXRjhJEgdw3TxWne7g3xu6Hry1qvDR6X7uWPc7Go6kdw3aF3QMDFzw8v7D61whqgIPsCK9xsy1yCgG5t3Ky5oXSAR70Rttah8ELt/AD989dDjXrH61wGrecW1xyVmrYNS63Uq711/S6Qqe2+fyrHhx37FlgXgkP6xUZsGTYQH4K5w4XAMgqtGYSbDA9OvV0XaDRnHgv/ceeis3LW1PUXp6w3k5Vt+ZejepPOe0Cxfu+/mDFz2z6Z3fuHye6ggQav1gZAqNirIrS6hy6SIy5pUCLwpxAbTBrU5Lp9VzS2ku2s1mCx6OroIMTe6O0rutHXTM5QGsArew5Y3FwWsm5/ic9VQBwteOPS12PSWv4a6HDB53cX4RXVSRRli11Ivv9nUgXbe+gzw8H600Dk4FHjpOGhMLBDiMGOMLa1wDiyMXRZP5GRkUhzuptbdVpPsGESmKY05JK2gI6TQhREYKkMnFgQBiHwtSAao5r5lTDngVPf3wB/8Owdi388ff+MbNq2oWvKeb67XW5rL6Qc9H+gPhG1xR5ZxoKJ4hUr5Z8MISTCLCin6RQ+/uhMWWdJPCLegDgkBrrsW0szgr85mSDN1r52acHRvq7X7Pmjqn4/aOQdfVzmC4IojWBhG4NznexnPi4lJGMeP2ybymky5NqSxKWltsGTMelUGjteVqNdsLNaqnSwqzN56XkzYtVsHReFz9em3TL5ttni86Q2w8MyAWdiGbIIyHxVVRCtXA4mLdnZ+uKH8qFQYy1XNetvcv77QPXtbrcF/iDEQXggVkxYAKwQjXYm8wH8DwTqwN6UlJ0EeBWwfFMxaPBIxqZVuWRvVGmUn/eHmGZefakjz/VMc1ndfttjsyGp3OSzqcvivsvtA66Kr5MDkt0rqXAC0hwCU4JeYxYzyc17+Wor1Grao+I938SqVF+/SNxYVHp3OsU73XaQsQfvCnv/XvX9l+4OB3Yapn+eH756I9BaLQeeUVVLxgIWXllWBxqsiISvDidCMBKoGWFhWhAE8yBtgpVDcYoG0NLdTlc1MQ8Ou+BJ4WryBe3MMrxYfXIp6OABG9oPFy5pktdG5FKZXD2dMditHbdXXU4EAPci16i4xCWdHj/SS5xgJEUh54ERjxRyxqyocVoADuVltXN6DuGXNIgzM404uRgocvnFPTlycrQPQQUaVaBV29YBa6RSroBz/8AdntvTt/8o1v3bR67vyOqS6Q07nuzb7ewrrOnhu6nN5PBDS65W4Ej/x4YaoQLA2GwgeT4PeX7CXPQJsMCSMd3KBLomjy3XOsTc3ox/joKdafbza8Vp5l/v0tVaVvnc44T+fa/Y5Q+c7mpi90+wLXOSKReQytybU5wpIWPWrg5mShmEhVZ9Qptj74YCEidQSUBIga9GCnaAzuYEU0xB09I9lGw65ik/nhuYV5T66yGm1THevhgUHdzo6OTzf7w7/oD8T1/gjUe0ASMRJDcg8lhVlO3PHKeWUFt19ZNgvVqdN7bLHZaur7B25ss3tvc3r9c4IU10bV8ETAG8CuXh4Ps1IeizA7BH1OjCEJeiq2DwRxjBvWIdaoZnSMeHgg26Tdmpdh+cuCoryXzk1Le08EybFg2Fjb3nVFc6/thoFg+AIPqQpD8Kgo4PIWMVDWXPHhty7RPiE6TukhlHC587rn8yMB7O0Qpamih0syzI9U5GT+/dqi/ObpfUOTu9uUXVjDH3PDVVf8adDlnH20sfGzsDh1Wm4aBdHaXdsssKbMagNZMnKwQzTU4/LRnuMtYLIGmgdLJB03MmClVGeAJRQX0rttTXB5+SkAxNuYAta12HzDiDy5+aV0dlNfL6XrsHkLctFnI0Jd3BxLZRY1KujBOHSPsS0bhOjFQmCOFxc94kMoWIwjVbkIc8ovyIcQ6RFdFBn9FyWYzBYFk5yugzPHjKC7CXRzcxwHvePRNAjyDylxZ/g45A8pjnR2Xr7xYP03olr9mqDCoPeCE0SB2qwArAxvnZjgCtL8OcFB1ADxz6SlJ2pyeIdxYWaicRfjmolNp0JsSpXT5QneMejtP+fBXUf/Nq8o56ELC3POqKX1eqvrko21Df/a4nZdGYI2H+W5YV4C/j9hWQjkZzEP1paYOSa44YiaICZHCHNlhYWBO5VQQODiUHtd3nOcLt98m8t78QvN9l9fXZH55mRf5+7G9rQ//+OZ++K5uV8MZWTr42q0ZNagHzrIz8MQz0xY5qIfSESxAijPK/D165N91ljnN8biygMdPbe+1dh+j80bXIEGNhTRWiQs00QzOCE4GClYfCRFgmnJCSEnKY1MX/FHKCDMjHlFabWgVzS7iyLX9Tg9l/b6PU8/2tL8Xx8tr9g1XXNI5T5bPYPVrx6qv6fP5b0ySFQahRs8gnFKDlpJ6AnEcKEgS/NLup/xy9AjpPUj/Zu5RpCDsLBoCfP0KqILGpyhn/Q42q/70/GGny4qK3hpmd7EW+OMH9MiQK49b7XzkZdf+fGjTz5fUtvceg23jVUAut2IheFsaadGpPTOXriYFGnZFASDaAW8uvpYHdhoDc3LRyYWRsGCpAbQ71FFESlR5NcMyBAvVji7AgyJeMhMUSeENp8tLieV5GSQByqOD++KNWUlXGmMfTXyYEEymunGcVEh79gtg4XtDKBfSPcAZQBMsqiggPr6BsRCgNmNkyRTfbgFdTrzY9cHY3yZocn1+xzU0txGmdnZfvCgM7qwttpcBRuP1n6p0+P9fFBhzotDkRCtgllkYhexK0dYcNhSLEjiSOVG5F+4/wTzSLiwlFxHw+4V/il6eDN12MWFe/HtwPEiSgO5FbFZTZ7Ad5zNnec+1dL27RvLS7edDh1TuXa/05dzsH3wzs0trR+3RUOzfbCYo4kgmRprR9pUCTy0hALCoiGc0JijvK6A8KyGQsX5gWKuCSYj4mq4FyPoMkabGmCZ3jiltfjDN/d0dKx7cF/9/55fWfwfC9MMKSdG/O6RJ+461NX1pfkbMi3c4C2JvisYGAepWe+R+LD4d1ihzx7wBNfim2kRIAe8vrS36xq+XD/o+1dHRJkbUllgLUjaOCe8c7o7M1YutI3BS6Hi+BdLFtE+GgoXgFB5AShBF0YQlvpJS+tCcjBjJUE5C3KrA/AK7DBDpy90+4C9ffFvDh//xfKywr+ssljY0TFjR1Msqjja33PVG4eOf6MvZDgvotaL+XFii9AfWDhgLfDQGfZJgd85gYiPQACvcpj1gbgfYq5JCx08QghJnpe0sgL8U6VRRGPBNUd6Bn834PU89OJA76+uys7rnrEJjnHjaREgfO87rri869eP/eMe+9+fNfbYXRf6QvA9sY8VAfT+5lbEQdRUWbOYzLlpFEEEvdU1SPEDh7AEFtHcIquoVldrwlSdD0sFpnWsrYfq0Do3wngpk1LUmdOczN7ZkTAELiI0GukYcouBKXkQo/FCaEVNHN5ntwlzqZP8VBO/m0SvDiEUGCIbi3oQyQEcP8nMQdwnMwO9SRygCQfWAQEPN47kCjvh/UwKFP76lLjIMK1VbLBhhxGxmtxMKxiuinp7e8kHmP1io9muUWvOWNDt9f6e2Rvrj/2kPxy/yQ8tV4r3JK0zieocNEZgEEWYXgqg8NEDZcKNXhX8MwrmkaSFGcjHRnwys6ykT7eAJWix+XRgEKyysuCFx56FCWjNCANdQf8GZ2PnH/5S2/b9j88pfWzilzW1M7b5fJVvtzR/q9kZ+ERQpdIyVxIdWsCB2V0lHSw8uGUACkphTfs8DjE/v9dHAfSlQWID0sRVpAfsD8/NjDma0q0QKBJzZGbO0wTSA6aKWAqvWZ5nLFrQ4hi8W9kaUu92uH+KIDswmMc/Hntz07wf/PyPHzWWllriiI1JLlSJccPCGdoHYi/gIxiy6OiprTjsCCoWWHWT3AQnj2fboDP/7br6r3a4A593kCo9hneo5bWBPkJMMaYRfHZwzcBqRk0Y09KFImQv2jUPwoKPol4rzOsCTFQDAFS1UU9Z+bmUjhijzgCfMwsMIfwSaBbJ/R1FfFWhn9/odP8k3NyUvcXe+9/nZs5MbORgMGLd0dHz6aPtnV8eADhFAAXTUmdTzBEufcFPmPJQqjluE0cRssfloADabftRSuAGgoVYNWx1sxfBbBJwRBZAJGmxRlRQIqLs7mSPCP7OSgcvOfbueMKqnJA9+C1PuG/Os62td19XVnZGrfBpEyBMgC/ddlPDr/721Bcff+r5B1v67Jf68OKV3EQK0CEdx2tJG0MjJuN8aOiowwiiox5SX7fCElGoZ1FlfhaBXGILlmFTBfNj5OxspwEORkrNzMVP7k3Oy4wXzUjwwhPM9+QYBeu3ySOxT8Q/WSngv4kyFLwcNzRhATmPDaQBo4uwO+UkLi4JJoFTNVrIC7uQa02E/zZRL6KE1WlzIa4TDVJFaTlcTDpq6+wC5IuUbMFBVmGkJgQCLxS+npnH2GE1SfiJ86DJKDFGji2VoH4liMr4Y4CW4ZuDCR9bUll+RgTIC91dy95paPx/vVHlhQEs7Ch6bgtLTWxsCaGYYfG5g6Wvxw5U2BZqaWqgQVhoIa7q90vDFHERzF2NNcK/Z8OqKp5bhX4nxZSZWwArnoUICjqh6rOmKm08CCkwR28sMudQ7+B//PlgY+gTiyqnPQi83eUu3VrX8G/NPu/HPXixRjAwFazMKDTkpMoiEA8QX+BOlh57P7ISW6i5/ijZ4SaNoZslLymen3Dds9at11NGaRGVlKMItagQiMqF8FIkmby0agXDZ+UEPz2kSD/cP/hNhEiUu+y++1dmGrnF5pjHa29svNgdCpQq+IHoH8PxGQYVjfP6lvwnwgLhX6XOmrwfOC4Sz8U/GGkUnpipHUeCUcvrdc3faLB5/ymkUhv8eLaaLR6mF9OJBQhurYHrzo90/7DbgZ4lR6m7rYt60WlTj3eNjBq0zuZ9grO5Lw/GmpaVRWWzKykPkD3lVdXgJ9xamqNLkjUnwQbBBQ4F1hkL5gKZ+qvxUDiG9NkHV1jTpzUuctgfs77b0vz1Y/32fwnAXxXGu2OAUzEGQTZuGyHVynHzORca8TmBnN1S30AOYOs58W9OrBDJFSzUweN08IgYTEbKLymlUsBD5RQUk1JvEWuc5ynFCSXhLwqbVVpVjzd60+HOfufLrQ1fv6KsSpJIZ+CYVgHC4/3y7TfW//oPf7jnkVfefLCp37GB28BKPfSi1N1xiJSmOOXOXgBtAimyoPBxaBnhoyEwi3k0NzOTTKBLHrQwTa4J2UsZdAAZUV0ikgYnB/dch3UCqCksKFS2cybGNBFJ9FCHeQ+WIO7IoVDp3qM5q8Z+KHddFBYP90jHzwAvaCwqLyycjo4eKsDiry4tpfa+HvTw8MNQYWsH2qqkxEpJZ6yBSv6Ekx4ksLUwKD6XUY0ZRBFxVioASvCywjwAQ0YB626j3Xv3Q2tR20rLCndOE3nGvc0r3f7ViF39d09Uv8rPdT5wT2ghSDnTisnJwpBbAEAdp0E09hrYd8zp6Ozq1EaizhK10asyG8LxtHQYZBG1N+DNcHnc+ZFYvMAbDGvcfSE6bEOjMiRdVC9aSHnMMLBIWHvm0hoFu0uFRs0xFmwmgD/vt7kfePhIu/qT80sen6751wdChlcP1f5zlzfwkTDiY5xtF/byquH3BKEmtGCMAgkCIcTQWuvrqLP+iCdo7x0wKGLuEq0uGtUiy4FfXzSmcXvc6cFQODfsCyn9bTE6CFdvVmEhlcyeQ7NmzyVDVrp4v0zCkxJI4BoJxw2aY47IN21Hmot2BuL/vEqvGFOItHW2zYnGfBakdwGHDvHGhFWYzCocbtwLQFE8TwPCxmMqIwQd84cpCRBYHoUvHjj+jcZA/CtxLTISsQbE7IXMwlOYaYIZMqyRd3CQeloPUVvdYYfKE7blIfRTUJIbRkp3JBIMa1EXYnR7AlmBcCQ7xLEAWPHNO/dRf107eQHaWgX3uBoWHEw4vAK4tTARzuBijZ73VlyryWlw0DcCLf7iHYOxe1dnKKdFqap1BPTvNjd8/khf/1fcWpMJzXkwNzSs4FYLHPjGR8saJNZ9HDHRgc7j1NnQFLZ1dg9oQjFnTiwWRG+iCBQrhS/oM/uDASuInetHNmoESjfzxnbg782aO59mzVlIpmx4Z3A/tkH4EAF58EqhXoOPtAcjn3F3DFqe6en75vX5uc3TtfbHu8+0CxB+2Jc++9kjP/39n+568uXXH+obtJ3D34VAzLAvQO11jWCSeiqtrsG+0wLyhHt7D9K7sEQMc+ZRWSb8oyCMBcxgflYxtBMT7evspQGY/3FonSHOnQflNKdkLIw3zeFiRkLmHX6wpoxaBGhBYdLDYheac8Km50WePJLsPBWbXrSe5c3KrgfOdIFAcWD+sEeoHMH6WehmWA8t3IOsCgHLLrSrRHZW4oEjx8lMSqQv4u+c/hcDmnE6rqsEYGWm0STmcLi2gRqbm+AFVPWVl+TVzvQi2j0QKn67oelbrmBoFRdN8uiS1hm7JbmwUYVBq5BmPNjV4eytq3uhQEOvbrhg3Z6SooLB3OwcH6xKTD0ej8RDit6BfiPGn32stnFFfXPbx7z+4Cquo+gDgrIbbQNmweSvWAyGgcw5dn1I1JCem9xUPgWVHevr++5TLV0tN5afvhBFHr96a1PTF5o97i/4VXqdAhYQB/hjHM8R2jvgbxJ9YOIOB/UcPdoUdtp2rKgsfqX6vOUHirLSXUqdKpIIBCv8Pp8G8jPneO3xFY3tfZd1OT3rsJ4z7LC47ehX4wQ6wpJ1a0kLYEwpceNkNUlkTqEXrTMUuelgU/tenPDf47znk/Y4MzdpHJIVn7yzNA/pe8lgD6tYa57K8XpHa/nmo7Xf6A0pPx1XpUm3EIHxxN14DyMgpgoi7uV2h73tLQeyiN5acu5578wuqGgx6/RevV4fMBkMbrvDYXE4HIbaxqbSQ8dq17d0dF6HfbREiXfg7uui49xawemkBavXUFp2gYg/SugPyQPzBC8Jx2PZ7YODn9od87YfdAceWGRh9XPqRy2y2nYcr/tYvcv5r3Gj0cQRPWHJwdpgL4bIrGNMPLgrtXBVOdrbuqMD7ZvnZae/Uzyn5nBFfmEvZHqIC2e1GmWou687A11Tcw8eO7qyq79nPeZ9bjiutAbgAq/dt59sA4O07Jy1ZIUVHkdmp4IFk6DribXBfMQXDt10sLFtcNPA4DcvzM5wTH2GqV05IwKEH/2tz33q8A9+/dBdz73y6m9QRLOS106ItVK0YG07dhRki8EMrSKl2QgkW6LDbR3wDUboklWLqAwMUQnNMg8cSJeXCSDDMB3s8Amt3MlMA+fHBFYJF2RJZuvpHhywDEKACM+SOPiXqd438VKHNgx3aOR/hNGC1kud3Z1UU11Jy+ZW07GGZgS9/diuqM8X/n2Oi4xuVyW/FbYN/qHHmK1g2lWIrQBijAYG3LRt5y7yQXvJz886tmT+nLbTpct41++zBbLf3H/oxx1h//VhmNynHBAeOsAhxxjq3uM8bIoEHrjt4vOf/eIF541nYrM23YfP0V8/+vSzm7dsu3xf/fFveyLRhUFonkcxPwQQaN6yFRRHqji7ZEYe7FByxWnBvsbW72zqsd95YX7maQUXtzW23HHIPnivR6NPJ045FS9AsnxEwi40ah3WsxZ4/t1tda/Oz0v77UW3XPrmFTWV4wW6G3GXdx95fePDT7y48fLDDfX3Ig631O9xU3v9MeFaXbRmLRIwoL3jRFEvkDjYehD5fAqFua3XftffGzqO3FpVvHG0dwV31SmLSVJuxuefwsXEuQ6TPDa1tRa/tu/I/V5D2m2cZXXSMVTIyxwWwsPn7jQGvH9Yf+7aP926Yv5YGrMrcY8G/Nz0i78/9X8vb3rr9qa29jvBL8oifg+U0nrSaQ20/NwM0sA65SZyYrtxs7iEkIyhSDkai6XV2wa+bLVoDuOvr0xyakOn17ocmhe3vPv5dnfsPsrKKAgJze7E3VjwRuOIjinCZFJFotpIYFN+ZvqDay+85fULa6rGcqHxGuXajrce+sffH3pj08ZLd9S13R1UqM7xw1PRehRrApmV56w/n6xF5cKNLx0n1Fk1hKc/EFM6Y8pPHG3rbd7j9D6wPN00o8kD0+UBGvVdfO9LX9hzzYUXfCVDr9sbZ78nfBpx9mkiwNvd1Eh9MM9CXvg+sTsCKgOwpwbRb+MINaLHd5yb32D7ZWGEq0ryaFFhNplhCmpZo4XbZjjoIlfBT/kQmVNYaGAAIcQPRGYMV9UPQcxP+c7J7Y6fUvaQ0IRw/0H4/JtbgQCM5y0sK6NcBO51mBf7zYWvNIXpcA1BOgKxcwryqMyKLCA8ZR/8x3t27+MMjv4Vy5e9tKZyzoxlYCGIm/bm0WPf7KX4xwMIcDPSGVseyZARuxg5hqGA2zFNEXunOtv6xT9+9hP/N4HwOInYX/roDc7HfvX//n7dBRd8PFur22zAvSLIlju+axeAO+sRW5O8K6fUzMCNxn5oV1x9xaG23s8ecHFl0tSOP+0+etmxPte9AZ0xL4h0dKwQSesbEvJYN/DdI8zvyQwG/vPadcu++LPP3/HyBMJjaDB3XHKR+5n/+skTt115+UfKctL/ZooGIzEnXDqoReqob+KcWiGseE0Mz9hjd1MIcSKnQll1qLPru286PMWjzRDZSZzrmhgvkyFlUqR8YvK5Ozq6rM9v3fNde0x/W0ifJhRDKQ4mZdQlf+eYgMbv71xSXHDn7Zdt+P44wuOUKd19642tr/3vf99/2do1n8nRaw5ZoY2r0GmxZf8Bqt+/D/RC158RI2dawU9EIa2SfDpN+YGuzm8/39JeMJUVcaDPpnh841ufrXO47gtmZhYEEVdijLyh9SA8JFyvFIY7PEI5evXfL1w090vfufXK58YRHicN5Qs33ep8/FcPPfHRq666I99o/KsJ98tBrMzZ0U51u3eTDW5g5lUihpbIVuSfImtPa0QJglHPxaLHeuwXTmWOk7lm0otkMjfnc//tX/95+5UXbbgn05J2kJmLmovzIAD8Xie1NB4X0CfRAHCcohrERNQAX+yhLYePUENfP5itFOi2ghnNLcynhSXFlM1ot7hRFC6hFPjsKcNNgixKP6XpC1uDtZYhfYvhVAQHnOx0TzqfrxZAk9xASwTk+YOqdFgZ/U4/tbf3kwVCYCGCZeWmNMrAStcz/uIYExN+/oRCyQWQuQjIVwI+Hzlr1AvQxzc2bQb+lYsK8/N3XXPl5a+e1uDHufigvV/xzr79n+xwe+70qFWKANxoHOTkIyn8mHxBmPAqRbS73Jrx/a+fe86WqY7nP++9+8BtN1z/mSyj6WUjlGIfmpjVHzxAXicUjVOQmyUkAk7xRDqqusflv72h37FyKs9+Ys+eefubO7/vi6lrwsCrEWjOAtMMPxPxKZ6nGZaQWRn587r5835168rlXVN51o++9NmGj91w7d3l+dl/gMZKMShWx/cdoSAahXECZ9Itk0Qw4Oey9RWAsHTG6PxDra13jCpARMrOyCMpSEZb31L8DvdXTWSljLzrw88+8xVHRHFHDMIjJFojcEyAe/5wYogUE+QPr93KjKxfr66e9cpSq2lKrqRfffebm668YP1nzErFUS4XUCOL68juXejz04G2C4AUSjxL5JuJgk3pA40eioXy3GaX46NTeU9vbdu1oaG3/x5FVm5ByGCB4osacZEII9FSKg7FHNkND5i/JcXFP71sViFbT5M+fvqvdzXfes2198zKL3hQhY6nCqF4o06upW1o3Uu05YxOKUuLxxJSoKxYayxttbvu2tjVkT7pB0/igtPjkCk+6If3fOXti84/9+tmvfII+63ZTcn53T5oky3QtDqbWhB4QmYTXgY3bDrU3k7b645RN7ocBvEiGMU3HxkZi0uKaHYusrWQpQCeJaSv9NKSS1P6mfwuxeFJWVV8DyEzpEWe1JZSvcd450mALQjKs+uBNz40R2YLfXY39fR0wgIx0qrqKmBxIXUPN9KDNvwRMPdc5pXYgLw4RWAQ4+O/z0XQtQAmexzayD50Sjxw5CgygwwDa89Z+ddzK6t7pmPso91j79HaNQebmu8KGwyWQVRNs+tN+NBxclJA83VKuA3SDdptS8uKd5zuWO79wscbr770gnstGtURI2IqA+2t1N/dLhjFSIErqpXxH2dreRXquUc6Oj+3yxs0TGYMbzY2ZL+2Zef3yGJdHYPloUUqpRYBWlHcKFaINGd+H2pFuKG6JP/h88uyeifzjJHn3nXLjX03X335v2catS8oAuh4OdhH+3ZsE+93+JEsqhNrCbSPILGk1xe4882+/rKR9wSW1DDnSuqjw7wmdd0PH/7drQ099s8bsgtMcb0Z2rFGoA2cOFjhw+Zmd5+CWmdlWJ9dZGIgoakf//mNu3evXLzwu/BIDCiwHzgVuK72KCHyLm460pIXOiF4DDPYNqfvzsdbWxdN5ukv7jqQv2Xfvq/rMnOq44iZMxq3UOhOskhxRywS3ruZauWzVxblHprMM0aee++nPtJ/1cUX/iTLYtzECBfI/aUOtM0Iw3XHiT68EpkvSB9GnJQSTIKIkfQFQuubB5wXn87zJ7r2jAgQHsQvvnn3a9deuOqb+enao3o8FZop3BsoFsQmaa/dSQMNxyju8IvcZkaQ29neRpuOHKQWdAL0Cx0bWE8wQ9fMyqd5GenQ1pHqiUUqSf6TpzEllQb3CMFFEo35UYCHCtmEZjtkgo+DrzURkZnnjDQqOL8fETSq63VQOyDv88wKOmdOKS0rSqN5qKxcimZWlXBtaSN+XBsEo0C6KISbDotDhw1SlZ9OFdmo8Mc9etvt9OzLr9GAB9D0xZad689ZPGNNgzY3NmY+9/bO+9S5JdWoBieA2kmMlYv9xP/jP9CKtWYDlILSNNNLa63jp5pORL/k33/wz184sLCq7LdqxqxHfcVAcz2RG2mQyGkVFh6OpDBht0UY8ZcAIpX2aODyhp6uJak+h8977e2d14UtmVcHYDEHmUlz+isrGgLoEVp1sjoa2l+GXrttXkkBB7NP+7jno7f1XHXReT8xa0Lt6vAg9TccJj/2iKhg5nU0Sq8c1GzQYERVsbXL/s2RA0B6+qTjGCdaMqc2nSe37J21aWfHPXk1i4vC6EsT4RRr7G/2FCTRG5KFdBpkXZnj4X1lOVo0Dzr943c//O5T5aUAf0TRMXs2urq7CZF3wViTglYoFPjowW85Q0ulNKFY2DK70xG5cTIjePT11+/sVysuVqKXEccquReSFiJQQC0lbsTrD0sO8cmwA0rFtOzDez/90e6Vy+b8VBHz2JB2RMHeFho8jozWgAOWDkIDwj3Iqdfc8A4qFWqHIwChCKtV5lZn9K7XO+2jujcnM/exzj1jAoQH8PNvfffFC1av+namTl0Pw0/0IleAGQa9g9TecIQcHY1gmGHhPgogLnK4uQPurGOsLYCFgsEjCJ2NzbIScYMFWTmUh42tZ/BGbG+RNsuFOAnQulNtkiQJRprv0r+HFhv/S3D86SENawXJfutJuAjhfsDtgzCjBhEsqIcbrwcuqGzkOa6qLKbLFtbQ+tmltAa/L6soQaU+WuQKBHkwMVStpgP8uTorkzKQJs+JXdsO7qcWCFytSu1Ys3z5386fv2zKmEkTLarXNm+7AXGcdWrO+uLME0Esjn1IgCQnqCxcFY4Mk6l1ontO5u+XXXTB03qV8qAGmp8LQXVOj0zGw5K1BckeLMKWZPgTpbK4rXcgZU3s6S17iuvaOz9rzskzcUEoV40PMW72cQ/ZudJasWi1TfM02mnrRvCzr39re3lx0dMc6wv5XNTV0TYis0iiGNM+maXFrgs7wCo3DjjLR9BzUpZE8lrsJ7VkjU98bNy2/eagWrdKn5YBD22isO8kuSWBSDINuVojM82yZ0l61rTR66orLvtzmsnYDhNExFRtPYhHI6YpuYyTBYvSzyEFA+sCyNDXvtzVXzTxDIl++Y8Xzzna1v5xa0EhTCvUY7C6xNBECc0w6RLntchJPzqtuj8vM3Pa1v7Vl1zydnF+7jPhoA/1REHUkvSLGpnkfIT3JLEBhSdAqDhErkh0RdegY1KWVir0GM5NJ3P+aZ/7i29+7Zm1S+b9DIy/kwtrtNicTHRXfy/y5g9RV0MtqWGxq2BmupC4vu94K205cJT6PGzGA78H/18Ew2N9ZRHNQa58Fr7QIOOBdcQkquhobo2JBi6gJIZj0Yyi6U10j7H+Luo7Tvlw3QL89NDihXYLE5wTHjPANHKQnltmUNIcBMdXcAJBcSllwIUnhEjISyUotCy3cNklUSfqSd7Y+S45kEtfWli0fe3KVW9OdZwTXff6wQOF2/cf/lxB+SykuzBWmRQoF8yMYe8T0PeiiIq1MK3Ga9Zpx8u4muiRp/z9c9df27lo3tzHVOBIDqS8hqFwiGNEIoVUh4NDCDYdAX9pw8udXcgWnfh4Y+u26xRG03KVDpXbI97b8KuFZovHmHWGaa/+vWj9hsf1Bv1AGC7CAaT1ikr0YWtyeCxPTB9/R51Efs/g4OzhY+TeIxPPeOpnvLZ3f+GBurpb8mcBdRvWmlQEm3gliXEJ96YIpougbyzNZJ5Weq1aumjfrIrijSqkBkdCPlFXEocwEUWdIz/CJSzFDLwBf5Xd5Z6QuR5o7FU8+9obX1TojJXZQO5WIhGGldzk2hhOPaGIYk+gJ4/NrDeclktz+H2vP2dtaNnChY8YTSZHFFac3Y76ObjJBAgQW8ZsFSea8jHGmSg0xvcoXTUBQv6Sqb/h8a+cHjV7kqP75E3X/3HDymX/BX92hwGwBho2ALFRnD29IiWvp7kZhTQww/A2OFawt6WD3q2F2QbCMA814iXl4pLVpTkAYTSTAVJZA0bCAukk2PVJjIu1I654ZcvFYjYM5cQLt0XiM4nbjXlq8l68oTTQ1vRYbHkQCCWouGY8Up6bAWaoGnMx4t95mOec/DQgcLJG70fRoJbm5OVSNoSoD8jBW/ftREvdI2Q2WlrXL13124uWTi2Im8rc3t5zcB00zYWGjFyR5cTQ+4KpjWGtwZPhQS7/uJXSqTx35Dlrlq98G/7GPhYaXAPAsCAqRjuFCc//Ca08kZ3CrgbGEIqojfM7bc45Ez3vlf2HC7ceOfJxfVa2Nsi7Q0CmSBlEyWNI02N3RVQZKMnOgS9teo8Vy5YcsVrSjqKpltBomWnwMRagJ1eXs/u3dcB2UuaNSoFAVOqZV0OTgDLAOCoTTurFTW9dPRgKLNUBR06BRmwMxSGYF2v/8O0klQlRfc+oBIp4wGjUD0x440mccG5VZbSmsnyzEUoNx0JGxoxOulWiPoO/w/q1NHf1TGiZvr1v75q6zq6LMgqLSGNORxwFWY9jKJhSXArV8mlp3ajxmzYri8d7/pq1h3Iyso6yi9gPTwRjaA3nTyJ7FK795Iev4YJKZzS8/o2O/sxJkDTlUydeISnfKvUT1y1aFPn4LTf86rxVq35uUKs7xLYXcM6AE7G7qL2xheydPQBWAw4OTFH0dqK9dc305u7D1IPspUAY/nWo3zkIi85FP/P5RXlkhcYJjFaBZHo6BzN1DZgRuy2mdpzINklen9SChIWU+HBKMwfESoHvs7S8DO4oIUZFfjfE4BDEOfsf0LyR0uHPNyh8omiwDE2vuFipC4VUL27aCF4apYLs3M0Xr98wLeB3Y817//Hmm41ZeUgs5x4eUhB5eObayHgUWLefP1Oj49hXLV648DjSwft5w0QZKCpxDGWAsTLA1e8Jq4Txn0JKbZ7dHxBFreMdT738yjUBtXqpMSublEBLSLo2R7tGDYsLVqEX74LDdtN6XLFsuSM3N/cQw7xEElaW5EY7NeaXfDDvH0cotGqjrW+oKAfowMKFNbn2AOKObDCMe+xq7jLsPHDoYyh4VGnQDpr971xIxSM8mW5SoFnqi4IYtjI+LZXgwwdXXV5+WK9WONmFPeSBSAa3h/8UF0muLT4zFI8v29Ldbx1vonuPH78optcVpufmJhJGRrrBT75aQKoAkxVbdgIKTm7JfOTCDQOIOTar4LkQtByJVJGwtjgmk1R3OKDui8dKbYFg6eSeltrZU+WSqd19nLM2rFjlv+3mG/53+eKF/wNB0cMaI8NMM3ipe8BOrcimcCPfmS0KRtns8wZox9Fa2lFbSwNBl2hHq8GGKrEYaCmwhCqhwZu4rD/pukhkJSSZ3AlmdyqDl3YLk1zKvlKzRsuutTEKMkZurGSaovTzxKQ5sJvEGJLca1IKoxZCMUtnoFkZmbQWpn85cKzUCSaBHDWIQf6gOj1xqzA60ejR1TPXrKSFaANsBUtg7ePVdzbTcaT16Q3arrWrVj62ZlHFtDPr5Gz+8fa20ra+gcWZRcXgANK34zXuSgjNIJb6tGph/NzLVsx3G3SaPtE3I1lnMGwzjWRezNKYrq5QZNXu3rYxYwI7m1r1+4/XXQVfvlaJtsBjFdFI7iNmP4Kdh/FuU0bGnczGyUy39nBls5YBRRPHyPWc/LeoZYJQB4bpLE80nj90AQRI8j2N974mM67kuW9t37Kqy2ZbQnCvKpHKnMQ+EzlqXOSbcP8NvzcEGZN12umVl5XZD3gZdK9knj1e7Cb5NyBjsPtHpZ2DWEjhWPPfeOBoVn1b6wZeDwYEz0VPH77FONaZQDhG/kYyY28qtB3rmqyMjEZGHmZEZ+aVrIcONacTm1IqGUiyLvYS+GKxbLTqrpnOcSTv9Z4JEB7AhUsW+++47Zpfr14+689apRepeAHSgepshrrQq7y1th7wF91oIMTpvBHqC/toK2pH9jQBjFBAOQNsD4t0Nl7ueWWzqBAZQZyhpID7J5m1kor5zpoq48sI/y3eSprRKNxZXFw43EQUMOSJoq6kYBgexJJyzVHsJnhmIiso0Z41xB4BLFk0vaFCFDStzM+my+eX05xMPdxTiO6wXxVjYFbBsQ2OjLB/k3daH6qTGZm0MqeYCgDhEcUCOdDcSK+98RbwmELRsqy8Ny6/cN3bM7FAkvfc09i0AD2cS2IMW45OjeLgQqZxdCyI4ACY67QLEH50VmbmgBKaGL83kfPAfUOEH3jkgKT0UX538Iou7vJFxgyaHjpWV9TZa1uQbs0WFrEIxI5zwFmCOoy4PsoIgTNwWCzpbobs4JoWnicLieECc6RbTcFQ7XFtptsZZiBEOtJjA/q5NLQpWCDisvGmtX3fgcu94bDFilokoD4LkEbJDYyDFTix9k9xAQcRM3JNN7nSdAavRqESCtTwgsvxnsNAhH6FNq8vFJk31nn1bc3VfT29czNgkWpQpBfFzRlkdazkNtHVEYwdHx9cuKllIUyCGOnp6QMMBy+sPE5eSWL3jfqmpPMYbHIwHFg8icekfOp7KkB4lJcvWu75zMc+ev/qJQv+ZNGqBwBLJ6qXlQBhdAz0A8m0Dkim3QgYBYQ/rxfMdMfR47R5/3Ea8EkOK04LzkVy+bmzZ4MhZ6LyWWqWy38Ng6lzVfR4GsNwpsNaA7B4AIKGmwoXyHBzVcK3kjRcqSZDqs2QdpoQKviInhCQ/FoIDSUwoBRhL+o7gpSP+pUFCIqfM6eK5hSi5gN8mHdSHybRBhTANuQJdGPJcdTZzXUiCKgfcdiooaOLrCYLVcBigZ4nrI83uRq7p5+sFuthWHP/u3JO5YTQ3imvilFO3H/s2MUqjcaoBMJpEvF0bGeKdAN4NPyw4k7Ppzj2oMXmHP7uksIsybg4qChqDxIHNlxOSKE5oZ2PuHd7Z0c+8lqyDSZz4r1PTLEE7te0M4rkk5NCgquMxTGaW2ZYpTmEjMlud8/iUwHUGUcf9lPoNPGspCclPqOevqe1XdFnG1ikAUKsycjVS6mxEggUUUSf4hhSPk2q/VEAji0hMMcR6UmXMnMJwCspfJFY2VgPamlrq4pGQ1mcri7g9kfWfIy4kO+dCGL7OaM25QmkfiK6p0uFsieE2Mm0H6ppS/A9FuLoQ1R6wBOZUkbeeEOb0QyNVGlyzZK1jie3bflp1P+0cc+BI3do1er0IPdSAPltgMQOthIVqMvRUyMDPksFtQ/aaDMAxrA5aGnVLMo2AkWXLRELAvKls0jT0UH16DcywGBmHEzFS+eXeupx4ktpo0oaNYL7cIdpieHoT5zBv51YnEJ4iMAgfyv+D8KCc82llxmLw3fNbTZhbZgNKhRA5lAJQBTTUD2uREWp3+GGKy5EXYAD9+In41dpoNnrDWoyMpwzXnU/egagWQx5bA5aA/BJtDbFPOLUAOTWXYeOkB+/15QVv3HesmWnXag33rva3dal/ty37luqtqRDCwPaKOguCosn1rujoOu0+oGHxpkMcIw68JHMbOgtatGjJYFCd+qF7V3d86KRmMVssQz5mAUXHWWeI2Y1I3MEi5Dq3kfcfbg1MYpbShkI+AUIFc5TgV9zwpqYLEPrS0fSjcu/j8n4haNmrHXR09NbBJDDOQpujAV0iFEPXiTiDic9Y0ZoJZQ3hQLwYMkGTKMPSUD/Sy4mwYDj8AEBFiRvrHk2NTfV4O+QH5IAYfuKhdR4Fp3E4CmEurUZmevQWBlpeDjUmdiUp8oIyTKMZQYjEX5R0+rmPisECBPk5rXn2p5+a9sPwkG/5WhD8w0APzOL7nXQ4P02QLojtdWgqKbsnDwGRaNONCR6c/9RxE1UdM68WWRl0uHtzjIjO6ikkAKN6D6AejM7Oyw5ZiY4ARayIPKpRzIlU4UsBi3eQYbOSE7kW4/uf0m4p4TWI20SqcsYZ3JJ/TnS2Z2GbI2S/DzKBdQ0Z1sNOnzUAggXOyA4XEAXDuE6RBSFWSzcYwooZg6pb4Y6KiUvaVFlnGGxCgRfo0IR9foCjq3v7shqQqYaPBZt8+bUvLpu+YKZ0vLFGPr6+vK9Xl+BITMPrgoUnwiGwGbX2PTk6xhhd3x/9FjbdjLfJwQ2hpOCz1mNtXMioDDiMQMDA1X8Fff5SLqKJuIAeFXjMtrJzGTkuYgjiIUWxDqMcQe7UW52EiM7gQQqhq1SqZFLMHwGqSnECYifcS2Qzs7uwmAgnKlEIzMtrJChNTHOhIeF1yci61TIxlljmK+k2KVyJLtfIqaQOdb5jkFXMTNgaBWS4OG0dRY+E3stUyN2KgMddg7ezdAyGDJKJd1XUjTGUOrgjregHca08/tpv+Ek6XHS6TdsWNv7xMbN3/rTY4/rDre0XIuya32M0xfRbIibSfWqWqGBK4EukYFcbB21OJy05SiANVVBaOizAB0AnCxQtTwd4H4VFRRuaISGgcuxADizifO/+RjLR8qsiDt2G/ASUBwmZfEMV/8SwoffkVSwKLmrpMJD1LTgG6tF6iaGPHB8YG2Aw3T096ErnZcG3YjlwKziokjRehN+Y45njNQCRf8UBNX1eL4JkAQ1ZYWodjZAmIXCjW3trs1bd2RwulZZUeEOQMTs/unpED2Fa5Eqm4ZMIMvwdFbxu1jLCZC8ESuXdTDeZ9LSnpFD3DdprvNTpPfKb2VMeYrWJGPXRUTCkRyeFzMhkY7JDFm04x39kPRLASA5I3OENs0WnBRL4HhTYhjD3XZJJjhshDyWRA+PGOrBk9w0yc94bhO5m8TajmBdj8kEvV5PBmIBgKFCjEYw1YRSIQaC38XL4H72yboQyWsv2eozcYhdiAfys4e7nUc+S4L8kISAZI3gGNMqRQq1OZn9JprPCSih5JyS620m5jP2suMRSz2WThxS+cIJMFPxl2SgXwKyZCn/wXRhDSfELRet7/rzaxvvCz/3nP5gfd0VqrhSY4RbiF+ip72HerkJTbma0vMLyK8MUQPat0bCDjJrIrS8ApYIAmMmNHaZZQFKZmEJeonYqTsQpUHwDVFWIxZPQm4KgSBVbCbjGgyCBq+TJEDESxratonfpQwHAZKIjx73tSCjymTUUCZ+ZkGwBfHCnHBLdQDYcMCNVqZIDuBOahzk5BacnK8voAeSC32YVSTiKVz8pkJmFnz4ReYMmpWZyzUisQG3TfXKO1sK27r6lRaN/ujaRcv+75IF8wdnevnCVWGGGT8KXvsET0YO6VgW3+mOGZ4xVgxPOvjfYyTOifPwd1bJx7RAAuFQlsgGZBddQkCOJRlGsOAZESBYJUAmlyaZjOUoRGxOYh5J4Tk0Z2kdsYtCxMNqsqyx8z/2KdBJYppDwjZx7QTvYFwNGhZpOmgpMd4xUt7Heh9gdjOinWMkE1rikpKeEKJsrUiUHXtNhMJWSXCAfpNC/Z6pKY731kZ3YSXWvgFzmHYBMpEqcrr7fErXf+LSixrvuPaKr84tKHzdiDRQbkbFPD+MmIID2nwX3Dd+NKHiBvVcaNhoD9ALu+podz3aRYYYxA2FPDh/ToGZ5hcbKVPjBeSJS6T4cgGcaI+ZBEHDCLmUgAEBRR47Fhc3tDKbcY0a3bbxvRbnwpYAgCGsE3ysWP95SC+qykynpYAaWVJVSgvKSkiP3ia1wGjai34fR3q7qcNhJy98rDF0rENbNPHhmgTRyztxcERR7EEhkLhKFoAtaqCxQjgaNSGaXWCgIrBusBJ/e4s7snHzDh0r0fnZWTuuu/SyGa37SI7R4/Ewoxhzk03wkmeEuSafyfrgSKExTu2GAllCo26izQd26/1+X7ZyHItj+DwFbIo0sxnSqDmmFvbr1KqoxzMIyHg35AZicsgwHBnPE2NhFxcUFX3MdyjPotk/tL6E6jKlY1zXnDfgM7NbTTDXCbLVRjx9quOZaBJCD5zopKG/D0/DHQOz5YV3d2lCoUgaX8OW3gn3GPvEU39UymNK6cSkC2vE8ycezwnI4JSek9pJZ5ULa/iQP3np5Q1/eumVe/7y+BMPNLb3XBwM+rXISUT/bD8N9veQGgHnHPSR1gJ0kIFMmnsc9DbgrxlgcemsTFgQGsrADl9cmCvBXrcBQx+bj5tasal3gunEyICguRrxEitYpEWH4jCcUYDqvQI9AOH86C+ApWlATAPph4TKako3IS6B52rwnR9NXuwOF7UAYrwf2VE2CIwoC4IEwBnse/E8KUbPbjRplpy9k8yTlzq/sWUj2gTxlhQxk5IMK+WnGyC8EBpx+TRvvPWu1gb8J5NB37Z2xYrHVs8unZEU2ZFLh4Ox0ISnXXtJbYmOedYpgknQVBCX/ROjbnCu3xwVlRfaJb8olBZx2ikXmbHbSLy6MY+Z1r4QC/P4A75w0G5T2QASWJSejn7pWA3smBLQ3cmVxAWqEC4hD6VpFX/65LKFQ/DhsDpO0cpTS3PFDUUj9dEP0OtsWw880AktED6J911y8FL6dwKJc8RUI0gYE2jGCU8BR6HYmmM3+biHtPZmSsIMe/gJt+Qpe/bUAfKUp114n7UChOf/qSsvP/7Qs8999W9PPfPzpvauy1GtgbxELqJB9lJHi8B/zS4tJp0V6LlguPXsztq7C9/W0OLSEkCJGygDJFuAanUWMsruXrL5Q4SmXcKcZ/2JAekMgAgpMmloXXkxlVgB243qi1KLkS6qLof7ScrY0MDXq0OwEBligM9Gdhgyqdq6euCm8qCjYBgw9BhXIvNRshRT21/DtWf2bXPBIVeZZyM5oAKQJWkALUThPR0+fky7B6CJOlSsF+Vl71y7atme02TAk7l8KJcqmQKZyu5gl9FkHjKZczlAP4r/f6JbiGjVaCexs21IXCRcWKJHaWpHyiemdjvprAyLuUujiHoAPqw/tm8fZebmIcFDJ4pc+b/kRPjhaigt6Xrt67MLs54b8QzO0RhSVibifcOunchynOjv4011Rug11rsdbSCCJqy0gZ/AGzG6IiYFrNkRe7I0ENllE6kPM+amG+m4PYXXJF2Hwy1xzFeNz7TTfcY2+GQ2ynjnfuG6a2v/96knv/rHv/5d2d4/cInSaFLFuMgPikFfD+BO4HbKoSLSoqeGC5laLUh53QRLxKA30WwIDiM0tnQs9eX5wNELBegQLBEH/u1lXQXXclV4nl5N51SV0zwIDS7nY0Gg5dgGKk+9IvAnVYVz8roDFsfx9m5qcXtEUNwfYpRgXAUBI7RekQqUqEgfschOWnKJYFySC4h0YAgQTTiGbKs4VUIoVmWmkQl3G3QHafve/QjGA2U0FqlfsmDOny9asWDGEHfHeB9jFeaP/fp4Aw7LGpmuNZG4zykMTGiWY7I1SSvUKKVis5EHJ8FBE02gwkuBWE4DGI9Lju1xnp6Zzp9T1W7Wa1qQOZbt6u6iXW9uovlLllIZ0KhVUCQklyuEB3ywsFI6K6pLv3tLdeXJDa1U8IXiGKp9wISmR4hw0vrJTHR4jCX5TP6ZDFonqDLtTGzYejjpdY3mypTS7sXoTqgSitg40CoTCYox33VK1tAUVspUBzQ8y2EKjx39kqkOZtoGkMqN7rzx5trbb77unvycjNeRwxtXcSARDNjvd1N/Vyf1oe4jgOZT7ACyo4l9bWcfvYbe2XV9vUJz0IMhZ0HorAbkydLyQgmYEDj6yIESfSuy0S6yGICGRliyKBSAywguLXx04CpmrDjW9XgXtqGf+zY0czncb6M2d4B7MCCQrxFxlSRUuzSfkZkgyayQE7Mdiaaa3HB6eIoKjGm0uKhIoPPyUdvQQjv270ccSElGk3r/+eeufjMVuk3jOUJzF+rY5PTOmWIWQ5AxIp9/tImOUvCFc0PguWPBaHAa6MmzG0fLHMaEBVmmkdZDt7rxgvV982uqHkUXdjuc8dSFotpDW7fSgbffoqa9u6mvrlZ8jmzb4okN2n7/2SXzR6sHio58Z6m9w/GFP1yaCa2d3cEns5HhqSfD6TLsrMmtotSJO4X7CvfxqEqFAI+QEmSHRjBeksaIYaZipKc+s2GsI5WLRhGeMyJAznoLJEmsr9z+sWP/8de/3fvU65vUzX19Fyf7bfv8XuoF3EkEGRLZJWWk0xvJC+vxAFpbhvcieVcbpkW5JWTgOAZIuKC4AH2kwfg7OhHg5iA5MroAaGgU4QmgiWK9iHAFp6dCh+D4gxPmR7PbSzva2qkDPZdDcWxpBMQjSewrYelKnQI5DXiqB6dD6jEeQJMA4wt1JFiCbf1u2vjOFursB4CpUW1ff97Kv1+0aNG0I9xOMGZhVk0uC0XccerEmJiIk9+gjFPDnWDHPiQhKTKwpLhVihm6MzbPz3z8Y3/w//HPaQcbOj6D4FqJB7GQxq4uoMIaSYcP0kz7qkvKn7/kist/9b+jzItTcaUaIykIPIljojkJDTvJUMX9J3Hz9+pUHm9ynOxrSDDa8YrrpjqtmbJAEu9lZB7gqbbACEtzRgTI+8ICSS62b37s9v3XXXzRPUWWtNeMkUiUG9dz68h4GN3psLFs7R3oJe0jFaq9vVEV7Wvpoyc276H9fU7yAtuIS0pyMGN2Zy0vKiTkbJICGfOiCyL+Bm8UApMnGgbxduPC8i4Exw9D4PR6fOhZg0JFxEUiLF0YrlrsoBMbk0PgEj7/8A+vpZP7QifnxBk1yd7sog2mKgrXFVKR8VzODjtUe5h27t8jWu2iKHHTjZde9tJ7sPkQO4zHItCCGesoNQ1WsJeZXF9iYw/LhhJkGdM9IwU2kYA3OjrwECQJtGlJFUh56DNmgfCAL1+xwnnPnZ/7wfXnr/7C3CzjYwX62D6twl2vCzsPp8d8L120ZO7XP3/TVd+9ecU8dBg69UDuA/IBUp5LyksLyz4C2kdYKCV7srBSN04GXPLeCtSPpBYgTHk0QydOyOz5ZUl97aW0XIErFY07x3pUUviyQiHhkQlE4XGPxN6fcCyTn564gt3CY1w67nuekXX6vrFAkhS77+MfPfSj//vL3Y88+eT9dk/gMs6wjYUhCMDU7RAi3Fs9Hym1CgTFPWB4h9t7Sb91DylXr6UlwJ/ipkwlyLrSApOKe47Udg1SDxr29OZZyZrGEQd2XzHDhyBAPrADvzW6XKh894j6DiXWvqQCnBAaEmQZH/xTyrmfaJEl55OsP2E5ZEHgvBJNsopMOpGrbnMM0sbNb1EHrKmM7Mz6NcsW/2Vt9bxphSJIcREzQaKoBcH/QURCOPJMhVjkuMPYN8FpMyZETlKnh2uWSoFMy4iw0ntQCDgo0dDIr9Oo+ZWOtQFHaI08y5T4wPRz6GEjvGDxIp7AK69ufnNjc2d7gc3nNaWZLdH8nFzbLRdeanto3JeIUtaEBZLiu5bWsYhdjT0tMNQg7gtZEFeHOFPxpB2R2A0jSJfYEzPCyFKdW9LlyYqitGMRc9RqEFw89UhUtHPvqCFLS9SAMQ/HzwnsuUmZe6mO/8R5I99NQihOZDdO/kHjXvG+EyA8m+98+uNHf/jHP33lHy+9+P96bc6rKRbWx6EZRNFYytbbBWweVKvnZpHagPgEguTHUJHOHf0yjKuQZWUSjZuycf7ysnyEVKLU0mujY+02UhVrEX/QIBYCpF+wki6wyDoUAtYODpCT0ySVHB2ZvoMXJls9ao69ILMsz2RCr/NCAUvvjQToXWTeHK1rEJlf+dkZ75yzdOFb0/f0Sd2JQ0DhUAj9WVAhr+O8f27zyhXS4zuFkSs1iZDtpIaUYFIpXpNgooN6vd4xziVi0yehMMTPiTfkGWOIl62/gHM52lKcsjiN8bT4J7tHT0UqHvdOE808gPoPhj9GLDKQCrSHBAWC8m+MYyb4TiJekTp1JMSHWDjDYG5J/aqUz0xJ80j5bidOnOi9DJ05ijWY8rWpjmsmXmSqzz6t8777mU+1fOs3v/3Oi6+/rh0c9Fwai0eEEImH/GSDxh5Dm1trXg66pOnIg45ue+u5aVyMrjhvDRWiqx/3WChC9tUyWCJoTkRdAwO0Cy6q7CyrKETkfdcXDlA3sq1sqBEJARJZqB0JN9e4BQLMhCa0QhIKCs7TwC1khbCqzrZSthnZNXhMt92BwPk+GgRullarblm5aNETVy5a6jotok3xYqvV6segfGE0Nwr6GFlYqt5P1lok3XXiq2EYQVw/InjYDBzCBkqY8kKzHWdrcLovIM4AVqlqNOq1o2avKRSiPA/QIXBRctrEBPccMaVp35jTRbKkMExmYfFPKeNvwmyscecEQezEHvL7ImGT3ycVOSoY6l9UbSNJBRsgyUGH2+pc5o/S+DGhQ6Y+7+R+Yp+wCIyPeyvRdAmnQFEcMKrVfeOcPEVBMIlw++QmPYplOKMG8Lije98KEJ7VT7/4T8e/+j//89VX3njrF4NO76UwJ7RxaOsBbwhN59l5oqTMfFgZKg11QDh40JCKLfNrzllBZagaZLKXmfUURf0Hb7QWMO12gDRyFy+uWmcnL7AkKMLCQ7w2lPkJFF7eW7xA+Q6jm5InU314/Orkhc0b2SgaY8H6yMtCxpgU+9h7vI72A7ZeBTDFrPT0netWrNw2uXU2fWdnZWXZUHvgDoeDAIQcpGwxe6n3xhDSUoLdJOUHb1DunwUf+cyusWH+4OH578NhNHicXMhi1Ov3XJCRMWYQHcJPuLBExXHSupoYNO+MWSBTeaPC3TiCBSaFyPj3Y9fj2IUwaWlmrAnyhkPBbDdcvEHg1Wm07AI+IXeGCykGIeQaJxxq0HcGBAg/euIITNLlKgQq3q1erWwAcOp4AkQMeuI7D6OmtCanKHgmfMujCPYkTxlXkMzIeN470TUhnVI74ed33dVw2UXnfxWV4a9xNJ3jF4B/QFqvFym+PTQ44EDv8DD5oFkOAs1427FmenE3aiq8rFQjMwt9OCrSNLRsVg6V5aKNKV5+GJWCkbAOPUhQtKwAJhWgSET7KrZwplHX5A2mA8uyYnMtqSgnq05g+yLzyk4vvfk24Nw9GKOicdnCRQ9fvGThe2J98FvIyMiwAc56kLXMfvStj8CiO5GqLBDsTnlZiZoAPRIKRq38Tu3tjn8WCwYR+zgFffWEkBaQ+xg3mIUfltw4vctF4RfILWmwMS4wm45Bvsf3SDUWd+oweXeMDf6UnZ1pRzypXwflyg0r2Q2oFUn4SmthrOfClcZADzOxJkaKyTEpnxQGXFlnVKl2XlKe6xzjZLHbk+tgUkJkhgQIy70hHpRYqykusRlZzu97AcLEe+Bf/qXu8vPP+0qGxfQy4B/8ot0omEYQzaf62zop0OsgnQ8YFgA6dPojtPVwLb26aw+KAf3kTnRsK0QPiCXl+VSZByRdLeIdWOZcdyEVQUkol1K21EQkS5rPY70vCcMf+R9CYdKgg2JxhpkKAFnCuyqAHiTb9+6l482tEGRxmlVc+vzVl5wZzKuxFuKFC+ZEMiz6ljigYLjJVxjCl6077oseTmicJ2edcSYa+0n0aeGIKiPFBT6p05DqgFZA8PAbOKKVhIVBRhDUXIEvhs2lhkxgfDH2uOvi0a4CnWH3OA+JwfXCCydxSmqukMTJ06hWTIoME548tepjMfdxw8S3X3rRgEWnPc4YXCGPh3yA8uEGPkMuM94pgqUn6Si5zGDdW1zB4JhNvSac0DgnKJVqvHr01FHqh/U+OfkCXis8jiBieJF4JIjuo7vGuaXY/VMc00ytiRH3PUHf4eMcmZ14GvMYd/oTccMp0u7MX/bze/616ZL1535Vr1a8GAkF0AEXzAO0DQI7yt/VS3FYImimgZgZsKv8Qdq05yC9umcPdfj8ggliyVE5sp8Wzsql0hw9QHNDIo6SdAGwZcKfRIufkwTJ8KLA0QoEmRoSShM+XF8Alxq7waKoKckx6mh2cS6EB48iQu3tbfTKpk3kRA/4TGtm49IFC57csLBqrPbcZ4zQVaWFm7lBVsDppO7mFiDjS209hTBkLV+a3RDqKw8sQtocjy9cMhODjEejGq6DUCPxYEgzBPNn1yP74DmiwZ8kzliaIv7GJ6tL6sYaCywOYKMkYQElIZLsNjnB+M9qFxbGPlVGJl7neHMHYnU9F+KGYX30t7VQBMW88WRLW74wmekklC+2Z3AuOI7N45k/E2sCvWqEtmA2pQkFZ8x3jd3IOGLQD1tLsjNTasY2FM9JnZqpnzk5YuC+w5Sck67lfugnUtunbn2mPqAPjADhKf/yG19rOW/VqnvNGs0bsTB8U8gY0qD02ON1UReys1wDfWgyFUYqahhNnQZp59599M7uXYAK8SZQ2CLIwtKLavV5mSbUiYjexkjdxQtL1Aew5SDBwadCupOtEcaBDagQkAdyghYterOwwZah4dSsNAsC05wxFkfNx2FqQj0LM76i7OxXzl21am/qr3Pmzly6ePF2o1LZHkGMqKn2GLnRLVGNwhrBoEdxlTNT90dCxgGPd8FMjApFoNYsdHnUo3/9cNcCbxqOv7DyEBE96gXqgKcoLe2R8ceBQhcO24iU3+RngiskFvG+ECDJIHrq72K4NTb6VbPKy3Zr1apBtkI6mpvIh06hjKSQRAse3eWjhHLkn5v6OFI7kxUZfzhiVgL/zoymcyd16ht2i2TavB5ZjzlGw8s3lee2jPMEEVVJuoySP1N0ZaXCIFKb3MnjT9x3uIV88npNxrxmLIw/bDwzMslJU2UaL/j99/+t4YJ1a7+RYTC+wdoR9yZnH7jTZaP+zg4s8kGKIpuIG+EMQHN698BBeufAIepBtlUYjAM15lSKRbgGXQ0XIqidBcQGLQKEaqTVcrrtySivqZGPrQ/OT1HjjSoRiFZHfKKH+9KifFpUkEncgZuXwGGk7G6FQAPjBaRKvG7Z/Ll/vnhpzXtR93HKG6murKgvzMqo52Zbzr4eGgB8DAtjCOtR3x5vNh82aY/ft+KwP8bR1Wk9kFmXk1VQSBo93lhC1xueaZQszlQhLp6pVf9jbnHelhQGcEo0ZbxNmPgbPz21hZDCAGbglFPGNjzBYDzmOdFYli5dtFej0bRyWwWf004tx45RHKn0gKGHUOfeOyP2C7dgBYX9seji17sGqie6/2T+7vAErO5QJN+Sk0t6oFiPVQjKz+cVa1LEuiuzrY9O8AyhHIymyacgRGZqTcyUZTMZcg+dO1OTnNJgpuui//3efUfPX73y66in2KqIotQci5lh0v3oz8HV6n63S2itnG3V5fTSa9t207aDx2jQG0SNiAoptWqqNFloeUkBLYV7qSxNT2lgREoIkRgAGWOAgB7qfDZOle9wADtujaiG8NAAeqUIfvuFAHpcU4NqeKxmXtAOZI5t3LKdGtra4OJSouo8/7U1y84o4u645L9mzbrg3Iqyp7laXhHwUQ80zijSN5XoFMmFVVyRL9p9DjvCEMb9Ad+6xkHXOdP1bvk+z+w6mKsxGzILZ5WRAkWhwzczWx8isJ4If0IQtxcZTf+9PssykS+b/z7qOaO5KJPzSeAlnbX7KIXWq2O8GmwO7qw1zvHFW27qzsvL2xgG/hyvC14Trh4u5mVVTIIJSX74fSTjif5ovLpp0HHDdK6Jlu7u6ohKk1s2Zw6pAYLK8cvhCkXyd648B6QC5Rl0z1ZmWceLifHwJKCJSR8ixXxGsg8nUmiG/32EojAjguesXfiTfmcjLvjtD75zYMWihd/VqJS72C+r1gCKABaEECI9aDELJN0wEjp98OV3ekL0/JbdtHXPUfIEGGQRjaNwv0K9itZV5NOqynzRJpdhRtLQZArJUpM6RIAZAUYDnlWJ/ubLsnNoGQRTJgsx3GkAFd6vbt9C7+zZS3bEPhAjaVk6b97fLl4yd6bwdCY1/uTJy+YveMNq0DZzpURnaxMsunaKBLj5neSTjZ2UtIMNzNlwqNk83t1921F3eJJUG3uIew/unzd70fyc9KyMoSZgbBmKKuGEezgZSE9TKp/80vyaVN2AU2EXCjDGD+I+Gp57PubLWL169YvpJkMHA5Py3mqpq8Oa4AxHCBC+aoSCxe8Fa4Ka7I7Pv97eVzOlhTjKRS1tHcuyCvItJTWzgULBVqn0SobXKPG/uY0tlIzW4oz0365KM0y0v1KiwRhzmLb1Pl00mon7fBAX/hCdHvnF/W+uWrrovjS9Zi9rSBqsHCA6kRdph73dPUg9BLYVdj8zcRuQdjfvO0hv7z1CXbBE3KzJ4nsLPnOzs2jdvGpaW11KNekaykX8Ig3ZU0ZgcOnxu5Y7rseCEBIhBLGkuIAGFocW8PLaeIAssIKKYFUsRWva80rLaHlhESrhJee5D+CwB+qP0nObXqcuu407IPrL8/KeumzDup0z8cJP555fueO22sLszHfYTRH1Oqju0CHyYszsA+fe7+yqYyGCdCbBOBjyKAKnYI/Xd9Oers47TufZw6/tCgTX58+dlx3i5krikJZx0tXA41EBYNUQ9O2rzM4cH+nj5EFNRYBM17Rm/D6iLmOEk26493zISpBGklJs5+LVy7aWAiWb+5GoYHl0tzTRIMBNFei7w31tuPNnElss+ZPjiHBjVR1q67hr14A7+RKnPP/tTa06NHNbV710MWDu0fVTIBElMiaTGZQYBcMDaYM+Z01u1i/vqCg8kMIDxU2GM0lhUSUM1SS9hv9MwbWVwmNP75Sk1Ze8y4yYHiftvNMb71l99SP/+cM3lsyt+SGAF2uRAyJ8s/BDkau/nxy9/agXCYrGVKwvtQ4M0gtb3oU1spOaHV4B4c6Lh5uBF4NZLc5Np4tmFdElsytoTXE+VZl1lKuKUBrw+SzKKJkBEc/BOQNcVcZQEP3Zw1SFzoXL4Aq7uKqKNlSW0KKsNCpEGRW7rTxRH+0+cpgee/55qutoE70IcyzWd69ef8Gv1s+fP5F29J7Q/cLzz/m5ThGqZXfeQFc7Hdy9F+1WPfASwk2YELpiYEg0UKJeLAwh4ldorAfstp/9trnpX3YzcNlpHI8ePj5PV1p+QygjBym7wAzjRomczou3iLaJolZHGw+TKeJpqcnKvPtTc2bVpvi4UV1YyXTIke6Qoc0pNSs/K98VjzHJ0IandSbxoIbTJZnXI30nXDD8NifkPZcsnh/asHzxn4wqRUfM4yIvEB32b9tOEewlFiDDJbLEaLl1NNc7qak3GPr01qamb263uabaLlmMdn9j0ypLefE8S0Eesl4QxOfcZc5GAmhiUrHh9clJHyUm/VMrC3N+n8qaYMgVCFyG42HzWpTFDMHcjHEDAbYo0Jwn7jGbyhhGniNIOAk1ZzLnTmU8p7WZp/LA9+Kav//ip8/MnlXxi2A40KjQClA9YSUEkOLr6URTKpcTiz1GDBbYbbNBgLxFf3nxBTrQ3IWGUhL+N6/wdOynIpOe5uaaaW15Dl2xuIauXDSHroB1cgFqSM4vzqHzSwvE5+LKUrpuyWK6ckENXVhVRLPz0R0RfjFk8IqGFBwZP97eR48+/w7t2ttE8YAawV5L3bKa2T/78g1XNr0XdErlmV/75McPrl6y5Le6WMQXQSyp/Xgt1R/aTypktrFlogIdRcoyBHVMhZmixzsfwXA8p6XT+a0Djf3/lMpzRjvnle6B6mOD3vtjlqwlaqWJM/7BJKQ+89zTnutS+NCjB1el2Xz3F5fOfTvVZ128aCVvy5P56AQXJ5gzX3dGWgunOpdpOo/nlBKr+re7/nlzTUXZozHsH27aZuvuoN3oW+LpGyANwDd5b/F+SzJ1fl8hhZ68SoOxyxW6Z1dT1/de7XYXTWXcb/XbMhsDgU8bSkuqYsigjKGnvYiDsZ2ARoMBSLEoPtz2LVdHLy8sLvj+uelGqepx4oPdUFPikSf6pUz8kEmekdI7GeWeE6ZlT3Ic4vQZCfRMZSAzfc3Lf/j1Q5d/8Z/jx5qavobgx2wVFlo46CePPSyKzawAX9QYDQjKAgoFmsZe+HJdvXbqWLqEFs6rQkqtlcwIzDEACq8qPRS0LBQhZqPNbRSbIYrQO1v9QrtjXzyvPCy9ZMIvr8JIIubRM+ikd3buplfe3krHOwdEUaFWEemaXVT4s/+59573Aq59UuS/6fqr/9rR37+hsavveq/TRW2Hj5AJcPnVCxZh/oB/AcPg9FlJpYdbi+tE4hpC59+C+p7BH/7PrsbC0uy0R6+ryDmSyoPf6Row19udG7Y0tH7DTerzYhqDcFNolVoBhhmDpcdfIKWUlLD8MtT0+wWF+S+kcu8R50Ri7P6ChixpmhMq4Hx5FIJkUoJnCuM6nUug9Kc0j5HPYB0n5XndctWVv+rq7F7R6w5ewMgPbfXHSY0MuTkrV1JuXgEkrGR1sFHD7edFESo2hVcVT291ee9ztXbO/3tL/4O3ludsSnWyzzU3zXq3tfWzXoPpY6gKwj05xV6KdYosPNH1E5YHPA5WdXTb4oLcb1xVmNGa6v2xl9m2xUixr7EmkgkJwyFzRorYYdIG2TvTfwBILKV3ksxMHGaBSD0lpvn40AgQptsrv3nwd9fcc7fvyOGj3wKu0wKJAaEmBK1iw4hpZAJ8UWdJEyY2OstSY2e3gEI5jE5wq+bPpfmzSqkc52hgoqrhJuFWtzrh4xXtpyTUwORexU8G8OO3lty/A4CEP9LSStsOHKbt7x6gHmBv+bEeTBplX2l2zoO3Xnvlw3/+zx9M8yue/tt95Pz1tp8/8vi3H3nimayeQdd5YXRobAByMDfTqliwEI2OzOTjTBwIad7Q7FLglRuBRA3HFZkhn//bfd3Bqx7Y3/BaQYZlo9WoaUVims0Y0XjRqyGKQKsKECg6p8ed22sfmL+lue32/mj8ancMISe+J3Ywux1jcEuIJlecyYYsOTVAL2MDfRvnzK18cENx4aStAoYnF/Aow7zeSYVgOBVHwNngFSMAdvYesWR/Gh6ihAUlJRyMfrD7iv+i9MzJMqZMw09cfU3rT377v1959IVX/xzzR5YwblonundyHZZx2UqyZOUCU46lLVgOZzpgHKxQRfE+IwiU+ELBGxxtXef9cuuhv2RZTFusZkNdVrqpE6LcDxiaaBhQ2MFY3ByIxdL73Y7SXofjwp3tfZcPkmJJAE3kGO+OjQXu9cH7UAOIlTjcrFGAq1pVtHNpccGXrp+Vf3gKr0nqgMpbO2HhCjpyvdAoGZjMCwTmqkIxI03f8N6wPRJK2QikGWHhYWwjh5V417xGp93V+qESIPzin3/gF4/c8tWvuXYfOHxvTBVfAw0WDW7C5PagPgQv3wpkXj1SeI1GlC5Ao3UEQ7S/rpUaW7uptKCI5lRU0JzKQiorSKcMaya/rkQXQgGSILoIxphR4i9hvFDcDn3T43QMrp53DuyjwwgyNrZ3AXwuREadHn5Zd2tVaekDt19z5e+vWrtG8ve8D46v3vGRoz/87cPf+P0jj/4vRUKLXP29dHDXDnLDhTF78SJAiKG6RQGfnTBDhENaWCUhNawRZKQFopElTm9wSb194B6tWtlrMui7jTF1LxgAY0mq/QDpA/1KwfAKvLD0grD+FOjuJTo+QugKvxGEVJyTFnBfHZhFoLNj38rs/HtvXljVNhUSQsME/QGlj4pqLlyJCWVvdPc8/yWRZhPGGM/m9yY6Evr9fpFAMoljVNTi8a6/75/uPHTP/3vgy89tfOuPoElNABl6TUePYK0HaNma88iUnY8OoSygmM1JiAFcKyLcj/gGCkJ2U1Rxd3O/426dw9Ohau/u1KmVfSq1OohkF50/HMtCImN2NB4tgqloisHy51R8aY1JbyMZQIYOiMr4EGUp43sW5uV9+ZZZZakEzUdOD0uVyRenAJrKTaajI4TN4CRonfqpCphTOALIdAtDYZrE4cS5067ofOgECBP8iZ//7Pkv3v+T1s3v7vpOxO+5AKUE2RFkSrmdNlGlbklHlpUVgsEEVwnQfUOodQgEQjTQ1EwHmlooZ48BdRppVFZaSrlIyQVaLZnhf1WD9XEGEBY5BRGw67c7qa6hiTq7e6m5o5s67f0U5E0Mk0StUkVjIc+2FdUlv7z16iufvnbVudNuXk5icU3p1O/+0yff/epPfvGdV97Z8mNnKLIwOGinIzt3kAdV6rMXLUVPliLEfJAUnWAQnMLJHR4lC4Kz3xDk1JvVvjgVYa8XaVnagmmLJC7O4mKRDFqFmZHjZ0LHZFVQ5NToGK8MgiMMNFhPX/fuBbnZX7/zsnXjYRuNO0+EbUJcRe1HbRC61DEEAZhbFOM/NSNTpIZzsJ6CzSalAv2Gz84DkFbIII+BifshgNldC7wwgTYtBZo51juUOZTIWNJGgxG9IrZvKjN64Ov3bPv8977/VeytB+Aang1FgNrgDoYJQXOWrKC8olJS6WH587vDWogx4xcmOitdUCzYOAHeoiaqLIYVURxDrn0siD2DLEbOmGTXJUPus1uO0XQldzFggaCNK/Cu+L2poaBE0cdHFfBsmTOr7Gu3z501Ub3HqFPF8NB3Ck2z8K79DgcpwQM0nPkHC0rQTLSFl9xmko2CLC8IG3Us6tSq4s1ToV8K1wSV7H5HMXTME5Ay3VjlwiHkMr9PgZKNOC+73tg3whoZRetBQlcK95/UKR9KAcIU+s299x38xRN/u/PVzVtuaWxu+zRgEFZGIjFVFFqTC0Ik4EbleQY6GKanEXofwJqAfcKSAYfX6aEWfLbW95AeXEzFvcxhMuu0atFTnbUVdomFsfi9gJFniBLBG2Fmi36G0WBndnra60uqF/zPf939L3sf+cH9k3ppZ9PJP7/v7ue//cCvAi9vfOv+fq9veQi9gbsPHqIQ3HP5s6sor7QckPqF6CPPPVDhPAEIEddhKsA4kn20xTKHnR0e1gQPPSOGpskQecLqwEblklDhZmJDJOwlW8cxUg3Yn1tRWfbA1664POWg+Wg01ASjAXUINS5NTVRSNYtMALn0MWOCe2xkQZ4KTM0YD/hmZekeOjcnm3MtzsojFglH2QUTBOBhX2s7zcrLR1achEmVFgEjBnMJCRR7ZjWwt2D2maPBPTUFOa9MdUK/+8G/vXjv/T8Jv7T13Z93BsNwFStooK2VdtkHaVblPMqvrCIDshhVsMBZEWBQTPFCWaixO1gIFgg9EcdIurwkt9cJ7yKjJccRO2QGjveDlcGtEGJI5PAP2GJa98CTa+fP/tGnl9Qcmuo88M4DsI49LHT7oAj6KmdTlslIfljRUdFfnlP2ebDcqRTWMZ6vgVWcqdXtKkxLGxN3barj4esAFOvRqtCIOxTV2Zs7qLigjNTopBpKuAVZueI4JAtYFbfsxdj0KlV/gdX893Os5qkG4Mcc8odWgDBF7r7ldjYzH/rGA7/YuGXnzns6OrsviqjiNWxx+KGtUchHOtSHmM0mMhiMpIKAUIvGUuzLRVEiTHNh2jKoIBYxWx+8AWPs/+de7XiRfJ5YaziQHWIH1PyW2bOr/3DR+edu/vSGdY7TWUxny7U/vufLr/+/3z/sePz5F+/vcLkuCEXjyq6OJuoe6KLc9lYqhNuvZHYNaQByF+XUSinFgLfDiCkMM8KGRf+E1YKD0XUZPkUDDdOG9sVdjcd8yoDj6dsuveRHX75kQ6rpumOSTatS2xj+prO5mbpaGqnMOBdKgQ4WJWIGI+IiZrzMTKXq2ZrSkhfPlvcw2jgyzGntqm4bBQHcWXtgL1mLCsiIHjlqtVbURYi4KgtIKEeYP1spnvw04wM3LZiVcrB5tOfef+99r333f371see3vvubvv7BcyJQokKwyo8f2EN9/T2UjvYFJfhkAnpEhf5S3ORSaguQeNkiC3aiBChYGqizisPKMSK7MjbgpPajtS5TNPqPW9av+/5ta1ee1hyuPm+1Z8Ntn2rT+NDOGinKx5FyvwrYdWp0JhVtkhkfj61UroHCULUAG9UH/C0LSkt/ti4/3TcT68JiMfVFolG3WqnWNdc3oH13GRXoqkiLLqzcpjeGmBO7dAV4JdzJYEvBvAzLrxcXFLw6E+P5UAuQJEH/8567G/H7l7/8gx8u2nv42Of7XJ5VLn+wKuqPZoZCURQceigEzcMAS0SPn1pklyhhD8I/KxY9m7ghuMBUMNM1bFLj7eEFsyAJAYsLvuR4N5oZHSgrLHx29bKl2/752kv7/zoTb/M9vOfXP/fJXX995bXPPPLc818/2Nx8DURoWcgVoN46PwrLOqkROEnFs6qosLwSLsIMgfSgROYWWx6s3bMmJ5VUSEc0IYD5dwSpKALmg/8jJ+7FwVlPf9+ByoL8Zz5+++2/vmXp/AkbAqVCmlllpbsa+w7YYx5v5kHUMjBzLUVlsw6WI79vYTEJVAHYQV7/tsVL5//4vOzss9Z9xXOePat828HGRlT2xQocPV206623aem558EqLEKgOdk7HqsY69dIymB2hvl3C8tLp2x9DKfzD+/68oEHn33+9meee+n7ze1dlwXCgTx2Efc1N1BrVxt1HD9KhcUlVFxeAUGSLbK2OIFFkch4EjU+I45kZbmodAckSRR1V47ebsCoNJK7s/PQ3LLSpz9y9VW/uWnZwp5U3vlE5+RkZe1tsw18Am8dlmkjHUNRcfm8SjJnpLOyD7cb8su4uh1rM41CjdWF2d+pyUl/baL7TvXvhYWFjbCKOpwufzYhY/TIvr0QXmrKKiwkLVzuHHtl/DfgfbMgceVY0363uLjgN0hdnhFE7ynl90118u+X6773uz/k1TY0V7e2dF/l9gbnwd9YgOrqDATRLACPM8b0Gm1Ep1KhyVJErVH5NVp81Gq3LhYf1MVi/fi+X6NVt5lN5gM5WdktOVnWvvvu+EjX+2X+pzvO7/3hj2s3b3/37tbm1nWIfhbEoO2igwjp0tJJa0S/FWAVpUGIWAF6p0FrYb0Bghl+8eFuogiYQxAYS/zxwtLr7e6ikNMZ1gcDR6rzsjduWLns4a997NYpuydGm+Ov//R43n/93yN/96t153tgRerhwiwC3lZxWTkZYYFqtBphcUb8/mNXr1jzxU+vW3BaLrPTpXMq17+yfW/6fT+9/6E+h/sjKp2RPGDKxsw8KquqoYICWCIGCBFlCAww5F5QUfrDi9euenCV3jjtAJ7fe/Chte9s2/nN7l7bGk84muuFpsxFhQqtViAqWzOzyAimbMnOJC1ojT0kXMciviAV5gklIgrh7UVbhiCyqwZtvWgvMBhV+71Hqgvz3rxwxfI/f+XGG/amQpdUz7n/ob8sfPjpJ/4WjGoW+OF+jULIZQLHrrxaUoTUSBZhZcdM8caLF8/9wh1LFqSchpzqGEaed92/fP1Huw7VfhuodKQ0mEgHy76gpJSyS0vIkAYFl7OlowFHTVH+99avWvaH9dbMGbGGhHI31Ul8WK77zRMv67u6u6w2my3N6XQW+Hy+HOT+pKkNurjZZHKlpaUNZGVYHelWi8tiMnnTDAa/3qD13bD2nGlPmXu/0fxHv/rtBdt377v9eEvLoqBCVQHOkOMTSQaw1KA9acE8WGhwUFDNNRxASB4uRLgmIwSNFYUlXehbX7+gsmzrRees/PvKhTVHLli6cEbo+/lv/vjije/u+g+gOS2LwKltBDKzGokAPFZJ+40duuD89T//7T9/5uH3y/t44NHHF/7l0ccf8HgjF3vBkAMQ5mqdiUywpuPAd4vHwwMLq8se/uoXPvfvF5QVz0j6KdPqlR379Ft37F6zfffeLzV19S4B6nS5QqXWBFBsGMf7Z2BMFeitROIKF/uK2EjiSFqq/D1nlGHJ9KPup2l+Sck7l65b+7dVc2sOnzdnzoxo2R+779uf3L7z0I+CcVUxRC2FEKw3WMwQcsjVw1o2KlV1115w/g9++oXbJmgZMD0r5r+fenHOr//08K/sLu+FGoyBU9s5GUGLzFEVV+Irwjb0GPrrZ2+76d9vWr7MMT1PHf0usgCZSerK9xYUePSl1/I379i1qL655fzOvp6FsK1zw9FoejQSwd5TASVfgV6AUYUUL1KEEG/wqNVqR3p6ek9OTk7tnNKK7eetWrPllotWzuhmSL6ub/7sN4tfe/vt+1we5zKkkKYhCB2D39mFzLljF1188UMPfv2us77Yc+TS++Ujj9c8+Y9n70ER6yql1pDlC8C7Gie30aRvnb+g+rk7P3nH7y9ZMJdBEs7I8dtnXql6d/eeNc2tLZd29fTNQqw3G8WF6fhphKDmvukcAJGytWMMgx13aTQqFywTe3FxUe3smuqt56xe8fon15xzRlyIX/jeT27etnPPlzyh0Gww6cwQzA4kx/Tnp2XUXnr+ht//592fefqMEC7xkD+8vKnq2Rdf+uKx4/Xnh8PxAiB4I69N6UFdVOvSJfOevu36qx699fy1/TM9JlmAzDSF5fufRIFNm7eqWm29+bZBp2VgwG6KRaNaZFWpwDQQvw2rjCaTPzMjw5WRaR0sKirqv2L1qhmxNCZ6Lc+/uVF96Mjh2R6PPwMZNwqz2eycP39h+40XXnBGhNhE45vq3x/8vz+X9vX1ZQWDfp3JYHDXVFd13Xr99TNTs5DiIJ99Z1tad29vYd9Af67D6coCEzRE0XESZI+p1IoA0nm9UCRsedlZNvzsv/KclVzTcMaPZzZutBytb6gB/Uqg5ETzc3O7lsxfdOzSdavfsyy83z/6eEVLe1tByB8wWswWe3FJYfunP3LLjAuOM058+YEyBWQKyBSQKSBTQKaATAGZAjIFZArIFJApIFNApoBMAZkCMgVkCsgUkCkgU0CmgEwBmQIyBWQKyBSQKSBTQKaATAGZAjIFZArIFJApIFNApoBMAZkCMgVkCsgUkCkgU0CmgEwBmQIyBWQKyBSQKSBTQKaATAGZAjIFZArIFJApIFNApoBMAZkCMgVkCsgUkCkgU0CmgEwBmQIyBWQKyBSQKSBTQKaATAGZAjIFZArIFJApIFNApoBMAZkCMgVkCsgUkCkgU0CmgEwBmQIyBWQKyBSQKSBTQKaATAGZAjIFZArIFJApIFNApoBMAZkCMgVkCsgUkCkgU0CmgEwBmQIyBWQKyBSQKSBTQKaATAGZAjIFZArIFJApIFNApoBMAZkCMgVkCsgUkCkgU0CmgEwBmQIyBWQKyBSQKSBTQKaATAGZAjIFZArIFJApIFNApoBMAZkCMgVkCsgUkCkgU0CmQCoU+P/LvcryKmGhsgAAAABJRU5ErkJggg==;" parent="82SbF4fwL_mv2y3TkE3i-4" vertex="1">
          <mxGeometry x="522.76" y="490" width="52.63" height="20" as="geometry" />
        </mxCell>
        <mxCell id="82SbF4fwL_mv2y3TkE3i-10" value="" style="shape=image;verticalLabelPosition=bottom;labelBackgroundColor=default;verticalAlign=top;aspect=fixed;imageAspect=0;image=data:image/png,iVBORw0KGgoAAAANSUhEUgAAAM0AAABnCAYAAACjO8bhAAAAAXNSR0IB2cksfwAAAAlwSFlzAAALEwAACxMBAJqcGAAAILxJREFUeJztXQlYFUe2LlREEXcBEVCU1SVuuKBsFy6I7MimAUFFEUFERdGICq64BXdlB2XfBFmNEo1mMauZ7HnJm7wkk2Qmk1kT32QmMUm/ru5bdHV13wWEAHn1f9/5QOlbXX37/H1OnTrnNAAUFBQUFBQUFBQUFBQUFBQUFBQUFBQUFBQUFBQUFBQUFBQUFBQUFBQUFBQUFBQUFBQUFBQUFBQUFBQUFBQU3YReHwoFxYADrsCDCBncg0KOPQhQ8lAMMMiRBSr3EJXo95Kg8XEiUfJQDAjghEFkgUo9lBUDVoapZHgPCRrPQHUORCA58lBQ9Dtwynn79u1hp6rfipi+oflDPe+rHwHvK0g+Bl6klHRT+M8PXnb14+nrWz4Oyew4umB1th3giQQJRJKHEoeiX4JTzJs3bw47XvVW2MItt/9oGFD3CHiXMcCnvNdksE8FY76q4avFmxuPh29ItzA2NjYCvPVBlocSh6LfotMtO51XO27LmXu+izY3V44OqWOARxEDvIp7TQZ7X2HMV9Z/F7i7cZObf5QZOwdIHNzqUOJQ9DuQaxn9yMhII7+U4gUB+557dUJYAwOUvUcaKEN9Splp0bUdTrEXfNjzj2FlJCuGgBKHop9CQhrAu0hGK1euNA1Kbyk0DKr6nl2H9B5xWFIaBdQwfk91fJqYmDiNPfdYICYOucahoOhT4KSBygnXE9A9gm7SmPkuflOC9zRkzdvU8vvhPo9BHM8izRbLs5gZ5l/FLN5Um7tsxVpbIBBnuGpOQwC1NhS/AnTZdddEGqi4JvEbN808WnLvoMeOW4xeNwijz5JtVGAZM0TJEsetgF0nFbIEklkrscQZE1zzaN3xZ/ITErfYAN5VQ2scShyKXoE6kshtGsodg9wzjjRKpdI0u/R2dMDuprwlW1pftYio7paFMY+oYvaVPGB25rzKzF7fwIwNKmMGe8sfP8izhHFMbv/8ydRLvuwcjIFAnGGArm8oehjqdvQ1pbCQn+E2NG/cuGF5svzF4LUn7z2YEd/GGPhWMUDRzSiaopCxDKtkXv7gGwbi0U8/M3/827+YtPzXmIlhFbIum4FP6S8+O1s7IracVrLzGc/KaFZGAPnAAAVFtyCyFo6Ojvp3XnlvWtzRZruU7Fb7htuvQ1dnKBDvvJO774NTUlIMtp3pWOK67dbr1jHN/wZeV7WvRbQu8ouYIezPmGP3mGde/5L57OuHzAvvfs347HqGMVyuZo3EfsY4ooEJ3Nfx4txFblPYuY1jZRTgAwPUTaN4LIgsS35+vmFew2szww7c3ROSefe1OUm33ly0tePNkEPPv7714v1DxY0vTIfhZCBNXeEkNTV1eEbB816K1Gc/tFh1/Qe9ZeU8aXogQqbvXcJZnEUJ15lpq6qZwaqomXqylTBjQqr/E5HRUrxx/UZrwK+v1K1vKCh0giRXLPXySxFhB++1WUZf/2p8YAUzwr+CGRlQwUwIrmTs17V8E3Hw7nWWFOu8vb2huwOf2vjuu76tra3BxvQLJmuP3lwRdeRuvnVsw9vjQ2sY3uI8JnEgQeBGKQwCeOhgvdi/D2KJMz3h5rdJh2vWAn59I+emUWtDoRMkhDld/aq3Q1zLv4BnqbyCsy6PvlcpY7u26buT5a9m55bUzgT8kxuRxwAIiZlQMUeyJDJen9W0XbGj/ZNpa5p/4NJq5KJevSnuxYzbNnZ9E7t5BuDdNHVhaAoKtRARZuuRgvGRB2+udtjQ+pCzCBpdnmJGj316T45qYFxS2l5OPFzpkbh5G0pdMcQEkgauIaCSmiQlJc1ctycvesrKqx0GflW/Lmk8C5lxYbUPJi5c7QiEaBqyNpQ0FFohIkzQmnSjJw/fipmX2PLmINaK6Lxg9yhmDP3KmMjDzz2XdKI51na2swngSQKf4kaqn9AV4kjDyiRWprgmll0yDKrr9bQa8VwLGYsn69+wdo5ayM5hIhCsDR6Cpi4ahSwk+ykRme1rrFY3fGngW/5zlxWZPX6Ef+VPVtENX8RmPXs25chVJ8A/xUdjAhUUPt2hNbJ02liebxhUq8N6pIh3EVmrJpWuzVPPo4QJ2tve4Reycq5qHjAEDQmOXDRKGgpZSAizJ+dZb9t1LQ95RXyMdQbchV9xjVma0vZBbvFV+DSHRBmrEvj7BFZMWTF3SijP00aaQd7FzNiQ8l9sYut+to6t/QkXG1YmRtb8PHhZqW5z9ihizGNamay81gPs+acC3uLB+aBABiINddEoRBARJiYtd3xIxo2YaWuuf68H1zA9sm4oYoZ4lzJOyW2fhO5rOZa0J3v2okWLoCsEn+pQSaGLZua0qSJXG2kM/SuY+Ultn/nGpsdbzXZdNnWOu9fUuQrl1HkKT+t5np6esQc3uW65ds8krPbHId4a5s+eY7DX1V/Wnnju0+AVwZDMlDQUOkFEmMDYPUaBT7XGztzQ/ECPi2T14NpBye3EMzYx1/66Mfvu+fi9ee6Ad82gcKRZsqkyRxtpWJePcdzc/okydFME+5l5rEC3ajYrT7Aya/KUKXPX7MyO9Uu//fakyPrvgVeJ4NJ1CqyzKWUmhNY8TD5Svof9HEzgtALUPaPQAolL5r+nLdYi6toXQ5eXdX0NoyNxYFGYSUT9j/Zr6+9n5N5KsbFxgE936J7pSBpoadr/Rxm+OZz9zBxWZrECw8UOrNizYjd+/PjpYRv2+CmTio9Oiar/nrVOP40Pq2d4ucaYhNf/bL+24f3AnXW5qs/BzU1L1TzwsDMNBFB0QkKY7WdvKqfENP4LKK/0fvSKe9pfYWYmv8CszqhJAPwTflIXSPOJV0RyGOCty3RWYA8AqPjQxbJS/YRi7R+6znlvds32ktbftRY3P2graXmzraD27pkZ8xYvADzJYAoQTKWB5CVDzvqAumYUgCDMyh2Xx3vtbImdvLrpf3tsDaMjcYzCrjOOsbnb2HmYQ9GFNPrLyxiLqPpP5/lviQS8hYGEgYVlUPEt0VisWKj+Df+fIxDg3TA7ldhin4PHk1aGbm5SdAKRZrB3bOYI77TW1bZrr7NrmC7sw+ACc8cUhVwdjJ6adHx1pBkd3sQ4xlyCpJkMxSlBeyAAbp6ahlZ/u2Jb3i7Au1bIUkCSwOCCCSac2wd4UiACWakEkWyS6lg821muTIDi/yk6rczyxItjXbY2RU9cee1LfbiG0YUccG8EhnOXlTGQZMNYV8kqup5xT2lhJkfVMgbqsoo1kGb+6vOpQOVW6RJyhn8z9CtnVux/5hUgrEcg6SA5kPKjsDYKaUO3CxEIF1PV3+BxOGFopjNFJzqtzJ7CV8KWbn3mgb5PqZQwnNKW8ImP7kXMoGXlzOjQesY4vPYHQ78rf5uT0PRn56S6F0a5HzsXtLOydG/xg7+bRVTxmcVdJU3UmTTAWwtrp41lOm1u6nmXMJMiq75Nu3DzclxcPAwXQ4sBSQAJAskCCTBKJfB3uE6BxBhPCDoWumSUMBSy6FzLpOW9nrIk5dbf9VlCDF1ezowJqmKM/Mt/NIms/6d1bOPfhnoX3HdMuHb/yYPtHXOjLp1Sbjy3KzXjTJydnd0i9vNz7R1mLok7VJetSG15MMy75Ocup/izxBi2opExW3YYkoZbY/hsrykwCtExjYY9ZvSKembR5qaPV6S3XA7fdnlZxNqtcBycCEZASNuBMgoT9HdIFtTSCRFGXfWmpspUXUq/KQYYRBWUBwruOcWcfLnCZFXz++bRjR/4Hbj/4cKEuhtuW2pzNh5rOWc0a6WXe0iCV1z8JvcZM2bA/ZCZKpm1PCTK0z85Z49zase340Prul0TM8i3lpkScPLguHHj4Lh2q/Y1FECLpnuOWyEzzLeCmRpz/d+eO2/ejsxozQiNP/CEhYUFKipDpCAFblyi9rVk7Y9cy1p15d3ahJJogENEmqys4yOzchpsbEOfXjgn/IhT5tkK57gNiTAaBdcHctEmGJ518AxP8l6ddbdjQmj1w0Gw7dLjFJE5FzAbn77b4evruxiOn57z7BWTlY1dS9tR8mKwvIwZF1L1n4WbW18M2tN2ZPfJsnmBgYHQXUPEwYmiqceztj4IeNN2snk7/n+aSr8peQYIyFp9qDBQkaCbAl0alDgJo1CQOFZA2O+AoVnr9OzqeO8dzVVTVl3jd9ofdz/HOZ9Ze/y5V/wDgpaw4ztcLLt1wDi87lG3xuXIU8KMDKx6ZPFkw9dLU1qbIvY3p82cOROFkVF5gpx10YUwZNN2snE7XjOkrfSbEmeAQI40qJUSXAPAhTEkDgzbwjAst9fh5ORkE55wyN03ra7Qbl3zLwbs+qfHCsUURcwT62tesZ3rvhTwm5T2U6Jq/gq8H7NxIEegK8zwgEpmxvrr73rsaDsXk1EXkLDnHHwA4GsYTc3Qhe/LIz8OeBXdZa/7HlAWInleIp75zcAj9yhwPxcJdLdoFP0coiwAwN9UZG1Qqj4iD7fPkXmuOjA66275hBUVj4DnY2Y8y4hxaPkHsz1jlwMVaVy2tnyl97ikQeIJN0PLGZPI+h8Xb2l9LXRf25Etx6tmBwQEQMuqiTiDRN+VMv9Q14lb9E+OQPbrJgGBQOoar1Py9GPIWRtEHLw4DIZouX2OxZuqz5qubPhHb+WimUbWPnSLPb7JyMgIrqfsA3c3V4wKqOixhhvoPEOWlTJjgyofOafeeWvHxdvbg4ODxwNxHwPShRrU+T155h3u/rkL3wE2UdDllbNwPUmc3ojk9dR4AzrCKOej4745vKnw5iICjXJOvnZxfET9d1yps3cPCzvmmJDan9YcbSuKjE2AWc926w83HjIPr/1B73Ebbci6bMXMKL8KZnHKjXeTj1/zVQUKyP0ZvH8bv4bxzD0itmAFX7BEui+W/Pc1Wp1pEZOBuGcCvh+krdFiV+Rxo3g9NaYu4wwYEqlb3JJvJeMIVNb8kk9qzqvPPrG+4c8O6+r+PD2u7hsHTmq/cVhX+xcZ+auOwh0/Z+P1vwSlt9S5hqUsAzDBcu1TPjM2tv6XgV/FLz1u2VQy1LuU8d3z7B/2596KB7xlJVs3IfLw34lHzlHRGG5nnwb8us+CEHMwN8WbPf4ZqauY/yIQv7FAm4XrjuBkJ6N4miJ52qKF6sbUNp6uc5Mbp19Bly8GKgskD0cchUIxYaGzp5n9rPmW0+xnTZ1ibW9rYWU9fZLl1FlmFlazJ5pPnmtqPnme6STL+VBMJlk6ahJ4LPwM/KyZxdRZw0eZOgC9IVyW8gRjYxv/XQ1VZpG13/datjW7LhseUM0sTm7/aEV8JqzFwXs64+4T775KSHMmGwgJoZNVYglw8jhlbZecd2lWDFBPHDkrp0nIY/AHHyl4SFybspNhdbkxNb3PlCSKprlpm1e/g6YnC0kceJPhzcbD0jDhEYaiYQoM2s+xJ8SBEPT/KMsYfhZGtKyAoHiW6adr1il2tL8PU3h6y9pwezu+FY+iD996fsGCBWZA2gwdWd3hwONSluizrqdPA02EQeJ+qZawNi8BPtAiJo7ikhe79jnUKYtP2HbOYdFRO6A47wU88lOBImcDECsc/zs8Xpl/Hovs8dE9j7wj7BzigTQQoU7R+Xs/f68xUOSuZ93QJtGYnnkXWCvrAzRHBgdrHye/FLifjyDG0RT+73dQ97RBxEF9ylDLJUQcMnN4ahfESvU5qHBI0Sapxp0UGBY9fd3RtvMj/Kt+6dXaHmUJ80RC6w+7T1UEAWmWM9pzMQQeF+VIQxIGzR/JJGDmNl1yTof1joAkDrlmQopJWjhIBPwlvLOSTTkF1Hqd7OdcspcDaQNHqaJDJVcW/0OLpf6ctZpLgLinHW459DmCax2n8G2ZcXojSNLrkAsU4Ps5KHMYhqThng6vIIKYaxF0nJnq86aqsfDSZ9M5c+ZYrTzy3EOg1LFJRjfdtGEhDcyCuKKDQKinQT2dUfbACDWksQRC/Y4Zdh3isgQYJMA/u/jAOtXfUWb1SAk5XE75slaiQjrfghcAynCAoWyodLpf6z/BnLSZQJprJyh6V6KEcLwlh5yBkG0hPGg88i90aRznk35A3j3u164aDtK3xd00eGFQqTpD0kBojtFVwVP4x2AyVvU30/1nqsKtY659ou9T1nvWxrWQ8d3T8fzq+K2w14AxEHo6C40NFRePiS3BabSmQYQxUV3TOEz4BwsZFODXQxMBXpKguCQe3+V0kryCFbwIUAY3SSrPwj8AxYUT3Lpp6alk1i3LA16F3xJP9neAEPgQK7rbuWWS83kWvMu6USfYOe8F7udOclFD0d9ZiyPO8TNkreRK6Tj5L3LjLDkSKzsOJM4T22EVLr7WG9DEwdc3aE9HFJZ+DMEzkfGMZEgejjiT/Y5GGfqV3NVbVto70TRFITMtpuENe5fVqFkgaqwxovM6FRcI0nCKj6wlIgxekjAaIPK7nT0lVqC8l4FgmXiiKS4el52bR+4NVslOsdYpBCw+GAwWprsD9JCBSgaVmruG3EogrR0yBfO2KyXE4cfAyyF4q6os/Jy4xr0As/wAeQWKyzWi45ZkBWDjjZScz/npZNGc+HEmAndiHEVuFZAGSQbU+4I0BQfIsHRXBD29NR3D9XkGqsCDvuncaWPcM1ePW1HxKeiNcmxYouBX9sDQPggmjeJ9AgRCS0kDQ854ERtUZPyJiyzyWO7JKiUNPA+qMp3APYVF82IVb+42LyAulsOtGU+cqaFT2LkdB1LCCG6z2/kCsZKzT3thTcXP2TV7FWEZXgLiyldBzD3tuPkpcqrB9IR5ovm4nEkUE4E9RjwfsStPWpwZifOA9EXCA9La4K4aGYrUFOZUJwaE4P+Hb7CiwAP80i1corNWTVvb/Ah4XunxNY7DmoaHKUdL461YqM6HSMA/PTnSYOfkSYOUHgUQkE8uvgboMklJI14HkcSCii5eA+IERcVzeMNFvH8cUnR+fely8oB4bG6PyQTgRXiKnBzRMU6H1wDpelUgsIW3rWouYjfbM69dbNX2hQLpmlcQaLHx412z9xHfJwpaDKiyc102q7TtK+gD3QgmRxqUfc31evbfcGKVYnvbn8zCqhm9HoyqTY2q+0vMzosxEydOtAJCP2cNpDmLSGOMHYtnFgihemgJpKTBo22mEhduUcZ6IA5hk+smcg2IB2dw0lgAx92RhJVEayqhNByuOUTKvjcMiBVcLmiDE4YX0jUTB4ZI8plxQRH8eOiyib9TOWszIKBLOoQ68qgjC2dZHB0dDVNSUkaFRsWNmuUeOnqMnWLM1gOXrIoaXnLLKryhTDxc6R2Ucnm5c8xJfxu/fcETXFPDM0ve+FC5q6NrpdWaxKOImRxV95a9azT09VGvASGypZ40eH8B3J1A18i99l2yXhFIg8gwkRsPP8bxKbiHgYeycYKS/bDHgJmb5wKng4HA/cJJ1kqdYhf1p7gxXVmCuF8Q7xXxkT/cPTTWouxmAHclxQEcscUjv1sx8dE5TTsFWiLxd3MfCGs9uXeh9nsXrbupESRJOmtO3nj7o0U1t97xXJ3ZoLRbVajccfmFrORLL9e4bWuqsYmprhkZWFxrsar6jmLXnc+W7nj2i7lJN76wXd/y5eTV178cH1H31fDAqj+ZhVT8NC6gtFtvgZYV9yLGdWvzbY/lYbCMG+4doS6baFGvjTT4q9UNsGvn97c88ipllFa8NyVPGtLK4OsQnsxLT/gBjxxpaFqTuGaj8wvuobyy44oudufU9WDQTBp0HchKGbMWNUSGNGYy32u/ddG6YlFIknAECQwMNKysrDQ5crHGKmRbgf3Vmx9fOVT2u1blzpY2s8jydkXarR9ddz3PTF3XzowKa2Cf8uzCXlHCfll88iaAbaRgNaiiUHijmWfR47+XU53A3mvhTYwiPu8E4DMUumNp0M1FlkZMGhgmxs/pdHQ70J00qPsois6hYIMRu6BfyoVqu3rNrtlngNC6irci6pVd3fmFyCJeViIdx5IYB63J+HUYjApKrTA6FkUx5d6D2qfoihXRz8kvHpl+LH9sfGap+eXGt5XKrTVe89dXBG3LffOE+86bhdYx9U2uKe1fOKxt/M+ooPIfjIKqmRHBNcxQ/ypm0PJK9qnOEsG9gCfEr/kOGrWkKWGs1zT8b1RSJlywwpQeeJN1XdPg7hm6ueSaxkji+sxJhrv9mt2zBXtgy108pI1IjG1sEoSBwQQ+20Dzmsb1aUQaYV1FZmjbPLkEiK0Dfn48+olKSvj1p3rS4NYS7cuNBU6HgrSQBn+dY78gjba8M+6JWXX9ltmxK3ccbEIvPrHlzN11EQdvbXVMqDuy8fzr785OaHrXOKzqv23WNP/bJLKBGQKJ4QEtRwlvMTqtxK/8SkBdhJ3XSJbUQU813hk6dCgsgIMJo/AGdzV6hvdME1JcoEKRm5YwxCp+iiPSiAMBC9LDgHgvB4Vh+X0V19M+YsJcygNykTN4nvm75EgzGZvDJMkGLCSaQBoy2IFfozho45n/ngz5SNKgNdkY9rrTRce7nS8EgkuI3t7QL0ijLqNVPy0tbURt232L3WdbZ+Q3v3NoWVrrcZeUlhbXtDtvjg6tf8c8vOZ74xWVv+gvv8q1hx3kw64tvK/2X2KotTDFzAi/SsZt+83PE3dkBAM+gdQKdG+fBs8jQ5uFI7gUE9IaiF0zISJFkoaPXuGKhj/lDSVpN3ADVBwiFtryLtwXr4E0vIvocipTPM8jqUBqaQTSeOTsBIrLGwBJGi4LARtn0f4NQJ40vLhfyhUfz0UNcZew35GmM03m9fe/CDxe826mW0pTkf++O9/Zx11nYNM+/YAaRg/ui7gVDCxSaJGhLOEdExvfc30yA+aBQSsDXTOoSF3NCBCnwwiWabeEMNDKTHSB1ankAtuEU3opacix1ZMGkk5MFiSWwPVckehYl6fPApI0tjGLxXMt+lY1V1LZR3IJlspi/tqURZ9xeXJoTeOY5iG5ZunaiI+8wYif9FhzIHXP+jzs3EmYwvaPXDacfiXHYX3T76fGNP7LbNV1ZqhvJdfsgn8132+HJMKN4coBmHHBZW+YLYwNMTQ0gq/pQFYG3jDdcs9glMf1bDa3FoEhXhjqVVzK4RIq1S3OhbUMvlbhI0nu58Wbm/ymILlmGtE5J6ioovmwbhHMqBZqfHhxPnFAMg+383XAcWcksIlyAngwQlrG8B5XUIeTF6bMwHwz/DgYwRM6mBpLElQ9c+9zpMTD1nAtA3PlRPPi8vnkrFufBwI6LUz82VcyFiTfZPSWlfEk6S+L894Q+NZpdo0Few/MTGj/k41/5vbBQwxggiCs7YE1Qfi7abRnOXdJCr8DizLRZiWeCSBEksg0mkX7VwBp1EogjV2MuTQZk7UOcE/G9cxp7idKUYHRMs/8LyXzEvZr+I3GSR723Fwl3x07rmfeS7IPA5hJIE6yNQbmXnYax5F9mHGhZtwCkyHnPtunESVhzt7UnDEhvI6PaCl+Y8JdUxH3QDDwr2LGBFf9sjip5evIzLYbPmv2R7MLf2hhcMIgt0y3ehpdBSrDnC2wjBvfKMQtCB9JIrMGeNKI3SKcNNASOp+M0np+j7z3wUTnmRxxyL/xT3Z8px8leEoVXk4UOVVAnNUtpPJ0ZRw4R95K4hZY7g0OfeuasTIkeP8Nf9ftt16yWdPKTI5uYiyjr/8mBF6LzdpWxnr1tR/GhZR+6b2z/X3/XY2tyxPObo/YsCsECC+BgoRB+zL4DrRM5eZlHUnDKgokCswd410bufwxPBWG3ygk3T+4fyEcJxfq5WubnA4HSiJWncqYc1O1LlGtbbJPs9ZHsDjidBpBYEImDHSoU3powZaeSAHyqTQCcXQZxylrGxCn18htGPe5awYFRcsMSuvabfMb34jIyOmIST/XumZXdmPczpP1G1KP18RvP1aVsPVoxaaUI+WJKYfLkrYcKk1KPnR1MycHryRD2XyghJOkzOItSRlFKVASMwo7ZdP+gq0i2Ze/rSclYW+eRDbtz992+Hz1tkv5V2JnzZoF33YGrQosvuL6qgGhxBp/04CmHgEoQoQaKsIbi5pqWGIiLXeWKgReQkA2aBfKCcRvNSBDvXgmOJ+bZx+3gAtTu5zM5PZ4bKOdiPOTc8JTY4yx84kzpWFAYvGBOC66BsfnM6/xHDS5tBq8d554HEhUOA6/xiFz29S99qRP3xOEkwbVx5BtaeEXgpcxQ+WCT2RrldhgYgvEvZ516RHwawvejwC9XnAyEN58htwfshsN2tjFvye83Bt1IZV2o5FXBnxjD+2qGwI82CDtOYcskbRgTFpJS5YEIFLICZ50KZdHRiZ/4mPi7hz+eWk+nOZxJhHjofngllXOyvStewbEZcyo6It7yzIQQpdQwaZgYkWIuh4A0/qBkP0IUGmyXChXjjBCCyf1SqpOCcinMVIstDbBG0qQ1gMv0kMpK3gdvjjjQFyCjorGkBjLCG4dkLLj5ySVHi9EkyMcng+HW85RWsYhx0IWmLT4fZpzJkcavGkGIo60kKlrPQDIvYJfW9S5Irj5xxVYU/8x0tpoU1K5tHmh2Eva2AIv6kNpKeQrQfCGE+Rn8DQWvEwAFzIbGbcK+Dt65PLJ1L0MCyecuAJUfB3qxpkgMxb6jtQRps/SZ8jaf9xnx/1qsvZf7onV30WuFwF+k+WaOKAbhP/Ey71xJRW17wViBcWf4OSLo8hXcuBJr3h6CvpdrnOMpDcdUF9+PpIQZA1wRR9GnBsvaUfXiq53NBBbFrIjjbqOrfh3Jkdc8oHSLwgDgNja4MRRV/s/egCL3BvPyFdtaOqzpa5PAqlU2pRS05sDtDXUU9dMjyw/J5Udt1Ry5eX4q0HIc5FKj4+JWyV1vc/kHgSaxtHlnvQp1OadAemTDq/pH4hCKokmxZW7OWQyq1yPBLk+CaRCynWi1JQsK9dJk5ynOvLIlZPjxCAJImf1SKXHS9Hlrk0dqeX6SqgbR+6+9AvCIGiq/e9u3X9/FTnl6ErvYHUPGbnviizr1nY+bbVLg3T4nDbCqSOhXH9nudopdVW45Fhy8+zuONruSZ9Blzqa35JoUsCufFdyitXV86mzaLqIus9oIlx3yNiVcXWZd3fG6bfoyg37rcmv/V09zvi9OS/yPD15bb19T/oN+lqZ+5ocXcFv6sZTUFBQUFBQUFBQUFBQUFBQUFBQUFBQUFBQUFBQUFBQUFBQUFBQUFBQUFBQUFBQUFD0U/wfTm60UnDvycAAAAAASUVORK5CYII=;" parent="82SbF4fwL_mv2y3TkE3i-4" vertex="1">
          <mxGeometry x="531.57" y="590" width="35" height="17.59" as="geometry" />
        </mxCell>
        <mxCell id="82SbF4fwL_mv2y3TkE3i-11" value="" style="shape=image;verticalLabelPosition=bottom;labelBackgroundColor=default;verticalAlign=top;aspect=fixed;imageAspect=0;image=https://www.fiware.org/wp-content/uploads/2018/05/FW_VERT_noclaim_RGB-forms.png;" parent="82SbF4fwL_mv2y3TkE3i-4" vertex="1">
          <mxGeometry x="594.4799999999999" y="722.5" width="29.04" height="24" as="geometry" />
        </mxCell>
        <mxCell id="82SbF4fwL_mv2y3TkE3i-12" value="" style="shape=image;verticalLabelPosition=bottom;labelBackgroundColor=default;verticalAlign=top;aspect=fixed;imageAspect=0;image=data:image/png,iVBORw0KGgoAAAANSUhEUgAAAMgAAADICAIAAAAiOjnJAAAWX0lEQVR4nOydeVwT1/r/JwlkD0FWkR1EAXcQFRREURAV3PeqVavX2ltr672trdraRfurt1rbW7u4Va2ttlbbolWrFde6476jAooIArIkgbAk+b0w98UXIXNmJpmTGfB5v/yHZGY8mfnMWZ7zLA4mk4kAALYRct0AoGUCwgKwAMICsADCArAAwgKwAMICsADCArAAwgKwAMICsADCArAAwgKwAMICsADCArAAwgKwAMICsADCArAAwgKw4MB1A+xEdY3pyh29o6Ogc1sp1215LnguhPXWlwWrtj6prjERBOHhIvp4jsf01Fb0Tz9/s/KjDUWHMnSlGqOni2hIH9WK1zydVSKcTW72CFq8z/uERbnb9pd7uzsM6a3U6U27jmnKdcYv5nu+Os6Vzukb0kpe/TS/Qv/MXVIrhGkrfeO6KbC1utnTwoWVX1zrlXw7PFCcsTlIKqmbUGbnVUdMvldda8pJC3FVU3TYPx8oG7fwocWv5FLBze1tfT0d8TS82dPCJ+8/7CsjCGLKYGezqgiCCGgj7hep0FWa9p3QUp6+bGMR2VcVetOqrcWsNrZF0cKFdShDRxBE7y6yhh/26lT357kblehzC4prLmVWIQ748xS1NJ9bWriwtBXGuimR8pmJtvnPRtOmpuQ+rkUfcDO7mo02tkxauLDMmNeDTGntSjEDCwuUWNuilk8LF5b52Wc/qmn44e2cugEuyFuMPtfbwzE0AHVMn2dHWKAhLVxYY/qrCILYkV7e8MN9J+vmRv27yylPf2MiyiQxfxItg8XzSQsXVv8opVop/P2oZuPu0qpqY0m54e3VBdeyqqPCpVEdqIU1ZbD61bEuFr/6dkHrtr4wFJLSwu1YBEEcOK2duexRToPRMKazbMPiNu396crij+Oab3aWpJ/TVehNziphSqzqtfEukaEwDqJo+cIiCEKjM6xPK917UquSC4f2UU0Z7Cxs4T019zwXwgLsD7y5ABZAWAAWQFgAFkBYABZAWAAWQFgAFkBYABZAWAAWmkcwRVZe9Y70cm2lydfTYVQ/J/sHMhSW1O46pr1fUBPqLx7cW+mkYNaABwU1Z65VEgQR21Xu4WLNPa+pNd3KqQoLkIqaSQwH3y3vGp3h9VUF638vrf9EJhG8Nt7lg394OtrlpdDoDHOW52/ZW1b/iZNCOHecy4KpbgoZdX+v0Rle/iTf7CFt5sWh6i//7UXnXDPb9pd9u7Pk8PkK859x3eQLp7kl9lIy/yl2hdfC0ugMPaZlWXTU7N9dnrbCj+bjuZGln/xeXv2f5zYH0WzAo6Ka+Nk5t+9baEBKH2XaSj/KK/SannX6amVyjHLuOBeCIJZvLjqUUTE9Rb1+sTedBsxcmreuwUtVz3svuS2Z5UHvR3ADr+dYH6wrJHP/TT9XsWWvhTtukQq9KeOmvv4f/Qa8v7bQoqoIgth1XNvIzaspB05rT1+t7NpOsmeV36Bo5aBoZfrXAeGB4u92l9XUUr/P634rsaiquoatKzp2QUfvR3ADr4W1aU8Z6ts/UN82JDJMZjoTbjoTHhnKIAzaaCJ+/BMlnXW/l6CvcOC0liCIcQOcGn44bqCTydTY99Ai//35CeLbT7fwOkaI18IqLDEgvj15hSLMxkYu3a7UPI3FIOPsdYrOz9w79u7yjEehv5eYIIgrd1HxPwRBlOsMl++gjkk/Bz1W88SIEhVhXqmhDyjTGp+Gtj5zk72exmg8fFyDPpfyAG0lfyfHfBeWmxq1tu4Rjje9R6e2UqlEgDggiqoBrVR1t1dX+YxCHxbWKcaHKoS6nZ8Uvez19+J1EDavhTXqaSgEGROT1Fj/d7GjYERfVAPGJjihr9DpaWabs9efGbLzi2sJggjzp4gREomIgT1QuSGG9Oa1xYHXwvpgtkc7P8sPIDRAPGMYg4wx1rF4hrtSbvkWRbSXvphC0YCBPeuUsf3gM/P07QfLRUJiaCxKsmbe/4eHA0mXrZQL/z2Z1zFCvBaWRyuHc5sCxw9s3DG8MqbVhe+DyB45i4QFSi7/GNQ0UGzKEHX61/5iR9RASRBEcowqrpv89DV9wpzsXw+V/3qovM/MrAu3qmYOd24UnG2R7mGytBW+Ph6NR8T2/uJzmwIDvCj6PG7htYG0nlNXK/adrFsESRwFExKdAtpYeU+7T7mXcVNvOhPO9MT9p7QnrlTW1JocHQSj+qk60c7eVqoxjHzrwaFzFfWfJPVS/PL/fOm/FfnFtau3P9l7Unvxtr57mGxQL8X8Sa4qhntK9qd5CIstrBaWjRzO0N3IriIIomuINLozdTxjC6B5bEKzRWSo1A4DaFPiIxXxkc9Xlrbnq8cC7AavJ+9A8wWEBWABhAVgAYQFYAGEBWABhAVgAYQFYMGuBtIb2VWfbik+nKG795DC2QhgEYGAiAqXTkxSz0htZTf7sJ0MpEYjsWxj4UcbiqqqwR7LGX6tHdcv8hrQwx7+NnYS1uJvHn+0gbTKA2A3ZBLBhS1B9NNkWo09Osb1aSWgKp5QWWVKfDXnTi720gfYhfXbkfI5n+Tj/l8A+tzPrx00Nyf7EV5t4R0Kdx3TpM5/gO/6gNW08xOf2RhIx9/QOjD2WDeyqqZ/mIfv+oAt3L5fPXje/UaBHiyCS1i3cqqiZ2QVlaICAwFuOXG5cvzCXEwXxyKs4rLakW8+MEfVAXxm93HtkrWPcVyZfWFpdIYR/35wPQtKrjUP3l9btGQN+9piefJuIohuk+6i60cCPOTz+Z5z6RXJpgnLPdbsZXmgqubIgi8fHz3PZjIINnusNz7L/2wrKkEKwGfUCuHFH4KsDq1rBGs91qqtxaCqZk2Zzthu9N2rdxnkD0PAjrDW/17y+mcFrFwK4JCaWlPKGw9u5bAwmWFhKLzzoDps7J1asFi1FIJ9HG9uDyFLG0ETFoQVOeXeeSb5F2ni4+HQKLOURYrLDMVlWEQtEQv8W9NKFUSWTtIW5FJBQpQiprM8PFDi7e5gLr4vlwqKSg3mvFyX71RduaM/eqGCUfJLmqyc5/H6RDdbrmCrsPb8rRnyOvu7gS5Owvx9oXTyIv92uHzEm1jMx+MGOG1b5kPnyIQ52ekNsjPYSP/u8tmjXAZFK1X0nPIyH1Rt/bN89S9PHj9h7QVr4+bwcE87W65g6xzr1FUs+Rr7d1fQzLY9PN7JWYVl/yABmZ6qIUksJcd2EBHrF3kd/CpgTIITTVURBBHiK3n3Jfc7O9oO7cOaB19eUW12nk3dsK2PpOBpGjHWSY5hcI9640mzQb8No6kysNGhnZ/46rbg6alWJv1SKUS7Vvp9/VZr21tixsYJBk+DKRJ7MhDWYAy57Xp1lPl40M3FGOQt9qM3GyPDWSX8a7W/7Y6ds0e5LJjKi4RsfBRWhyAxZYrOhgyLo86Ox5QZqc6Mjp+QZH2nJZcK0r8K8GXykxEsmu4e7MN9elI+CmvsAGYPydvDsU8XGYsNUMmFLyQzS3D6z9EuVv93b0527daetUS9Cplw+8e01hxY4aOwUuMYv/0DmQydlPTsIJVKmN0ZH0/HmE5WinvmcJaTqXZrL+vbjeP0brwTlqta1LWd5dcXkfo8PoLN+5gUTSrT61mkVunYrta0IaazrI07auTSVRp3pJdP/zCvx4v3Ev+Z887qgswH1JZx+ktaTPBOWIjJzf7T2jsk9zQuQuHnyVrw7fhE0nFw8TekrkvD462Z6iVEUShg9FsPRi/I/W5X6dnr+gNndB9vKu466d7+p8VUEDRNyGtneCesWSNIx4Wz1yoRZrMXBjObbpPRIUhCth7MLajZeUij0Vleh/fqJPdlLm702vPircp9pxp7s1ToTWPfprAJhwVijxxEwy9hdQqWBPuQum2cuFKZcYN0+2J6CjvCGkHe8Zy/VSdrc0lLi0xmLm6/1igtlpK4d5dpjTfIB+WnWxccZ5flV3LbfpGkHXhVtfFSZpWEPLV6sI/Yv7VDTr6tBtuYzqRz8BOX6yR1+lplAkmU+vQU52XfMQvNdXRAJYvv3UXuqhZZtFX+dKCMLd8pHPBLWIhZ867j2qd9hl5fZSRbsqXGqf77M0WpNzStVML4CNJJj7l4iVleFgn2Eft6OjwoYCDu3Meogx0dBHs/9/vX5wVHLzTei3x/Ha+Dy3k0FLqqRYm9SIehP45rCIKoNRBNb3E9I/vZurUyKVktI3epuHi7biA+fgm13zyuSR0NNI8KKRLvRIXLjnwbcP2n4Pdmusd0lilp1/zlFh61ctxAJ4QPUH1xwCPkwoqPVLi3ssmNaBa5SenaXf2TcqN5fkO2OCUIYhB5p2uRk/R28cMCJUtmuv+9LrDsUOjO5T4zhzu7IkujcQ6PhDVzGOnMN6+w5tq9/z3LtKMaxEWYdhgNae0qQtQyOdGg7qa5/opF+kYoXZwY3NW/zuhKNQy2e4VCYkS805p32hQdaJ+xOXDpy+7tqQqJcQJfhNXGzaFre9JZc8Ph7+rdqkdFpMPHFBuMDqP6o0S57+T/mY5+IS+86yBitoNeoTd9vcPKWIGIUNk709xvbm976rvAl4Y5CyhqRtkVvghrWBzqYTQqU4uYZkWFy6y2lA5G+sn83WBqdeR8RWUVaZw3YglikWUbixFjKx16dpCtXdjmzs62HYM5Nl/VwxdhDemDMlsfPPuMsI5fRE2fU6xydnBWCfuRl7u5lKkveNY/8xB5SWa0QJuirTAmvMJCXqEgb/GpDYHTUvDWB6UJL4QllwoSyZ0wNTpDo5yl6DLj1pUeHRGvQqwHm0r5b/K1oYeLw6BoZlt19/Nre0zNQr8wdFDIhGsXeqciu3/7wAthJUQpEHbCI+cb3+5LmXpE/p2EKKWQ+c9CdzM/HShr0gbU4GVFWeHCUkPsrOxpHzwsLLHJxisSEj9+6BMawPGMnhfCSuyJer/3nGi8DKw1NK6H2xCxoyCZ4SzH00U0OoFUCo+Kao5dbNxH/nVGV11DGocyebAzYpMAwcbdZR5Jt1Pn399+sNzqiDqFTLhynqeVJ7MEL4Q1vC9qOfbXGQuzmd3HUUYHps7KaPd2iyNUVY3p2AVUsoOEKOv9C3Yd0459O9dnyK15K/MpHRkskhyj8nLjcluF+y2dqHAp2hH59o4QptdMjVO9spxB4lO0c/OYAWrTAMZDW3KMcs8Jm9JsFDwxfL7tyefbnrRSCftHKVLjVPERCvrO9cnRig27Go/gdoP7Hot1/0mzL0psVwb+nEzN5XRAd8OMKNEYd6Rrpi7J80/NDBqeufY3WvuhPTty6ZLFvbBG9mM/FIJRSFavjowdkeng4+kY4st+UENWXs2sZY/ajsw0b1wisGIFwyIcC6tvhNxVjWU4npCopmmJxhHk878r96W48uIZbqYz4Yh/X/zLcpzg3dyaOZ88Ql/cxog0G+FYWEyXb/Rxb+WQQM89dwzz+RNNKEfY+g1QMiLak1rS0cY8giD0VVxWl+FYWCPwjINmEEbXejoEiRE+qzbSN0Lp6YLyQcgrojBZ9e6iIBtPI0IpIsby8QSp04RLYYX4Orbzw7i3lRpLrVqrQ9rp4CAipiMDX09dqTRSpZb+6i0vJ0Xjx6SUCz+dS2GpKinnMrMUl8IaiLkMVfsASYgvRW80jmFwLFNGUE2zjl2kMEkM6KHMSQt5Z5pbj3Cpm1rUPUz6yphWt7YH9+tOsWt0FGlmww2XdqwhyOwolzP1Ow+jrKBmlsx0R3w7Y5jzgi9JA7Z6dpB6I4Nk1vxaQjlatfMTIzZwojrI0c7KOw+V9yV3hjbjrBItfdlj6cse6MMa8qSs9nCTrTB7wpmwJI4CdPjyNztLvt5BbbBJjlYgDDYvDFIjhDW4N0V38tqKfD1VgcUAL0f0zmBKrOqrX0h/yIZdZR/N9lApWHYH3bynrEL/XE7eJyQ5oQNU0J6i9WzdT7ppaE7rgMieNRC5R3n0go5SVQRBZD+qQXu8oL0ttBXGpQwDeygp1xmYBguxDmfCmoYMAzx/s/JhIa1FzQ5yZ04zZFP41q6i6E4oe8RBS3uUFmnoXNqUxF4q9Npw+ffFP+xlbe+lpNwQMyO7kOsqRtwIy1UtiuuG6i3Syd3oGpH7uPZmNsoaNJkkbwylkenKHbq5PRFOf+a1YX/kRNtkIl5472FTzxwr0FYYpyx5SGkeswPcCIvSFw8R8dyUS5mogwf0VLZ2tdBhUBrc6U9+Ea7SZqYMofbEH7/w4ZtfFNhS5+3qXX3S3Jzdx63xhmAdboRFmQErPYPBUnn3MYrZWNMoCWeVEJ04dN8JTYmG7jPOLzagc6MPilbSSevwny3FAcMyV/5YzChup+4dyNBNXJTbacI9RDCtneFmVfj35cqz5H1SudbAKAHwwXMVS9YWIg5oGm2sVoo++b4YccphJsomCOKNVQVR4Sh/ChcnEZ0I6aJSw/xVBf9aVTAhyWnsAHXPjrLWrpafkdFInLhccfG2ftW24ru5FFGv9sfWdNz/WJa35rdS9toDNMZZJQz2FkvEAj9PR4lY8KTckFdYq6824Z5IndsUGBlmfZ5E7h39ADSlGqO5RMAJgi/DHB2498cCWiQgLAALICwACyAsAAsgLAALICwACyAsAAsgLAALICwACyAsAAsgLAALICwAC3zchI7tKp86VB3sLXZW8TrjNOfoq4x5RbV/HNdu2MU7BxN+CcvX0+E/cz3HDeRFFs3mwsh+TvNfcJ39cV7T7HAcwqOhMMRXfGxNAKjKCsIDJQe+9GdaFRYrfBGWWik88q2/vxcfc+E3CyRi4ffve49JwJgLgxG8EJZcKkhb4evlxn2J7ObOpiXeSb04rq1qhhfC2rzEGx0NBtBEJhHuXO6bEgvpuAli47tt0LVGAEbIpcK0FX5DkXkx7ADHwnrvJbepQ9mpjAo0ZNtSH0ZZWFmHS2HFdpUtmcUggwpAH4VM+Mdnfui6wFjhUlifvW45wSbACiqF6NflvlyluOVMWMkxSlvC1gA6RITKBkRxsyriTFhMS2QB1oHOR4IPzoTFn8p6LRsbaxlbDffmBgArOGoj0AGEBWABhAVgAYQFYAGEBWABhAVgAYQFYAGEBWABhAVgAYTVwmmum9BqpZVXoFn+FLCRoDZWOnw3rWXHCFuFFd3ZmorWcqmAsuQVwApdQqRWdFpuzqIQ20pJ2iqsxJ5KLzfG3mSjwRfZXkjEwnnjXZieNTHJ1gdka553giD+OqMdPO9+De06sS5q0dWtQRCTYzdKNYYuk+7ez6f7hPw8HS5sCXKxrQg8C1O7AT2U785AVaNsiFIuPLjaH1RlT5xVoj+/8FfKaT1rlVyYtsLPRlWxtipcNMP9hw+9KcfEnh1kx9YEdG1HUSUbYJ3QAEn6V/7RnShcdlNiVec2B3Zh4wGxMBTWYzIRP+wrPXhWl5XXuLRLRHtpapwqPhIm7Bxz6mrF1j/Lm9ZL6x4me3GoumMwa+88m8ICgHrAQApgAYQFYAGEBWABhAVgAYQFYAGEBWABhAVgAYQFYAGEBWABhAVgAYQFYAGEBWABhAVgAYQFYAGEBWABhAVgAYQFYAGEBWABhAVgAYQFYAGEBWABhAVgAYQFYAGEBWABhAVgAYQFYAGEBWABhAVgAYQFYAGEBWABhAVgAYQFYAGEBWABhAVgAYQFYAGEBWABhAVg4f8HAAD//2oYBb/zppejAAAAAElFTkSuQmCC;" parent="82SbF4fwL_mv2y3TkE3i-4" vertex="1">
          <mxGeometry x="755.57" y="722.5" width="27" height="27" as="geometry" />
        </mxCell>
        <mxCell id="82SbF4fwL_mv2y3TkE3i-13" value="Protocols" parent="uWiy1Z3-CHDcQIck3Mmg-0" />
        <mxCell id="82SbF4fwL_mv2y3TkE3i-14" value="&lt;p style=&quot;margin-top: 0pt; margin-bottom: 0pt; margin-left: 0in; direction: ltr; unicode-bidi: embed; font-size: 6px;&quot;&gt;&lt;b style=&quot;font-size: 6px;&quot;&gt;AAS&amp;nbsp;&lt;span style=&quot;border-color: var(--border-color); background-color: initial; font-size: 6px;&quot;&gt;(&lt;/span&gt;&lt;span style=&quot;border-color: var(--border-color); background-color: initial; font-size: 6px;&quot;&gt;json&lt;/span&gt;&lt;span style=&quot;border-color: var(--border-color); background-color: initial; font-size: 6px;&quot;&gt;)&lt;/span&gt;&lt;span style=&quot;font-size: 6px;&quot;&gt;&lt;br style=&quot;font-size: 6px;&quot;&gt;&lt;/span&gt;&lt;/b&gt;&lt;/p&gt;&lt;p style=&quot;margin-top: 0pt; margin-bottom: 0pt; margin-left: 0in; direction: ltr; unicode-bidi: embed; font-size: 6px;&quot;&gt;&lt;i style=&quot;font-size: 6px;&quot;&gt;&lt;span style=&quot;font-size: 6px;&quot;&gt;MQTT&lt;/span&gt;&lt;span style=&quot;font-size: 6px;&quot;&gt;, OPC UA, HTTP&lt;/span&gt;&lt;/i&gt;&lt;/p&gt;" style="text;html=1;strokeColor=none;fillColor=none;align=center;verticalAlign=middle;whiteSpace=wrap;rounded=0;fontFamily=Helvetica;fontSize=6;" parent="82SbF4fwL_mv2y3TkE3i-13" vertex="1">
          <mxGeometry x="644" y="700" width="96" height="40" as="geometry" />
        </mxCell>
        <mxCell id="82SbF4fwL_mv2y3TkE3i-15" value="&lt;p style=&quot;margin-top: 0pt; margin-bottom: 0pt; margin-left: 0in; direction: ltr; unicode-bidi: embed; font-size: 6px;&quot;&gt;&lt;b style=&quot;font-size: 6px;&quot;&gt;NGSI&lt;span style=&quot;font-size: 6px;&quot;&gt;&lt;br style=&quot;font-size: 6px;&quot;&gt;&lt;/span&gt;&lt;/b&gt;&lt;/p&gt;&lt;p style=&quot;margin-top: 0pt; margin-bottom: 0pt; margin-left: 0in; direction: ltr; unicode-bidi: embed; font-size: 6px;&quot;&gt;&lt;i style=&quot;font-size: 6px;&quot;&gt;&lt;span style=&quot;font-size: 6px;&quot;&gt;MQTT&lt;/span&gt;&lt;span style=&quot;font-size: 6px;&quot;&gt;, HTTP&lt;/span&gt;&lt;/i&gt;&lt;/p&gt;" style="text;html=1;strokeColor=none;fillColor=none;align=center;verticalAlign=middle;whiteSpace=wrap;rounded=0;fontFamily=Helvetica;fontSize=6;" parent="82SbF4fwL_mv2y3TkE3i-13" vertex="1">
          <mxGeometry x="560" y="660" width="51.93" height="40" as="geometry" />
        </mxCell>
        <mxCell id="82SbF4fwL_mv2y3TkE3i-16" value="&lt;p style=&quot;margin-top: 0pt; margin-bottom: 0pt; margin-left: 0in; direction: ltr; unicode-bidi: embed; font-size: 6px;&quot;&gt;&lt;b style=&quot;font-size: 6px;&quot;&gt;AAS (json, xml)&lt;span style=&quot;font-size: 6px;&quot;&gt;&lt;br style=&quot;font-size: 6px;&quot;&gt;&lt;/span&gt;&lt;/b&gt;&lt;/p&gt;&lt;p style=&quot;margin-top: 0pt; margin-bottom: 0pt; margin-left: 0in; direction: ltr; unicode-bidi: embed; font-size: 6px;&quot;&gt;&lt;i style=&quot;font-size: 6px;&quot;&gt;&lt;span style=&quot;font-size: 6px;&quot;&gt;MQTT&lt;/span&gt;&lt;span style=&quot;font-size: 6px;&quot;&gt;, HTTP&lt;/span&gt;&lt;/i&gt;&lt;/p&gt;" style="text;html=1;strokeColor=none;fillColor=none;align=center;verticalAlign=middle;whiteSpace=wrap;rounded=0;fontFamily=Helvetica;fontSize=6;" parent="82SbF4fwL_mv2y3TkE3i-13" vertex="1">
          <mxGeometry x="770" y="670" width="51.93" height="40" as="geometry" />
        </mxCell>
        <mxCell id="82SbF4fwL_mv2y3TkE3i-19" value="&lt;p style=&quot;margin-top: 0pt; margin-bottom: 0pt; margin-left: 0in; direction: ltr; unicode-bidi: embed; font-size: 7px;&quot;&gt;&lt;b style=&quot;font-size: 7px;&quot;&gt;Data At Rest&lt;span style=&quot;font-size: 7px;&quot;&gt;&lt;br style=&quot;font-size: 7px;&quot;&gt;&lt;/span&gt;&lt;/b&gt;&lt;/p&gt;&lt;p style=&quot;margin-top: 0pt; margin-bottom: 0pt; margin-left: 0in; direction: ltr; unicode-bidi: embed; font-size: 7px;&quot;&gt;&lt;i style=&quot;font-size: 7px;&quot;&gt;&lt;span style=&quot;font-size: 7px;&quot;&gt;Rest API or DB connection&lt;/span&gt;&lt;/i&gt;&lt;/p&gt;" style="text;html=1;strokeColor=none;fillColor=none;align=center;verticalAlign=middle;whiteSpace=wrap;rounded=0;fontFamily=Helvetica;fontSize=7;" parent="82SbF4fwL_mv2y3TkE3i-13" vertex="1">
          <mxGeometry x="695.5" y="390" width="80.93" height="20" as="geometry" />
        </mxCell>
        <mxCell id="vrEQ0h4mwyizi6MIvwLH-15" value="Links" parent="uWiy1Z3-CHDcQIck3Mmg-0" />
      </root>
    </mxGraphModel>
  </diagram>
  <diagram id="oBrCv9Hof5bewpBwi4sb" name="Pagina-2">
    <mxGraphModel dx="1235" dy="740" grid="1" gridSize="10" guides="1" tooltips="1" connect="1" arrows="1" fold="1" page="1" pageScale="1" pageWidth="827" pageHeight="1169" math="0" shadow="0">
      <root>
        <mxCell id="0" />
        <mxCell id="1" parent="0" />
        <mxCell id="E2oOM7yDV4IqOlAind_d-1" value="Open Innovation Platform" style="rounded=0;whiteSpace=wrap;html=1;verticalAlign=top;align=left;labelBorderColor=none;labelBackgroundColor=none;fillColor=#F2F2F2;fontStyle=1" vertex="1" parent="1">
          <mxGeometry x="120" y="30" width="710" height="670" as="geometry" />
        </mxCell>
        <mxCell id="4RLohUNtVp6r1MXyD1gr-7" value="OIP Core" style="rounded=0;whiteSpace=wrap;html=1;verticalAlign=top;align=left;fillColor=#D6D6D6;fontStyle=1" vertex="1" parent="1">
          <mxGeometry x="190" y="190" width="570" height="310" as="geometry" />
        </mxCell>
        <mxCell id="4RLohUNtVp6r1MXyD1gr-1" value="Data brokering" style="rounded=0;whiteSpace=wrap;html=1;" vertex="1" parent="1">
          <mxGeometry x="230" y="220" width="230" height="160" as="geometry" />
        </mxCell>
        <mxCell id="4RLohUNtVp6r1MXyD1gr-2" value="Data Storage" style="rounded=0;whiteSpace=wrap;html=1;verticalAlign=top;" vertex="1" parent="1">
          <mxGeometry x="480" y="220" width="240" height="250" as="geometry" />
        </mxCell>
        <mxCell id="4RLohUNtVp6r1MXyD1gr-3" value="File system" style="rounded=0;whiteSpace=wrap;html=1;" vertex="1" parent="1">
          <mxGeometry x="510" y="260" width="180" height="40" as="geometry" />
        </mxCell>
        <mxCell id="4RLohUNtVp6r1MXyD1gr-4" value="Relational Database" style="rounded=0;whiteSpace=wrap;html=1;" vertex="1" parent="1">
          <mxGeometry x="510" y="310" width="180" height="40" as="geometry" />
        </mxCell>
        <mxCell id="4RLohUNtVp6r1MXyD1gr-5" value="Graph Database" style="rounded=0;whiteSpace=wrap;html=1;" vertex="1" parent="1">
          <mxGeometry x="510" y="360" width="180" height="40" as="geometry" />
        </mxCell>
        <mxCell id="4RLohUNtVp6r1MXyD1gr-6" value="Time series Database" style="rounded=0;whiteSpace=wrap;html=1;" vertex="1" parent="1">
          <mxGeometry x="510" y="410" width="180" height="40" as="geometry" />
        </mxCell>
        <mxCell id="G2uPQ9IrssAtiJpINU0S-2" value="Digital connectors" style="rounded=0;whiteSpace=wrap;html=1;" vertex="1" parent="1">
          <mxGeometry x="230" y="390" width="230" height="80" as="geometry" />
        </mxCell>
        <mxCell id="E2oOM7yDV4IqOlAind_d-2" value="Digital Thread" style="rounded=0;whiteSpace=wrap;html=1;" vertex="1" parent="1">
          <mxGeometry x="190" y="70" width="130" height="90" as="geometry" />
        </mxCell>
        <mxCell id="E2oOM7yDV4IqOlAind_d-3" value="Digital Agorà" style="rounded=0;whiteSpace=wrap;html=1;" vertex="1" parent="1">
          <mxGeometry x="330" y="70" width="140" height="90" as="geometry" />
        </mxCell>
        <mxCell id="E2oOM7yDV4IqOlAind_d-4" value="Simulation services" style="rounded=0;whiteSpace=wrap;html=1;" vertex="1" parent="1">
          <mxGeometry x="480" y="70" width="130" height="90" as="geometry" />
        </mxCell>
        <mxCell id="NnOEdl1Lq7tEPtKurXoU-1" value="Machines" style="rounded=0;whiteSpace=wrap;html=1;" vertex="1" parent="1">
          <mxGeometry x="190" y="630" width="570" height="45" as="geometry" />
        </mxCell>
        <mxCell id="NnOEdl1Lq7tEPtKurXoU-2" value="AAS" style="rounded=0;whiteSpace=wrap;html=1;" vertex="1" parent="1">
          <mxGeometry x="190" y="530" width="190" height="90" as="geometry" />
        </mxCell>
        <mxCell id="NnOEdl1Lq7tEPtKurXoU-3" value="Process Control Manager" style="rounded=0;whiteSpace=wrap;html=1;" vertex="1" parent="1">
          <mxGeometry x="390" y="530" width="180" height="90" as="geometry" />
        </mxCell>
        <mxCell id="7o66NgUtjGqO2RhOQJ50-1" value="Materials knowledge extractor" style="rounded=0;whiteSpace=wrap;html=1;" vertex="1" parent="1">
          <mxGeometry x="620" y="70" width="140" height="90" as="geometry" />
        </mxCell>
        <mxCell id="7o66NgUtjGqO2RhOQJ50-2" value="Edge sensors" style="rounded=0;whiteSpace=wrap;html=1;" vertex="1" parent="1">
          <mxGeometry x="580" y="530" width="180" height="90" as="geometry" />
        </mxCell>
        <mxCell id="7o66NgUtjGqO2RhOQJ50-4" value="" style="shape=flexArrow;endArrow=classic;html=1;rounded=0;width=17.619047619047617;endSize=7.171428571428572;fillColor=default;" edge="1" parent="1">
          <mxGeometry width="50" height="50" relative="1" as="geometry">
            <mxPoint x="440" y="170" as="sourcePoint" />
            <mxPoint x="440" y="210" as="targetPoint" />
          </mxGeometry>
        </mxCell>
        <mxCell id="7o66NgUtjGqO2RhOQJ50-5" value="" style="shape=flexArrow;endArrow=classic;html=1;rounded=0;width=17.619047619047617;endSize=7.171428571428572;fillColor=default;" edge="1" parent="1">
          <mxGeometry width="50" height="50" relative="1" as="geometry">
            <mxPoint x="500" y="210" as="sourcePoint" />
            <mxPoint x="500" y="170" as="targetPoint" />
          </mxGeometry>
        </mxCell>
        <mxCell id="7o66NgUtjGqO2RhOQJ50-6" value="" style="shape=flexArrow;endArrow=classic;html=1;rounded=0;width=17.619047619047617;endSize=7.171428571428572;fillColor=default;" edge="1" parent="1">
          <mxGeometry width="50" height="50" relative="1" as="geometry">
            <mxPoint x="330" y="520" as="sourcePoint" />
            <mxPoint x="330" y="480" as="targetPoint" />
          </mxGeometry>
        </mxCell>
        <mxCell id="7o66NgUtjGqO2RhOQJ50-7" value="" style="shape=flexArrow;endArrow=classic;html=1;rounded=0;width=17.619047619047617;endSize=7.171428571428572;fillColor=default;" edge="1" parent="1">
          <mxGeometry width="50" height="50" relative="1" as="geometry">
            <mxPoint x="330" y="650" as="sourcePoint" />
            <mxPoint x="330" y="610" as="targetPoint" />
          </mxGeometry>
        </mxCell>
      </root>
    </mxGraphModel>
  </diagram>
</mxfile>
